G04*
G04 #@! TF.GenerationSoftware,Altium Limited,Altium Designer,19.1.6 (110)*
G04*
G04 Layer_Color=32896*
%FSLAX25Y25*%
%MOIN*%
G70*
G01*
G75*
%ADD47C,0.00500*%
G36*
X11670Y81633D02*
X11775Y81627D01*
X11869Y81611D01*
X11953Y81594D01*
X12025Y81577D01*
X12080Y81566D01*
X12097Y81560D01*
X12113Y81555D01*
X12119Y81549D01*
X12125D01*
X12219Y81516D01*
X12308Y81477D01*
X12386Y81438D01*
X12452Y81400D01*
X12502Y81366D01*
X12541Y81339D01*
X12569Y81322D01*
X12574Y81316D01*
X12641Y81261D01*
X12702Y81194D01*
X12752Y81133D01*
X12791Y81072D01*
X12824Y81022D01*
X12852Y80978D01*
X12863Y80950D01*
X12868Y80939D01*
X12902Y80856D01*
X12929Y80767D01*
X12946Y80684D01*
X12963Y80611D01*
X12968Y80550D01*
X12974Y80501D01*
Y80456D01*
X12968Y80373D01*
X12957Y80290D01*
X12941Y80212D01*
X12913Y80140D01*
X12857Y80012D01*
X12785Y79901D01*
X12752Y79857D01*
X12719Y79812D01*
X12685Y79779D01*
X12657Y79751D01*
X12630Y79724D01*
X12613Y79707D01*
X12602Y79701D01*
X12596Y79696D01*
X13967D01*
Y79224D01*
X10127D01*
Y79662D01*
X10476D01*
X10404Y79718D01*
X10343Y79773D01*
X10288Y79835D01*
X10238Y79901D01*
X10199Y79962D01*
X10165Y80029D01*
X10138Y80090D01*
X10115Y80151D01*
X10088Y80262D01*
X10077Y80312D01*
X10071Y80351D01*
Y80384D01*
X10066Y80412D01*
Y80434D01*
X10071Y80523D01*
X10082Y80611D01*
X10099Y80695D01*
X10127Y80772D01*
X10188Y80922D01*
X10227Y80983D01*
X10260Y81044D01*
X10299Y81100D01*
X10332Y81144D01*
X10365Y81183D01*
X10393Y81222D01*
X10421Y81250D01*
X10437Y81266D01*
X10448Y81278D01*
X10454Y81283D01*
X10532Y81344D01*
X10615Y81400D01*
X10698Y81450D01*
X10793Y81488D01*
X10881Y81522D01*
X10976Y81549D01*
X11153Y81594D01*
X11237Y81611D01*
X11314Y81622D01*
X11381Y81627D01*
X11442Y81633D01*
X11492Y81638D01*
X11525D01*
X11553D01*
X11558D01*
X11670Y81633D01*
D02*
G37*
G36*
X11148Y78364D02*
X11026Y78342D01*
X10915Y78308D01*
X10826Y78264D01*
X10754Y78225D01*
X10693Y78186D01*
X10654Y78153D01*
X10626Y78136D01*
X10621Y78125D01*
X10565Y78053D01*
X10526Y77975D01*
X10493Y77898D01*
X10476Y77825D01*
X10465Y77764D01*
X10460Y77709D01*
X10454Y77675D01*
Y77664D01*
X10460Y77603D01*
X10465Y77542D01*
X10493Y77431D01*
X10532Y77337D01*
X10582Y77254D01*
X10626Y77193D01*
X10665Y77143D01*
X10693Y77115D01*
X10704Y77104D01*
X10754Y77065D01*
X10815Y77032D01*
X10937Y76982D01*
X11076Y76943D01*
X11209Y76921D01*
X11331Y76904D01*
X11381Y76898D01*
X11431D01*
X11464Y76893D01*
X11497D01*
X11514D01*
X11520D01*
X11620D01*
X11714Y76904D01*
X11803Y76915D01*
X11880Y76926D01*
X11953Y76943D01*
X12019Y76965D01*
X12080Y76982D01*
X12136Y77004D01*
X12180Y77026D01*
X12219Y77043D01*
X12252Y77065D01*
X12280Y77082D01*
X12302Y77093D01*
X12319Y77104D01*
X12324Y77115D01*
X12330D01*
X12374Y77159D01*
X12413Y77204D01*
X12480Y77298D01*
X12524Y77398D01*
X12552Y77487D01*
X12574Y77570D01*
X12580Y77631D01*
X12585Y77659D01*
Y77692D01*
X12580Y77775D01*
X12563Y77853D01*
X12541Y77920D01*
X12513Y77981D01*
X12485Y78025D01*
X12463Y78064D01*
X12447Y78086D01*
X12441Y78092D01*
X12386Y78147D01*
X12319Y78197D01*
X12247Y78242D01*
X12180Y78269D01*
X12119Y78297D01*
X12069Y78314D01*
X12036Y78319D01*
X12030Y78325D01*
X12025D01*
X12097Y78786D01*
X12247Y78747D01*
X12374Y78691D01*
X12485Y78630D01*
X12574Y78569D01*
X12646Y78508D01*
X12696Y78458D01*
X12730Y78425D01*
X12741Y78419D01*
Y78414D01*
X12818Y78297D01*
X12874Y78175D01*
X12918Y78053D01*
X12946Y77936D01*
X12963Y77831D01*
X12968Y77786D01*
Y77753D01*
X12974Y77720D01*
Y77675D01*
X12968Y77542D01*
X12946Y77420D01*
X12918Y77304D01*
X12890Y77209D01*
X12857Y77126D01*
X12841Y77093D01*
X12830Y77065D01*
X12818Y77043D01*
X12807Y77026D01*
X12802Y77015D01*
Y77009D01*
X12735Y76904D01*
X12652Y76810D01*
X12569Y76732D01*
X12485Y76665D01*
X12413Y76616D01*
X12352Y76582D01*
X12330Y76571D01*
X12313Y76560D01*
X12302Y76554D01*
X12297D01*
X12163Y76504D01*
X12030Y76471D01*
X11897Y76443D01*
X11775Y76427D01*
X11720Y76421D01*
X11670Y76416D01*
X11625D01*
X11586Y76410D01*
X11553D01*
X11531D01*
X11514D01*
X11509D01*
X11381Y76416D01*
X11264Y76427D01*
X11148Y76443D01*
X11048Y76466D01*
X10948Y76488D01*
X10865Y76521D01*
X10781Y76549D01*
X10709Y76582D01*
X10648Y76616D01*
X10593Y76643D01*
X10543Y76676D01*
X10504Y76699D01*
X10476Y76721D01*
X10454Y76738D01*
X10443Y76749D01*
X10437Y76754D01*
X10371Y76821D01*
X10315Y76893D01*
X10265Y76965D01*
X10221Y77043D01*
X10188Y77121D01*
X10154Y77193D01*
X10110Y77342D01*
X10099Y77409D01*
X10088Y77470D01*
X10077Y77526D01*
X10071Y77576D01*
X10066Y77614D01*
Y77670D01*
X10071Y77753D01*
X10077Y77837D01*
X10110Y77981D01*
X10149Y78114D01*
X10199Y78225D01*
X10227Y78269D01*
X10249Y78314D01*
X10271Y78353D01*
X10293Y78380D01*
X10310Y78403D01*
X10321Y78419D01*
X10326Y78430D01*
X10332Y78436D01*
X10387Y78491D01*
X10443Y78541D01*
X10565Y78630D01*
X10693Y78702D01*
X10809Y78752D01*
X10920Y78791D01*
X10965Y78802D01*
X11009Y78813D01*
X11042Y78819D01*
X11065Y78824D01*
X11081Y78830D01*
X11087D01*
X11148Y78364D01*
D02*
G37*
G36*
X11681Y75972D02*
X11819Y75955D01*
X11942Y75933D01*
X12053Y75905D01*
X12141Y75877D01*
X12180Y75866D01*
X12213Y75855D01*
X12236Y75844D01*
X12252Y75839D01*
X12263Y75833D01*
X12269D01*
X12386Y75777D01*
X12491Y75711D01*
X12580Y75644D01*
X12652Y75578D01*
X12707Y75517D01*
X12752Y75467D01*
X12774Y75433D01*
X12785Y75428D01*
Y75422D01*
X12846Y75317D01*
X12896Y75211D01*
X12929Y75106D01*
X12952Y75006D01*
X12963Y74923D01*
X12968Y74884D01*
X12974Y74856D01*
Y74795D01*
X12968Y74695D01*
X12957Y74606D01*
X12941Y74529D01*
X12918Y74462D01*
X12896Y74407D01*
X12879Y74362D01*
X12868Y74340D01*
X12863Y74329D01*
X12818Y74262D01*
X12768Y74196D01*
X12719Y74140D01*
X12663Y74090D01*
X12619Y74046D01*
X12580Y74018D01*
X12558Y73996D01*
X12546Y73990D01*
X12913D01*
Y73563D01*
X9061D01*
Y74035D01*
X10415D01*
X10360Y74079D01*
X10310Y74129D01*
X10265Y74185D01*
X10232Y74229D01*
X10199Y74273D01*
X10177Y74307D01*
X10165Y74334D01*
X10160Y74340D01*
X10127Y74412D01*
X10104Y74484D01*
X10088Y74556D01*
X10077Y74623D01*
X10071Y74678D01*
X10066Y74723D01*
Y74762D01*
X10071Y74878D01*
X10093Y74995D01*
X10121Y75095D01*
X10154Y75189D01*
X10188Y75267D01*
X10215Y75322D01*
X10227Y75345D01*
X10238Y75361D01*
X10243Y75367D01*
Y75372D01*
X10321Y75478D01*
X10404Y75567D01*
X10487Y75644D01*
X10571Y75705D01*
X10648Y75755D01*
X10709Y75794D01*
X10732Y75805D01*
X10748Y75816D01*
X10759Y75822D01*
X10765D01*
X10898Y75872D01*
X11031Y75911D01*
X11159Y75938D01*
X11281Y75961D01*
X11381Y75972D01*
X11425D01*
X11464Y75977D01*
X11497D01*
X11520D01*
X11531D01*
X11536D01*
X11681Y75972D01*
D02*
G37*
G36*
X13967Y72342D02*
X12591D01*
X12652Y72292D01*
X12702Y72237D01*
X12752Y72187D01*
X12791Y72131D01*
X12818Y72087D01*
X12846Y72053D01*
X12857Y72031D01*
X12863Y72020D01*
X12902Y71948D01*
X12929Y71870D01*
X12946Y71793D01*
X12963Y71720D01*
X12968Y71659D01*
X12974Y71615D01*
Y71570D01*
X12968Y71448D01*
X12946Y71332D01*
X12918Y71226D01*
X12885Y71138D01*
X12846Y71060D01*
X12818Y71004D01*
X12807Y70982D01*
X12796Y70966D01*
X12791Y70960D01*
Y70955D01*
X12719Y70855D01*
X12630Y70771D01*
X12546Y70699D01*
X12463Y70644D01*
X12386Y70599D01*
X12324Y70566D01*
X12302Y70555D01*
X12286Y70544D01*
X12274Y70538D01*
X12269D01*
X12141Y70494D01*
X12008Y70460D01*
X11880Y70433D01*
X11764Y70416D01*
X11664Y70405D01*
X11620D01*
X11586Y70399D01*
X11553D01*
X11531D01*
X11520D01*
X11514D01*
X11359Y70405D01*
X11214Y70422D01*
X11087Y70449D01*
X10976Y70477D01*
X10926Y70488D01*
X10887Y70499D01*
X10848Y70516D01*
X10815Y70527D01*
X10793Y70538D01*
X10776Y70544D01*
X10765Y70549D01*
X10759D01*
X10643Y70610D01*
X10543Y70683D01*
X10454Y70755D01*
X10382Y70827D01*
X10326Y70888D01*
X10282Y70938D01*
X10260Y70971D01*
X10249Y70977D01*
Y70982D01*
X10188Y71088D01*
X10143Y71193D01*
X10110Y71299D01*
X10088Y71393D01*
X10077Y71471D01*
X10071Y71537D01*
X10066Y71559D01*
Y71593D01*
X10071Y71687D01*
X10082Y71776D01*
X10104Y71859D01*
X10132Y71931D01*
X10160Y72003D01*
X10193Y72070D01*
X10232Y72126D01*
X10271Y72176D01*
X10310Y72225D01*
X10349Y72264D01*
X10382Y72298D01*
X10410Y72325D01*
X10437Y72347D01*
X10460Y72364D01*
X10471Y72370D01*
X10476Y72375D01*
X10127D01*
Y72814D01*
X13967D01*
Y72342D01*
D02*
G37*
G36*
Y69373D02*
X10127D01*
Y69845D01*
X13967D01*
Y69373D01*
D02*
G37*
G36*
X14034Y68651D02*
X10060Y67536D01*
Y67913D01*
X14034Y69029D01*
Y68651D01*
D02*
G37*
G36*
X11681Y67330D02*
X11792Y67319D01*
X11897Y67303D01*
X11997Y67280D01*
X12091Y67253D01*
X12175Y67219D01*
X12258Y67186D01*
X12324Y67153D01*
X12386Y67119D01*
X12441Y67086D01*
X12491Y67053D01*
X12530Y67025D01*
X12558Y67003D01*
X12580Y66986D01*
X12591Y66975D01*
X12596Y66970D01*
X12663Y66897D01*
X12719Y66825D01*
X12774Y66748D01*
X12813Y66670D01*
X12852Y66592D01*
X12879Y66514D01*
X12929Y66365D01*
X12941Y66293D01*
X12952Y66231D01*
X12963Y66176D01*
X12968Y66126D01*
X12974Y66087D01*
Y66032D01*
X12968Y65937D01*
X12963Y65848D01*
X12924Y65676D01*
X12874Y65527D01*
X12846Y65460D01*
X12818Y65399D01*
X12791Y65343D01*
X12763Y65299D01*
X12735Y65255D01*
X12713Y65221D01*
X12691Y65194D01*
X12674Y65171D01*
X12668Y65160D01*
X12663Y65155D01*
X12591Y65077D01*
X12508Y65016D01*
X12419Y64955D01*
X12330Y64911D01*
X12236Y64866D01*
X12136Y64833D01*
X12041Y64805D01*
X11953Y64783D01*
X11864Y64761D01*
X11786Y64750D01*
X11708Y64739D01*
X11647Y64733D01*
X11592D01*
X11553Y64727D01*
X11531D01*
X11520D01*
X11392Y64733D01*
X11270Y64744D01*
X11159Y64761D01*
X11054Y64783D01*
X10959Y64811D01*
X10870Y64838D01*
X10787Y64872D01*
X10715Y64905D01*
X10648Y64938D01*
X10593Y64972D01*
X10548Y64999D01*
X10510Y65027D01*
X10476Y65049D01*
X10454Y65066D01*
X10443Y65077D01*
X10437Y65083D01*
X10371Y65155D01*
X10315Y65227D01*
X10265Y65305D01*
X10221Y65382D01*
X10188Y65460D01*
X10154Y65543D01*
X10110Y65693D01*
X10099Y65760D01*
X10088Y65826D01*
X10077Y65882D01*
X10071Y65932D01*
X10066Y65976D01*
Y66032D01*
X10071Y66165D01*
X10093Y66287D01*
X10121Y66404D01*
X10149Y66498D01*
X10182Y66581D01*
X10193Y66614D01*
X10204Y66642D01*
X10215Y66670D01*
X10227Y66686D01*
X10232Y66692D01*
Y66698D01*
X10304Y66809D01*
X10382Y66903D01*
X10460Y66986D01*
X10537Y67053D01*
X10604Y67103D01*
X10659Y67142D01*
X10682Y67153D01*
X10698Y67164D01*
X10704Y67169D01*
X10709D01*
X10837Y67225D01*
X10976Y67264D01*
X11114Y67297D01*
X11253Y67314D01*
X11314Y67325D01*
X11370D01*
X11425Y67330D01*
X11470Y67336D01*
X11509D01*
X11536D01*
X11553D01*
X11558D01*
X11681Y67330D01*
D02*
G37*
G36*
X14001Y64644D02*
X14012Y64566D01*
X14023Y64489D01*
X14028Y64422D01*
X14034Y64372D01*
Y64294D01*
X14028Y64183D01*
X14017Y64089D01*
X13995Y64006D01*
X13978Y63939D01*
X13956Y63884D01*
X13934Y63845D01*
X13923Y63817D01*
X13917Y63812D01*
X13873Y63751D01*
X13823Y63701D01*
X13773Y63662D01*
X13729Y63629D01*
X13690Y63601D01*
X13656Y63584D01*
X13629Y63578D01*
X13623Y63573D01*
X13568Y63556D01*
X13501Y63545D01*
X13429Y63534D01*
X13362Y63529D01*
X13301D01*
X13251Y63523D01*
X13218D01*
X13212D01*
X13207D01*
X12913D01*
Y63107D01*
X12546D01*
Y63523D01*
X10127D01*
Y63995D01*
X12546D01*
Y64533D01*
X12913D01*
Y63995D01*
X13168D01*
X13257Y64000D01*
X13329Y64011D01*
X13385Y64022D01*
X13429Y64039D01*
X13468Y64056D01*
X13490Y64073D01*
X13501Y64078D01*
X13507Y64084D01*
X13540Y64122D01*
X13562Y64167D01*
X13579Y64217D01*
X13590Y64267D01*
X13595Y64311D01*
X13601Y64350D01*
Y64383D01*
X13595Y64483D01*
X13590Y64528D01*
Y64572D01*
X13584Y64611D01*
X13579Y64639D01*
X13573Y64655D01*
Y64661D01*
X13984Y64733D01*
X14001Y64644D01*
D02*
G37*
G36*
X12047Y62679D02*
X12125Y62674D01*
X12191D01*
X12236Y62668D01*
X12269Y62663D01*
X12291Y62657D01*
X12297D01*
X12369Y62641D01*
X12435Y62613D01*
X12491Y62591D01*
X12546Y62568D01*
X12585Y62541D01*
X12613Y62524D01*
X12635Y62513D01*
X12641Y62507D01*
X12696Y62463D01*
X12741Y62413D01*
X12785Y62363D01*
X12818Y62308D01*
X12846Y62263D01*
X12863Y62224D01*
X12874Y62202D01*
X12879Y62191D01*
X12913Y62113D01*
X12935Y62030D01*
X12952Y61952D01*
X12963Y61880D01*
X12968Y61819D01*
X12974Y61775D01*
Y61730D01*
X12968Y61625D01*
X12952Y61525D01*
X12929Y61436D01*
X12902Y61347D01*
X12868Y61270D01*
X12830Y61198D01*
X12785Y61131D01*
X12746Y61076D01*
X12702Y61020D01*
X12657Y60976D01*
X12619Y60937D01*
X12585Y60903D01*
X12558Y60881D01*
X12535Y60865D01*
X12519Y60853D01*
X12513Y60848D01*
X12913D01*
Y60426D01*
X10127D01*
Y60898D01*
X11642D01*
X11736D01*
X11830Y60909D01*
X11908Y60920D01*
X11980Y60931D01*
X12047Y60948D01*
X12108Y60965D01*
X12163Y60987D01*
X12208Y61009D01*
X12247Y61026D01*
X12280Y61048D01*
X12308Y61064D01*
X12330Y61081D01*
X12358Y61103D01*
X12369Y61114D01*
X12435Y61198D01*
X12480Y61286D01*
X12513Y61375D01*
X12541Y61453D01*
X12552Y61525D01*
X12558Y61580D01*
X12563Y61603D01*
Y61630D01*
X12558Y61697D01*
X12552Y61764D01*
X12535Y61819D01*
X12519Y61864D01*
X12502Y61902D01*
X12491Y61936D01*
X12480Y61952D01*
X12474Y61958D01*
X12441Y62008D01*
X12402Y62052D01*
X12363Y62086D01*
X12330Y62113D01*
X12297Y62130D01*
X12269Y62147D01*
X12252Y62158D01*
X12247D01*
X12186Y62174D01*
X12119Y62191D01*
X12047Y62202D01*
X11975Y62208D01*
X11914Y62213D01*
X11864D01*
X11825D01*
X11819D01*
X11814D01*
X10127D01*
Y62685D01*
X11836D01*
X11953D01*
X12047Y62679D01*
D02*
G37*
G36*
X13967Y59233D02*
X13429D01*
Y59705D01*
X13967D01*
Y59233D01*
D02*
G37*
G36*
X12913D02*
X10127D01*
Y59705D01*
X12913D01*
Y59233D01*
D02*
G37*
G36*
X22841Y59499D02*
X24400Y61109D01*
Y60415D01*
X22491Y58517D01*
X24400D01*
Y58006D01*
X20560D01*
Y58517D01*
X21892D01*
X22497Y59144D01*
X20560Y60509D01*
Y61181D01*
X22841Y59499D01*
D02*
G37*
G36*
X10665Y57873D02*
X10127D01*
Y58412D01*
X10665D01*
Y57873D01*
D02*
G37*
G36*
X13967Y56519D02*
X12591D01*
X12652Y56469D01*
X12702Y56414D01*
X12752Y56363D01*
X12791Y56308D01*
X12818Y56264D01*
X12846Y56230D01*
X12857Y56208D01*
X12863Y56197D01*
X12902Y56125D01*
X12929Y56047D01*
X12946Y55970D01*
X12963Y55897D01*
X12968Y55836D01*
X12974Y55792D01*
Y55747D01*
X12968Y55625D01*
X12946Y55509D01*
X12918Y55403D01*
X12885Y55315D01*
X12846Y55237D01*
X12818Y55181D01*
X12807Y55159D01*
X12796Y55142D01*
X12791Y55137D01*
Y55131D01*
X12719Y55032D01*
X12630Y54948D01*
X12546Y54876D01*
X12463Y54821D01*
X12386Y54776D01*
X12324Y54743D01*
X12302Y54732D01*
X12286Y54721D01*
X12274Y54715D01*
X12269D01*
X12141Y54671D01*
X12008Y54637D01*
X11880Y54610D01*
X11764Y54593D01*
X11664Y54582D01*
X11620D01*
X11586Y54576D01*
X11553D01*
X11531D01*
X11520D01*
X11514D01*
X11359Y54582D01*
X11214Y54599D01*
X11087Y54626D01*
X10976Y54654D01*
X10926Y54665D01*
X10887Y54676D01*
X10848Y54693D01*
X10815Y54704D01*
X10793Y54715D01*
X10776Y54721D01*
X10765Y54726D01*
X10759D01*
X10643Y54787D01*
X10543Y54860D01*
X10454Y54932D01*
X10382Y55004D01*
X10326Y55065D01*
X10282Y55115D01*
X10260Y55148D01*
X10249Y55154D01*
Y55159D01*
X10188Y55265D01*
X10143Y55370D01*
X10110Y55475D01*
X10088Y55570D01*
X10077Y55648D01*
X10071Y55714D01*
X10066Y55736D01*
Y55770D01*
X10071Y55864D01*
X10082Y55953D01*
X10104Y56036D01*
X10132Y56108D01*
X10160Y56180D01*
X10193Y56247D01*
X10232Y56302D01*
X10271Y56352D01*
X10310Y56402D01*
X10349Y56441D01*
X10382Y56475D01*
X10410Y56502D01*
X10437Y56524D01*
X10460Y56541D01*
X10471Y56547D01*
X10476Y56552D01*
X10127D01*
Y56991D01*
X13967D01*
Y56519D01*
D02*
G37*
G36*
X24400Y56685D02*
X21381D01*
X24400Y54671D01*
Y54149D01*
X20560D01*
Y54637D01*
X23573D01*
X20560Y56647D01*
Y57174D01*
X24400D01*
Y56685D01*
D02*
G37*
G36*
Y52745D02*
X20560D01*
Y53255D01*
X24400D01*
Y52745D01*
D02*
G37*
G36*
X12913Y53544D02*
X11420D01*
X11292Y53539D01*
X11181Y53533D01*
X11087Y53522D01*
X11009Y53505D01*
X10948Y53489D01*
X10904Y53478D01*
X10881Y53472D01*
X10870Y53466D01*
X10804Y53433D01*
X10748Y53394D01*
X10698Y53350D01*
X10654Y53306D01*
X10621Y53267D01*
X10598Y53233D01*
X10582Y53211D01*
X10576Y53200D01*
X10543Y53128D01*
X10515Y53056D01*
X10498Y52989D01*
X10482Y52928D01*
X10476Y52878D01*
X10471Y52839D01*
Y52800D01*
X10476Y52723D01*
X10487Y52656D01*
X10504Y52595D01*
X10526Y52545D01*
X10543Y52501D01*
X10560Y52473D01*
X10571Y52451D01*
X10576Y52445D01*
X10621Y52395D01*
X10665Y52356D01*
X10715Y52323D01*
X10759Y52295D01*
X10804Y52279D01*
X10837Y52268D01*
X10859Y52257D01*
X10865D01*
X10926Y52245D01*
X10998Y52240D01*
X11081Y52234D01*
X11164D01*
X11242Y52229D01*
X11303D01*
X11331D01*
X11348D01*
X11359D01*
X11364D01*
X12913D01*
Y51757D01*
X11187D01*
X11081D01*
X10987Y51763D01*
X10915Y51768D01*
X10848Y51774D01*
X10804D01*
X10770Y51779D01*
X10748Y51785D01*
X10743D01*
X10671Y51801D01*
X10604Y51824D01*
X10543Y51846D01*
X10493Y51874D01*
X10448Y51896D01*
X10421Y51912D01*
X10399Y51924D01*
X10393Y51929D01*
X10343Y51973D01*
X10299Y52023D01*
X10260Y52073D01*
X10227Y52129D01*
X10199Y52173D01*
X10177Y52212D01*
X10165Y52234D01*
X10160Y52245D01*
X10127Y52329D01*
X10104Y52406D01*
X10088Y52484D01*
X10077Y52556D01*
X10071Y52617D01*
X10066Y52667D01*
Y52706D01*
X10071Y52806D01*
X10088Y52906D01*
X10110Y52995D01*
X10138Y53083D01*
X10177Y53161D01*
X10215Y53233D01*
X10254Y53300D01*
X10299Y53361D01*
X10343Y53417D01*
X10382Y53461D01*
X10426Y53500D01*
X10460Y53533D01*
X10487Y53561D01*
X10510Y53577D01*
X10526Y53588D01*
X10532Y53594D01*
X10127D01*
Y54016D01*
X12913D01*
Y53544D01*
D02*
G37*
G36*
X21015Y50164D02*
X24400D01*
Y49654D01*
X20560D01*
Y52057D01*
X21015D01*
Y50164D01*
D02*
G37*
G36*
X10188Y51158D02*
X10249Y51130D01*
X10304Y51108D01*
X10354Y51097D01*
X10399Y51080D01*
X10432Y51074D01*
X10454Y51069D01*
X10460D01*
X10498Y51063D01*
X10548Y51058D01*
X10604D01*
X10665Y51052D01*
X10804Y51047D01*
X10943D01*
X11076Y51041D01*
X11137D01*
X11187D01*
X11231D01*
X11264D01*
X11287D01*
X11292D01*
X11925D01*
X12030D01*
X12125Y51035D01*
X12197Y51030D01*
X12258D01*
X12302Y51024D01*
X12336Y51019D01*
X12352Y51013D01*
X12358D01*
X12430Y50997D01*
X12491Y50975D01*
X12541Y50952D01*
X12591Y50924D01*
X12624Y50902D01*
X12652Y50886D01*
X12668Y50875D01*
X12674Y50869D01*
X12719Y50825D01*
X12763Y50775D01*
X12796Y50719D01*
X12830Y50664D01*
X12852Y50614D01*
X12868Y50575D01*
X12879Y50547D01*
X12885Y50536D01*
X12913Y50447D01*
X12935Y50353D01*
X12952Y50258D01*
X12963Y50164D01*
X12968Y50081D01*
X12974Y50020D01*
Y49959D01*
X12968Y49826D01*
X12957Y49709D01*
X12941Y49598D01*
X12924Y49509D01*
X12907Y49432D01*
X12890Y49376D01*
X12885Y49354D01*
X12879Y49337D01*
X12874Y49332D01*
Y49326D01*
X12835Y49232D01*
X12785Y49148D01*
X12741Y49076D01*
X12696Y49015D01*
X12652Y48971D01*
X12619Y48938D01*
X12596Y48915D01*
X12591Y48910D01*
X12519Y48860D01*
X12441Y48816D01*
X12363Y48782D01*
X12291Y48755D01*
X12219Y48732D01*
X12169Y48716D01*
X12147Y48710D01*
X12130D01*
X12125Y48704D01*
X12119D01*
X12058Y49165D01*
X12158Y49198D01*
X12247Y49232D01*
X12319Y49271D01*
X12374Y49304D01*
X12419Y49337D01*
X12447Y49365D01*
X12463Y49387D01*
X12469Y49393D01*
X12508Y49459D01*
X12535Y49537D01*
X12558Y49620D01*
X12569Y49698D01*
X12580Y49776D01*
X12585Y49831D01*
Y49887D01*
X12580Y50014D01*
X12563Y50125D01*
X12535Y50214D01*
X12508Y50292D01*
X12474Y50347D01*
X12452Y50392D01*
X12430Y50419D01*
X12424Y50425D01*
X12374Y50469D01*
X12313Y50503D01*
X12247Y50530D01*
X12180Y50547D01*
X12119Y50558D01*
X12064Y50564D01*
X12030D01*
X12025D01*
X12019D01*
X12008D01*
X11986D01*
X11947D01*
X11914Y50558D01*
X11903D01*
X11897D01*
X11880Y50503D01*
X11864Y50442D01*
X11830Y50314D01*
X11803Y50170D01*
X11775Y50037D01*
X11764Y49970D01*
X11758Y49909D01*
X11747Y49853D01*
X11742Y49809D01*
X11736Y49770D01*
Y49742D01*
X11731Y49720D01*
Y49715D01*
X11720Y49615D01*
X11703Y49531D01*
X11692Y49459D01*
X11681Y49404D01*
X11675Y49359D01*
X11664Y49326D01*
X11658Y49304D01*
Y49298D01*
X11636Y49226D01*
X11614Y49165D01*
X11586Y49104D01*
X11564Y49054D01*
X11542Y49010D01*
X11520Y48982D01*
X11509Y48960D01*
X11503Y48954D01*
X11464Y48899D01*
X11420Y48854D01*
X11375Y48810D01*
X11331Y48777D01*
X11292Y48749D01*
X11259Y48727D01*
X11237Y48716D01*
X11231Y48710D01*
X11170Y48682D01*
X11103Y48660D01*
X11042Y48643D01*
X10981Y48632D01*
X10931Y48627D01*
X10892Y48621D01*
X10870D01*
X10859D01*
X10793Y48627D01*
X10737Y48632D01*
X10621Y48660D01*
X10526Y48699D01*
X10443Y48743D01*
X10376Y48788D01*
X10326Y48827D01*
X10299Y48854D01*
X10288Y48866D01*
X10215Y48965D01*
X10160Y49076D01*
X10121Y49198D01*
X10093Y49310D01*
X10077Y49409D01*
X10071Y49454D01*
Y49493D01*
X10066Y49526D01*
Y49570D01*
X10071Y49670D01*
X10082Y49770D01*
X10093Y49859D01*
X10110Y49937D01*
X10127Y49998D01*
X10143Y50048D01*
X10149Y50081D01*
X10154Y50092D01*
X10193Y50186D01*
X10243Y50275D01*
X10299Y50358D01*
X10349Y50442D01*
X10399Y50508D01*
X10437Y50558D01*
X10465Y50591D01*
X10476Y50597D01*
Y50603D01*
X10404Y50614D01*
X10338Y50625D01*
X10277Y50636D01*
X10227Y50653D01*
X10182Y50669D01*
X10154Y50680D01*
X10132Y50686D01*
X10127Y50691D01*
Y51185D01*
X10188Y51158D01*
D02*
G37*
G36*
X24400Y46418D02*
X20560D01*
Y46929D01*
X22302D01*
Y48732D01*
X22757D01*
Y46929D01*
X23945D01*
Y49015D01*
X24400D01*
Y46418D01*
D02*
G37*
G36*
X12030Y48050D02*
X12158Y48039D01*
X12263Y48022D01*
X12352Y48005D01*
X12424Y47989D01*
X12474Y47972D01*
X12502Y47961D01*
X12513Y47955D01*
X12591Y47911D01*
X12657Y47861D01*
X12713Y47805D01*
X12763Y47756D01*
X12802Y47706D01*
X12830Y47667D01*
X12846Y47639D01*
X12852Y47628D01*
X12890Y47539D01*
X12924Y47450D01*
X12946Y47361D01*
X12957Y47278D01*
X12968Y47206D01*
X12974Y47145D01*
Y47095D01*
X12968Y47006D01*
X12957Y46917D01*
X12941Y46834D01*
X12913Y46757D01*
X12852Y46612D01*
X12818Y46551D01*
X12785Y46496D01*
X12746Y46446D01*
X12713Y46396D01*
X12680Y46357D01*
X12652Y46329D01*
X12624Y46301D01*
X12607Y46285D01*
X12596Y46274D01*
X12591Y46268D01*
X13967D01*
Y45796D01*
X10127D01*
Y46268D01*
X11647D01*
X11764Y46274D01*
X11864Y46279D01*
X11953Y46290D01*
X12025Y46307D01*
X12080Y46324D01*
X12125Y46335D01*
X12147Y46340D01*
X12158Y46346D01*
X12224Y46379D01*
X12286Y46418D01*
X12336Y46462D01*
X12380Y46507D01*
X12413Y46546D01*
X12435Y46579D01*
X12452Y46601D01*
X12458Y46607D01*
X12496Y46679D01*
X12524Y46745D01*
X12541Y46812D01*
X12558Y46867D01*
X12563Y46923D01*
X12569Y46962D01*
Y46995D01*
X12563Y47095D01*
X12541Y47184D01*
X12519Y47256D01*
X12485Y47317D01*
X12458Y47367D01*
X12430Y47400D01*
X12408Y47423D01*
X12402Y47428D01*
X12336Y47478D01*
X12252Y47517D01*
X12169Y47545D01*
X12086Y47567D01*
X12008Y47578D01*
X11947Y47583D01*
X11925D01*
X11908D01*
X11897D01*
X11891D01*
X10127D01*
Y48055D01*
X11886D01*
X12030Y48050D01*
D02*
G37*
G36*
X24400Y43138D02*
X20560D01*
Y43648D01*
X22302D01*
Y45452D01*
X22757D01*
Y43648D01*
X23945D01*
Y45735D01*
X24400D01*
Y43138D01*
D02*
G37*
G36*
X11148Y44925D02*
X11026Y44903D01*
X10915Y44870D01*
X10826Y44825D01*
X10754Y44786D01*
X10693Y44747D01*
X10654Y44714D01*
X10626Y44697D01*
X10621Y44686D01*
X10565Y44614D01*
X10526Y44537D01*
X10493Y44459D01*
X10476Y44387D01*
X10465Y44326D01*
X10460Y44270D01*
X10454Y44237D01*
Y44226D01*
X10460Y44165D01*
X10465Y44104D01*
X10493Y43993D01*
X10532Y43898D01*
X10582Y43815D01*
X10626Y43754D01*
X10665Y43704D01*
X10693Y43676D01*
X10704Y43665D01*
X10754Y43626D01*
X10815Y43593D01*
X10937Y43543D01*
X11076Y43504D01*
X11209Y43482D01*
X11331Y43465D01*
X11381Y43460D01*
X11431D01*
X11464Y43454D01*
X11497D01*
X11514D01*
X11520D01*
X11620D01*
X11714Y43465D01*
X11803Y43476D01*
X11880Y43488D01*
X11953Y43504D01*
X12019Y43526D01*
X12080Y43543D01*
X12136Y43565D01*
X12180Y43587D01*
X12219Y43604D01*
X12252Y43626D01*
X12280Y43643D01*
X12302Y43654D01*
X12319Y43665D01*
X12324Y43676D01*
X12330D01*
X12374Y43721D01*
X12413Y43765D01*
X12480Y43859D01*
X12524Y43959D01*
X12552Y44048D01*
X12574Y44131D01*
X12580Y44192D01*
X12585Y44220D01*
Y44253D01*
X12580Y44337D01*
X12563Y44414D01*
X12541Y44481D01*
X12513Y44542D01*
X12485Y44586D01*
X12463Y44625D01*
X12447Y44647D01*
X12441Y44653D01*
X12386Y44708D01*
X12319Y44758D01*
X12247Y44803D01*
X12180Y44831D01*
X12119Y44858D01*
X12069Y44875D01*
X12036Y44881D01*
X12030Y44886D01*
X12025D01*
X12097Y45347D01*
X12247Y45308D01*
X12374Y45252D01*
X12485Y45191D01*
X12574Y45130D01*
X12646Y45069D01*
X12696Y45019D01*
X12730Y44986D01*
X12741Y44980D01*
Y44975D01*
X12818Y44858D01*
X12874Y44736D01*
X12918Y44614D01*
X12946Y44498D01*
X12963Y44392D01*
X12968Y44348D01*
Y44315D01*
X12974Y44281D01*
Y44237D01*
X12968Y44104D01*
X12946Y43982D01*
X12918Y43865D01*
X12890Y43771D01*
X12857Y43687D01*
X12841Y43654D01*
X12830Y43626D01*
X12818Y43604D01*
X12807Y43587D01*
X12802Y43576D01*
Y43571D01*
X12735Y43465D01*
X12652Y43371D01*
X12569Y43293D01*
X12485Y43227D01*
X12413Y43177D01*
X12352Y43143D01*
X12330Y43132D01*
X12313Y43121D01*
X12302Y43116D01*
X12297D01*
X12163Y43066D01*
X12030Y43032D01*
X11897Y43005D01*
X11775Y42988D01*
X11720Y42983D01*
X11670Y42977D01*
X11625D01*
X11586Y42971D01*
X11553D01*
X11531D01*
X11514D01*
X11509D01*
X11381Y42977D01*
X11264Y42988D01*
X11148Y43005D01*
X11048Y43027D01*
X10948Y43049D01*
X10865Y43082D01*
X10781Y43110D01*
X10709Y43143D01*
X10648Y43177D01*
X10593Y43205D01*
X10543Y43238D01*
X10504Y43260D01*
X10476Y43282D01*
X10454Y43299D01*
X10443Y43310D01*
X10437Y43316D01*
X10371Y43382D01*
X10315Y43454D01*
X10265Y43526D01*
X10221Y43604D01*
X10188Y43682D01*
X10154Y43754D01*
X10110Y43904D01*
X10099Y43970D01*
X10088Y44031D01*
X10077Y44087D01*
X10071Y44137D01*
X10066Y44176D01*
Y44231D01*
X10071Y44315D01*
X10077Y44398D01*
X10110Y44542D01*
X10149Y44675D01*
X10199Y44786D01*
X10227Y44831D01*
X10249Y44875D01*
X10271Y44914D01*
X10293Y44942D01*
X10310Y44964D01*
X10321Y44980D01*
X10326Y44992D01*
X10332Y44997D01*
X10387Y45053D01*
X10443Y45103D01*
X10565Y45191D01*
X10693Y45263D01*
X10809Y45314D01*
X10920Y45352D01*
X10965Y45363D01*
X11009Y45375D01*
X11042Y45380D01*
X11065Y45386D01*
X11081Y45391D01*
X11087D01*
X11148Y44925D01*
D02*
G37*
G36*
X16966Y44808D02*
X17055D01*
X17144Y44803D01*
X17222Y44792D01*
X17300Y44786D01*
X17366Y44781D01*
X17427Y44770D01*
X17483Y44764D01*
X17533Y44753D01*
X17571Y44747D01*
X17605Y44742D01*
X17632Y44736D01*
X17649Y44731D01*
X17660Y44725D01*
X17666D01*
X17788Y44692D01*
X17899Y44653D01*
X17993Y44609D01*
X18077Y44575D01*
X18149Y44537D01*
X18199Y44514D01*
X18226Y44492D01*
X18237Y44486D01*
X18321Y44425D01*
X18393Y44364D01*
X18454Y44298D01*
X18509Y44237D01*
X18548Y44181D01*
X18576Y44137D01*
X18593Y44109D01*
X18598Y44104D01*
Y44098D01*
X18643Y44009D01*
X18670Y43915D01*
X18692Y43826D01*
X18709Y43743D01*
X18720Y43671D01*
X18726Y43610D01*
Y43560D01*
X18715Y43410D01*
X18692Y43271D01*
X18654Y43154D01*
X18615Y43055D01*
X18570Y42971D01*
X18554Y42938D01*
X18532Y42910D01*
X18520Y42888D01*
X18509Y42871D01*
X18498Y42866D01*
Y42860D01*
X18409Y42761D01*
X18304Y42677D01*
X18199Y42605D01*
X18099Y42550D01*
X18004Y42505D01*
X17966Y42483D01*
X17927Y42472D01*
X17899Y42461D01*
X17877Y42450D01*
X17866Y42444D01*
X17860D01*
X17777Y42422D01*
X17694Y42400D01*
X17510Y42366D01*
X17327Y42339D01*
X17155Y42322D01*
X17072Y42316D01*
X17000Y42311D01*
X16933D01*
X16872Y42305D01*
X16828D01*
X16789D01*
X16767D01*
X16761D01*
X16567Y42311D01*
X16384Y42322D01*
X16217Y42339D01*
X16062Y42366D01*
X15917Y42394D01*
X15790Y42428D01*
X15673Y42461D01*
X15573Y42494D01*
X15485Y42527D01*
X15407Y42566D01*
X15340Y42594D01*
X15290Y42622D01*
X15246Y42649D01*
X15218Y42666D01*
X15202Y42677D01*
X15196Y42683D01*
X15129Y42744D01*
X15068Y42810D01*
X15013Y42883D01*
X14968Y42955D01*
X14930Y43027D01*
X14896Y43099D01*
X14874Y43171D01*
X14852Y43238D01*
X14835Y43304D01*
X14824Y43365D01*
X14813Y43421D01*
X14807Y43465D01*
X14802Y43504D01*
Y43560D01*
X14813Y43709D01*
X14835Y43848D01*
X14874Y43965D01*
X14913Y44065D01*
X14952Y44148D01*
X14974Y44176D01*
X14991Y44203D01*
X15002Y44226D01*
X15013Y44242D01*
X15024Y44248D01*
Y44253D01*
X15118Y44353D01*
X15218Y44437D01*
X15329Y44509D01*
X15429Y44564D01*
X15524Y44609D01*
X15562Y44631D01*
X15601Y44642D01*
X15629Y44653D01*
X15651Y44664D01*
X15662Y44670D01*
X15668D01*
X15751Y44697D01*
X15834Y44720D01*
X16012Y44753D01*
X16195Y44781D01*
X16373Y44797D01*
X16450Y44803D01*
X16522Y44808D01*
X16589D01*
X16650Y44814D01*
X16694D01*
X16733D01*
X16756D01*
X16761D01*
X16867D01*
X16966Y44808D01*
D02*
G37*
G36*
X13967Y41917D02*
X13429D01*
Y42389D01*
X13967D01*
Y41917D01*
D02*
G37*
G36*
X12913D02*
X10127D01*
Y42389D01*
X12913D01*
Y41917D01*
D02*
G37*
G36*
X15407Y41079D02*
X14869D01*
Y41617D01*
X15407D01*
Y41079D01*
D02*
G37*
G36*
X24400Y41756D02*
X22180D01*
X22052D01*
X21930Y41745D01*
X21825Y41734D01*
X21725Y41717D01*
X21636Y41700D01*
X21553Y41678D01*
X21481Y41662D01*
X21420Y41639D01*
X21370Y41617D01*
X21320Y41595D01*
X21287Y41573D01*
X21253Y41556D01*
X21231Y41539D01*
X21214Y41528D01*
X21209Y41523D01*
X21203Y41517D01*
X21159Y41467D01*
X21120Y41412D01*
X21059Y41290D01*
X21015Y41162D01*
X20987Y41029D01*
X20965Y40907D01*
X20959Y40857D01*
Y40807D01*
X20954Y40774D01*
Y40718D01*
X20959Y40602D01*
X20976Y40496D01*
X20992Y40396D01*
X21020Y40319D01*
X21042Y40252D01*
X21059Y40202D01*
X21076Y40174D01*
X21081Y40163D01*
X21131Y40085D01*
X21192Y40019D01*
X21253Y39963D01*
X21309Y39924D01*
X21364Y39891D01*
X21403Y39863D01*
X21431Y39852D01*
X21442Y39847D01*
X21492Y39830D01*
X21542Y39819D01*
X21658Y39797D01*
X21780Y39780D01*
X21903Y39769D01*
X22008Y39764D01*
X22058D01*
X22097Y39758D01*
X22130D01*
X22158D01*
X22175D01*
X22180D01*
X24400D01*
Y39247D01*
X22180D01*
X22069D01*
X21964Y39253D01*
X21864Y39258D01*
X21769Y39270D01*
X21686Y39281D01*
X21609Y39292D01*
X21536Y39308D01*
X21470Y39320D01*
X21409Y39331D01*
X21359Y39347D01*
X21314Y39358D01*
X21281Y39369D01*
X21253Y39380D01*
X21231Y39386D01*
X21220Y39392D01*
X21214D01*
X21092Y39453D01*
X20981Y39530D01*
X20892Y39608D01*
X20815Y39691D01*
X20754Y39764D01*
X20709Y39825D01*
X20698Y39847D01*
X20687Y39863D01*
X20676Y39875D01*
Y39880D01*
X20615Y40019D01*
X20571Y40163D01*
X20537Y40313D01*
X20515Y40452D01*
X20510Y40513D01*
X20504Y40574D01*
X20498Y40629D01*
Y40674D01*
X20493Y40712D01*
Y40762D01*
X20504Y40962D01*
X20515Y41051D01*
X20526Y41134D01*
X20543Y41218D01*
X20560Y41290D01*
X20576Y41356D01*
X20598Y41417D01*
X20621Y41473D01*
X20637Y41517D01*
X20654Y41562D01*
X20671Y41595D01*
X20687Y41623D01*
X20693Y41639D01*
X20704Y41651D01*
Y41656D01*
X20787Y41778D01*
X20881Y41878D01*
X20970Y41956D01*
X21059Y42022D01*
X21137Y42072D01*
X21198Y42106D01*
X21220Y42117D01*
X21237Y42128D01*
X21248Y42133D01*
X21253D01*
X21320Y42156D01*
X21392Y42178D01*
X21542Y42211D01*
X21697Y42233D01*
X21847Y42250D01*
X21914Y42255D01*
X21980Y42261D01*
X22036D01*
X22086Y42266D01*
X22125D01*
X22152D01*
X22175D01*
X22180D01*
X24400D01*
Y41756D01*
D02*
G37*
G36*
X18726Y39297D02*
X18632Y39242D01*
X18543Y39181D01*
X18454Y39109D01*
X18376Y39042D01*
X18310Y38975D01*
X18254Y38925D01*
X18237Y38903D01*
X18221Y38887D01*
X18215Y38881D01*
X18210Y38875D01*
X18115Y38759D01*
X18026Y38642D01*
X17949Y38531D01*
X17888Y38420D01*
X17832Y38326D01*
X17810Y38287D01*
X17793Y38254D01*
X17777Y38226D01*
X17771Y38204D01*
X17760Y38193D01*
Y38187D01*
X17305D01*
X17338Y38271D01*
X17377Y38354D01*
X17416Y38437D01*
X17455Y38515D01*
X17488Y38581D01*
X17516Y38637D01*
X17538Y38670D01*
X17544Y38676D01*
Y38681D01*
X17605Y38781D01*
X17666Y38870D01*
X17721Y38948D01*
X17771Y39009D01*
X17810Y39064D01*
X17843Y39097D01*
X17866Y39125D01*
X17871Y39131D01*
X14869D01*
Y39603D01*
X18726D01*
Y39297D01*
D02*
G37*
G36*
X12202Y41206D02*
X12280Y41195D01*
X12347Y41184D01*
X12413Y41168D01*
X12469Y41145D01*
X12519Y41129D01*
X12569Y41107D01*
X12607Y41084D01*
X12646Y41068D01*
X12696Y41029D01*
X12730Y41007D01*
X12741Y40996D01*
X12818Y40907D01*
X12874Y40801D01*
X12918Y40696D01*
X12946Y40596D01*
X12963Y40502D01*
X12968Y40463D01*
Y40424D01*
X12974Y40396D01*
Y40357D01*
X12968Y40257D01*
X12952Y40169D01*
X12929Y40080D01*
X12896Y39997D01*
X12857Y39919D01*
X12818Y39847D01*
X12774Y39786D01*
X12730Y39725D01*
X12680Y39669D01*
X12635Y39625D01*
X12596Y39586D01*
X12558Y39553D01*
X12524Y39525D01*
X12502Y39508D01*
X12485Y39497D01*
X12480Y39492D01*
X12563Y39458D01*
X12635Y39414D01*
X12696Y39364D01*
X12746Y39320D01*
X12791Y39275D01*
X12818Y39242D01*
X12835Y39220D01*
X12841Y39208D01*
X12885Y39131D01*
X12918Y39048D01*
X12941Y38964D01*
X12957Y38881D01*
X12968Y38814D01*
X12974Y38753D01*
Y38703D01*
X12968Y38603D01*
X12952Y38509D01*
X12935Y38426D01*
X12913Y38354D01*
X12885Y38293D01*
X12868Y38248D01*
X12852Y38221D01*
X12846Y38210D01*
X12796Y38132D01*
X12741Y38065D01*
X12685Y38004D01*
X12630Y37954D01*
X12585Y37915D01*
X12546Y37882D01*
X12524Y37865D01*
X12513Y37860D01*
X12913D01*
Y37438D01*
X10127D01*
Y37910D01*
X11570D01*
X11703Y37915D01*
X11819Y37921D01*
X11919Y37932D01*
X12003Y37949D01*
X12064Y37965D01*
X12108Y37976D01*
X12136Y37982D01*
X12147Y37988D01*
X12219Y38021D01*
X12280Y38060D01*
X12336Y38098D01*
X12380Y38137D01*
X12413Y38176D01*
X12435Y38204D01*
X12452Y38226D01*
X12458Y38232D01*
X12491Y38298D01*
X12519Y38359D01*
X12535Y38426D01*
X12552Y38481D01*
X12558Y38526D01*
X12563Y38565D01*
Y38598D01*
X12558Y38692D01*
X12541Y38770D01*
X12513Y38837D01*
X12485Y38887D01*
X12452Y38925D01*
X12430Y38953D01*
X12408Y38970D01*
X12402Y38975D01*
X12336Y39014D01*
X12263Y39042D01*
X12186Y39064D01*
X12108Y39075D01*
X12041Y39086D01*
X11980Y39092D01*
X11958D01*
X11947D01*
X11936D01*
X11930D01*
X10127D01*
Y39564D01*
X11742D01*
X11891Y39575D01*
X12019Y39597D01*
X12125Y39625D01*
X12213Y39664D01*
X12280Y39697D01*
X12324Y39730D01*
X12352Y39752D01*
X12363Y39758D01*
X12430Y39836D01*
X12480Y39919D01*
X12513Y40002D01*
X12541Y40080D01*
X12552Y40146D01*
X12558Y40202D01*
X12563Y40224D01*
Y40252D01*
X12558Y40313D01*
X12552Y40363D01*
X12541Y40413D01*
X12524Y40452D01*
X12508Y40490D01*
X12496Y40513D01*
X12491Y40529D01*
X12485Y40535D01*
X12452Y40579D01*
X12419Y40613D01*
X12386Y40640D01*
X12352Y40663D01*
X12324Y40679D01*
X12302Y40690D01*
X12286Y40701D01*
X12280D01*
X12230Y40718D01*
X12163Y40729D01*
X12097Y40735D01*
X12030Y40740D01*
X11969Y40746D01*
X11919D01*
X11886D01*
X11880D01*
X11875D01*
X10127D01*
Y41218D01*
X12036D01*
X12125D01*
X12202Y41206D01*
D02*
G37*
G36*
X10665Y36084D02*
X10127D01*
Y36622D01*
X10665D01*
Y36084D01*
D02*
G37*
G36*
X21903Y38104D02*
X21814Y38082D01*
X21731Y38054D01*
X21653Y38026D01*
X21581Y37999D01*
X21514Y37965D01*
X21459Y37932D01*
X21403Y37893D01*
X21353Y37860D01*
X21309Y37832D01*
X21275Y37799D01*
X21242Y37771D01*
X21214Y37749D01*
X21198Y37727D01*
X21181Y37710D01*
X21176Y37704D01*
X21170Y37699D01*
X21126Y37643D01*
X21092Y37582D01*
X21031Y37460D01*
X20987Y37344D01*
X20959Y37227D01*
X20937Y37127D01*
X20931Y37088D01*
Y37049D01*
X20926Y37016D01*
Y36977D01*
X20931Y36850D01*
X20954Y36728D01*
X20981Y36617D01*
X21015Y36517D01*
X21048Y36439D01*
X21065Y36406D01*
X21076Y36378D01*
X21087Y36356D01*
X21098Y36339D01*
X21103Y36328D01*
Y36323D01*
X21181Y36217D01*
X21264Y36128D01*
X21359Y36051D01*
X21448Y35989D01*
X21525Y35939D01*
X21592Y35906D01*
X21620Y35895D01*
X21636Y35884D01*
X21647Y35879D01*
X21653D01*
X21797Y35834D01*
X21941Y35801D01*
X22086Y35773D01*
X22219Y35756D01*
X22280Y35751D01*
X22335Y35745D01*
X22386D01*
X22424Y35740D01*
X22458D01*
X22485D01*
X22502D01*
X22508D01*
X22652Y35745D01*
X22785Y35756D01*
X22907Y35779D01*
X23018Y35801D01*
X23112Y35817D01*
X23151Y35829D01*
X23185Y35840D01*
X23212Y35845D01*
X23229Y35851D01*
X23240Y35856D01*
X23246D01*
X23373Y35912D01*
X23490Y35973D01*
X23584Y36039D01*
X23667Y36112D01*
X23734Y36173D01*
X23778Y36223D01*
X23806Y36261D01*
X23817Y36267D01*
Y36272D01*
X23889Y36389D01*
X23945Y36517D01*
X23984Y36639D01*
X24006Y36755D01*
X24023Y36861D01*
X24028Y36905D01*
Y36944D01*
X24034Y36972D01*
Y37016D01*
X24028Y37155D01*
X24006Y37283D01*
X23973Y37388D01*
X23939Y37482D01*
X23901Y37555D01*
X23873Y37610D01*
X23851Y37643D01*
X23840Y37655D01*
X23756Y37743D01*
X23662Y37826D01*
X23562Y37893D01*
X23462Y37949D01*
X23373Y37993D01*
X23329Y38010D01*
X23296Y38021D01*
X23268Y38032D01*
X23246Y38043D01*
X23235Y38048D01*
X23229D01*
X23346Y38548D01*
X23446Y38515D01*
X23534Y38481D01*
X23618Y38437D01*
X23701Y38398D01*
X23773Y38354D01*
X23840Y38304D01*
X23906Y38259D01*
X23962Y38215D01*
X24006Y38171D01*
X24050Y38132D01*
X24089Y38093D01*
X24117Y38065D01*
X24145Y38037D01*
X24161Y38015D01*
X24167Y38004D01*
X24173Y37999D01*
X24223Y37921D01*
X24272Y37843D01*
X24311Y37765D01*
X24345Y37682D01*
X24395Y37516D01*
X24428Y37366D01*
X24444Y37294D01*
X24450Y37233D01*
X24456Y37172D01*
X24461Y37122D01*
X24467Y37083D01*
Y37027D01*
X24456Y36844D01*
X24428Y36667D01*
X24395Y36511D01*
X24372Y36439D01*
X24350Y36372D01*
X24328Y36311D01*
X24306Y36256D01*
X24289Y36211D01*
X24272Y36167D01*
X24256Y36139D01*
X24245Y36117D01*
X24239Y36101D01*
X24234Y36095D01*
X24139Y35945D01*
X24028Y35817D01*
X23917Y35706D01*
X23806Y35612D01*
X23706Y35540D01*
X23662Y35512D01*
X23623Y35490D01*
X23595Y35468D01*
X23573Y35457D01*
X23557Y35451D01*
X23551Y35446D01*
X23379Y35368D01*
X23201Y35312D01*
X23024Y35274D01*
X22863Y35246D01*
X22791Y35235D01*
X22718Y35229D01*
X22663Y35224D01*
X22607D01*
X22569Y35218D01*
X22535D01*
X22513D01*
X22508D01*
X22308Y35229D01*
X22114Y35251D01*
X21941Y35279D01*
X21858Y35301D01*
X21786Y35318D01*
X21720Y35335D01*
X21658Y35357D01*
X21603Y35373D01*
X21558Y35385D01*
X21525Y35401D01*
X21497Y35407D01*
X21481Y35418D01*
X21475D01*
X21309Y35501D01*
X21159Y35595D01*
X21031Y35695D01*
X20981Y35745D01*
X20931Y35790D01*
X20887Y35834D01*
X20848Y35879D01*
X20815Y35917D01*
X20793Y35951D01*
X20770Y35973D01*
X20754Y35995D01*
X20748Y36006D01*
X20743Y36012D01*
X20698Y36089D01*
X20659Y36167D01*
X20598Y36334D01*
X20554Y36500D01*
X20526Y36661D01*
X20515Y36739D01*
X20504Y36805D01*
X20498Y36866D01*
Y36916D01*
X20493Y36961D01*
Y37022D01*
X20498Y37133D01*
X20510Y37238D01*
X20521Y37338D01*
X20543Y37433D01*
X20571Y37521D01*
X20598Y37604D01*
X20626Y37682D01*
X20659Y37754D01*
X20687Y37815D01*
X20715Y37876D01*
X20743Y37921D01*
X20770Y37965D01*
X20793Y37993D01*
X20804Y38021D01*
X20815Y38032D01*
X20820Y38037D01*
X20887Y38115D01*
X20954Y38182D01*
X21031Y38243D01*
X21109Y38304D01*
X21264Y38404D01*
X21420Y38481D01*
X21492Y38515D01*
X21558Y38543D01*
X21620Y38565D01*
X21669Y38581D01*
X21714Y38598D01*
X21747Y38609D01*
X21769Y38615D01*
X21775D01*
X21903Y38104D01*
D02*
G37*
G36*
X12047Y35218D02*
X12125Y35212D01*
X12191D01*
X12236Y35207D01*
X12269Y35201D01*
X12291Y35196D01*
X12297D01*
X12369Y35179D01*
X12435Y35151D01*
X12491Y35129D01*
X12546Y35107D01*
X12585Y35079D01*
X12613Y35063D01*
X12635Y35052D01*
X12641Y35046D01*
X12696Y35002D01*
X12741Y34952D01*
X12785Y34902D01*
X12818Y34846D01*
X12846Y34802D01*
X12863Y34763D01*
X12874Y34741D01*
X12879Y34730D01*
X12913Y34652D01*
X12935Y34569D01*
X12952Y34491D01*
X12963Y34419D01*
X12968Y34358D01*
X12974Y34313D01*
Y34269D01*
X12968Y34163D01*
X12952Y34064D01*
X12929Y33975D01*
X12902Y33886D01*
X12868Y33808D01*
X12830Y33736D01*
X12785Y33670D01*
X12746Y33614D01*
X12702Y33559D01*
X12657Y33514D01*
X12619Y33475D01*
X12585Y33442D01*
X12558Y33420D01*
X12535Y33403D01*
X12519Y33392D01*
X12513Y33386D01*
X12913D01*
Y32965D01*
X10127D01*
Y33437D01*
X11642D01*
X11736D01*
X11830Y33448D01*
X11908Y33459D01*
X11980Y33470D01*
X12047Y33486D01*
X12108Y33503D01*
X12163Y33525D01*
X12208Y33547D01*
X12247Y33564D01*
X12280Y33586D01*
X12308Y33603D01*
X12330Y33620D01*
X12358Y33642D01*
X12369Y33653D01*
X12435Y33736D01*
X12480Y33825D01*
X12513Y33914D01*
X12541Y33992D01*
X12552Y34064D01*
X12558Y34119D01*
X12563Y34141D01*
Y34169D01*
X12558Y34236D01*
X12552Y34302D01*
X12535Y34358D01*
X12519Y34402D01*
X12502Y34441D01*
X12491Y34474D01*
X12480Y34491D01*
X12474Y34497D01*
X12441Y34547D01*
X12402Y34591D01*
X12363Y34624D01*
X12330Y34652D01*
X12297Y34669D01*
X12269Y34685D01*
X12252Y34696D01*
X12247D01*
X12186Y34713D01*
X12119Y34730D01*
X12047Y34741D01*
X11975Y34746D01*
X11914Y34752D01*
X11864D01*
X11825D01*
X11819D01*
X11814D01*
X10127D01*
Y35224D01*
X11836D01*
X11953D01*
X12047Y35218D01*
D02*
G37*
G36*
X18709Y35551D02*
X15917Y34508D01*
X15801Y34463D01*
X15690Y34424D01*
X15585Y34391D01*
X15490Y34363D01*
X15407Y34336D01*
X15346Y34319D01*
X15324Y34313D01*
X15307Y34308D01*
X15296Y34302D01*
X15290D01*
X15512Y34236D01*
X15618Y34202D01*
X15712Y34169D01*
X15795Y34141D01*
X15829Y34130D01*
X15862Y34125D01*
X15884Y34114D01*
X15901Y34108D01*
X15912Y34102D01*
X15917D01*
X18709Y33103D01*
Y32548D01*
X14869Y34036D01*
Y34569D01*
X18709Y36067D01*
Y35551D01*
D02*
G37*
G36*
X19832Y31883D02*
X19494D01*
Y35007D01*
X19832D01*
Y31883D01*
D02*
G37*
G36*
X10188Y32354D02*
X10249Y32326D01*
X10304Y32304D01*
X10354Y32293D01*
X10399Y32276D01*
X10432Y32271D01*
X10454Y32265D01*
X10460D01*
X10498Y32260D01*
X10548Y32254D01*
X10604D01*
X10665Y32249D01*
X10804Y32243D01*
X10943D01*
X11076Y32238D01*
X11137D01*
X11187D01*
X11231D01*
X11264D01*
X11287D01*
X11292D01*
X11925D01*
X12030D01*
X12125Y32232D01*
X12197Y32227D01*
X12258D01*
X12302Y32221D01*
X12336Y32215D01*
X12352Y32210D01*
X12358D01*
X12430Y32193D01*
X12491Y32171D01*
X12541Y32149D01*
X12591Y32121D01*
X12624Y32099D01*
X12652Y32082D01*
X12668Y32071D01*
X12674Y32066D01*
X12719Y32021D01*
X12763Y31971D01*
X12796Y31916D01*
X12830Y31860D01*
X12852Y31810D01*
X12868Y31771D01*
X12879Y31744D01*
X12885Y31733D01*
X12913Y31644D01*
X12935Y31550D01*
X12952Y31455D01*
X12963Y31361D01*
X12968Y31277D01*
X12974Y31216D01*
Y31155D01*
X12968Y31022D01*
X12957Y30906D01*
X12941Y30795D01*
X12924Y30706D01*
X12907Y30628D01*
X12890Y30573D01*
X12885Y30551D01*
X12879Y30534D01*
X12874Y30528D01*
Y30523D01*
X12835Y30428D01*
X12785Y30345D01*
X12741Y30273D01*
X12696Y30212D01*
X12652Y30167D01*
X12619Y30134D01*
X12596Y30112D01*
X12591Y30106D01*
X12519Y30057D01*
X12441Y30012D01*
X12363Y29979D01*
X12291Y29951D01*
X12219Y29929D01*
X12169Y29912D01*
X12147Y29907D01*
X12130D01*
X12125Y29901D01*
X12119D01*
X12058Y30362D01*
X12158Y30395D01*
X12247Y30428D01*
X12319Y30467D01*
X12374Y30501D01*
X12419Y30534D01*
X12447Y30562D01*
X12463Y30584D01*
X12469Y30589D01*
X12508Y30656D01*
X12535Y30734D01*
X12558Y30817D01*
X12569Y30895D01*
X12580Y30972D01*
X12585Y31028D01*
Y31083D01*
X12580Y31211D01*
X12563Y31322D01*
X12535Y31411D01*
X12508Y31488D01*
X12474Y31544D01*
X12452Y31588D01*
X12430Y31616D01*
X12424Y31622D01*
X12374Y31666D01*
X12313Y31699D01*
X12247Y31727D01*
X12180Y31744D01*
X12119Y31755D01*
X12064Y31760D01*
X12030D01*
X12025D01*
X12019D01*
X12008D01*
X11986D01*
X11947D01*
X11914Y31755D01*
X11903D01*
X11897D01*
X11880Y31699D01*
X11864Y31638D01*
X11830Y31511D01*
X11803Y31366D01*
X11775Y31233D01*
X11764Y31166D01*
X11758Y31106D01*
X11747Y31050D01*
X11742Y31006D01*
X11736Y30967D01*
Y30939D01*
X11731Y30917D01*
Y30911D01*
X11720Y30811D01*
X11703Y30728D01*
X11692Y30656D01*
X11681Y30600D01*
X11675Y30556D01*
X11664Y30523D01*
X11658Y30501D01*
Y30495D01*
X11636Y30423D01*
X11614Y30362D01*
X11586Y30301D01*
X11564Y30251D01*
X11542Y30206D01*
X11520Y30179D01*
X11509Y30156D01*
X11503Y30151D01*
X11464Y30095D01*
X11420Y30051D01*
X11375Y30007D01*
X11331Y29973D01*
X11292Y29945D01*
X11259Y29923D01*
X11237Y29912D01*
X11231Y29907D01*
X11170Y29879D01*
X11103Y29857D01*
X11042Y29840D01*
X10981Y29829D01*
X10931Y29823D01*
X10892Y29818D01*
X10870D01*
X10859D01*
X10793Y29823D01*
X10737Y29829D01*
X10621Y29857D01*
X10526Y29896D01*
X10443Y29940D01*
X10376Y29984D01*
X10326Y30023D01*
X10299Y30051D01*
X10288Y30062D01*
X10215Y30162D01*
X10160Y30273D01*
X10121Y30395D01*
X10093Y30506D01*
X10077Y30606D01*
X10071Y30650D01*
Y30689D01*
X10066Y30722D01*
Y30767D01*
X10071Y30867D01*
X10082Y30967D01*
X10093Y31056D01*
X10110Y31133D01*
X10127Y31194D01*
X10143Y31244D01*
X10149Y31277D01*
X10154Y31289D01*
X10193Y31383D01*
X10243Y31472D01*
X10299Y31555D01*
X10349Y31638D01*
X10399Y31705D01*
X10437Y31755D01*
X10465Y31788D01*
X10476Y31794D01*
Y31799D01*
X10404Y31810D01*
X10338Y31821D01*
X10277Y31833D01*
X10227Y31849D01*
X10182Y31866D01*
X10154Y31877D01*
X10132Y31883D01*
X10127Y31888D01*
Y32382D01*
X10188Y32354D01*
D02*
G37*
G36*
X15324Y29884D02*
X16628D01*
Y32010D01*
X17083D01*
Y29884D01*
X18254D01*
Y32154D01*
X18709D01*
Y29374D01*
X14869D01*
Y32243D01*
X15324D01*
Y29884D01*
D02*
G37*
G36*
X22685Y31677D02*
X22857Y31661D01*
X23013Y31633D01*
X23085Y31622D01*
X23146Y31605D01*
X23207Y31588D01*
X23257Y31577D01*
X23301Y31566D01*
X23340Y31550D01*
X23373Y31544D01*
X23396Y31533D01*
X23407Y31527D01*
X23412D01*
X23557Y31466D01*
X23684Y31394D01*
X23795Y31316D01*
X23889Y31244D01*
X23967Y31178D01*
X24023Y31122D01*
X24039Y31100D01*
X24056Y31083D01*
X24062Y31078D01*
X24067Y31072D01*
X24139Y30983D01*
X24195Y30889D01*
X24245Y30795D01*
X24284Y30706D01*
X24311Y30628D01*
X24328Y30567D01*
X24339Y30545D01*
Y30528D01*
X24345Y30517D01*
Y30512D01*
X24361Y30417D01*
X24378Y30306D01*
X24389Y30195D01*
X24395Y30084D01*
X24400Y29984D01*
Y28508D01*
X20560D01*
Y29890D01*
X20565Y30018D01*
X20571Y30134D01*
X20582Y30240D01*
X20593Y30329D01*
X20604Y30406D01*
X20609Y30462D01*
X20615Y30478D01*
X20621Y30495D01*
Y30506D01*
X20648Y30606D01*
X20682Y30695D01*
X20709Y30773D01*
X20743Y30839D01*
X20770Y30895D01*
X20793Y30933D01*
X20809Y30956D01*
X20815Y30967D01*
X20865Y31039D01*
X20926Y31100D01*
X20981Y31161D01*
X21037Y31211D01*
X21087Y31255D01*
X21126Y31289D01*
X21153Y31311D01*
X21165Y31316D01*
X21253Y31372D01*
X21348Y31427D01*
X21436Y31472D01*
X21525Y31505D01*
X21603Y31538D01*
X21664Y31561D01*
X21686Y31566D01*
X21703Y31572D01*
X21714Y31577D01*
X21720D01*
X21853Y31611D01*
X21986Y31638D01*
X22114Y31655D01*
X22236Y31672D01*
X22341Y31677D01*
X22386D01*
X22424Y31683D01*
X22452D01*
X22480D01*
X22491D01*
X22497D01*
X22685Y31677D01*
D02*
G37*
G36*
X12913Y29102D02*
X11287Y28503D01*
X11170Y28458D01*
X11059Y28425D01*
X10948Y28386D01*
X10854Y28358D01*
X10770Y28336D01*
X10737Y28325D01*
X10709Y28319D01*
X10687Y28314D01*
X10671Y28308D01*
X10659Y28303D01*
X10654D01*
X10781Y28269D01*
X10898Y28236D01*
X11009Y28203D01*
X11103Y28170D01*
X11181Y28142D01*
X11214Y28131D01*
X11242Y28120D01*
X11270Y28114D01*
X11287Y28109D01*
X11292Y28103D01*
X11298D01*
X12913Y27520D01*
Y27021D01*
X10127Y28075D01*
X10077Y28053D01*
X10038Y28042D01*
X10016Y28031D01*
X10010D01*
X9916Y27997D01*
X9838Y27964D01*
X9771Y27942D01*
X9727Y27920D01*
X9694Y27909D01*
X9672Y27898D01*
X9660Y27887D01*
X9655D01*
X9594Y27842D01*
X9549Y27792D01*
X9533Y27770D01*
X9522Y27753D01*
X9511Y27742D01*
Y27737D01*
X9494Y27698D01*
X9477Y27659D01*
X9461Y27576D01*
Y27542D01*
X9455Y27515D01*
Y27487D01*
X9461Y27398D01*
X9477Y27309D01*
X9488Y27276D01*
X9494Y27248D01*
X9499Y27226D01*
Y27220D01*
X9061Y27270D01*
X9039Y27332D01*
X9028Y27387D01*
X9017Y27437D01*
X9005Y27481D01*
Y27520D01*
X9000Y27548D01*
Y27570D01*
X9005Y27653D01*
X9017Y27725D01*
X9033Y27792D01*
X9055Y27848D01*
X9078Y27898D01*
X9094Y27931D01*
X9105Y27953D01*
X9111Y27959D01*
X9155Y28020D01*
X9211Y28070D01*
X9266Y28120D01*
X9322Y28164D01*
X9372Y28197D01*
X9411Y28225D01*
X9438Y28242D01*
X9449Y28247D01*
X9488Y28264D01*
X9527Y28286D01*
X9622Y28330D01*
X9727Y28375D01*
X9832Y28414D01*
X9927Y28453D01*
X9971Y28469D01*
X10010Y28486D01*
X10038Y28497D01*
X10060Y28508D01*
X10077Y28514D01*
X10082D01*
X12913Y29574D01*
Y29102D01*
D02*
G37*
G36*
X21015Y26011D02*
X24400D01*
Y25500D01*
X20560D01*
Y27903D01*
X21015D01*
Y26011D01*
D02*
G37*
G36*
X15912Y28214D02*
X16023Y28136D01*
X16123Y28064D01*
X16206Y27992D01*
X16284Y27931D01*
X16339Y27875D01*
X16384Y27831D01*
X16411Y27803D01*
X16423Y27792D01*
X16456Y27748D01*
X16495Y27698D01*
X16556Y27598D01*
X16578Y27553D01*
X16600Y27520D01*
X16611Y27498D01*
X16617Y27487D01*
X16634Y27587D01*
X16650Y27681D01*
X16678Y27764D01*
X16700Y27848D01*
X16728Y27920D01*
X16761Y27986D01*
X16789Y28047D01*
X16817Y28103D01*
X16850Y28147D01*
X16878Y28192D01*
X16900Y28225D01*
X16922Y28253D01*
X16939Y28275D01*
X16955Y28292D01*
X16961Y28297D01*
X16966Y28303D01*
X17022Y28347D01*
X17077Y28392D01*
X17194Y28458D01*
X17311Y28503D01*
X17422Y28536D01*
X17516Y28558D01*
X17555Y28564D01*
X17594D01*
X17621Y28569D01*
X17644D01*
X17655D01*
X17660D01*
X17777Y28564D01*
X17882Y28547D01*
X17982Y28519D01*
X18065Y28491D01*
X18137Y28458D01*
X18193Y28436D01*
X18226Y28414D01*
X18232Y28408D01*
X18237D01*
X18326Y28342D01*
X18404Y28275D01*
X18471Y28203D01*
X18520Y28136D01*
X18559Y28075D01*
X18582Y28025D01*
X18598Y27992D01*
X18604Y27986D01*
Y27981D01*
X18620Y27931D01*
X18637Y27870D01*
X18665Y27748D01*
X18681Y27615D01*
X18698Y27492D01*
X18704Y27376D01*
Y27326D01*
X18709Y27281D01*
Y25500D01*
X14869D01*
Y26011D01*
X16572D01*
Y26665D01*
X16567Y26726D01*
Y26771D01*
X16561Y26810D01*
X16556Y26838D01*
Y26860D01*
X16550Y26871D01*
Y26876D01*
X16522Y26965D01*
X16506Y27004D01*
X16489Y27037D01*
X16473Y27071D01*
X16461Y27093D01*
X16456Y27104D01*
X16450Y27110D01*
X16417Y27154D01*
X16378Y27198D01*
X16295Y27281D01*
X16256Y27320D01*
X16223Y27348D01*
X16201Y27365D01*
X16195Y27370D01*
X16117Y27426D01*
X16034Y27487D01*
X15945Y27548D01*
X15862Y27609D01*
X15784Y27659D01*
X15723Y27698D01*
X15701Y27714D01*
X15684Y27725D01*
X15673Y27737D01*
X15668D01*
X14869Y28242D01*
Y28874D01*
X15912Y28214D01*
D02*
G37*
G36*
X12868Y26915D02*
X12907Y26826D01*
X12935Y26749D01*
X12957Y26677D01*
X12968Y26616D01*
X12974Y26566D01*
Y26527D01*
X12968Y26466D01*
X12957Y26410D01*
X12941Y26355D01*
X12924Y26310D01*
X12907Y26277D01*
X12890Y26244D01*
X12879Y26227D01*
X12874Y26221D01*
X12830Y26171D01*
X12774Y26122D01*
X12707Y26072D01*
X12646Y26027D01*
X12585Y25983D01*
X12535Y25955D01*
X12496Y25933D01*
X12491Y25927D01*
X12913D01*
Y25500D01*
X10127D01*
Y25972D01*
X11581D01*
X11692Y25977D01*
X11792Y25983D01*
X11886Y25994D01*
X11969Y26011D01*
X12036Y26027D01*
X12086Y26038D01*
X12119Y26044D01*
X12130Y26049D01*
X12191Y26072D01*
X12241Y26099D01*
X12286Y26127D01*
X12324Y26155D01*
X12352Y26183D01*
X12374Y26199D01*
X12386Y26216D01*
X12391Y26221D01*
X12424Y26266D01*
X12447Y26316D01*
X12463Y26366D01*
X12474Y26405D01*
X12480Y26443D01*
X12485Y26471D01*
Y26499D01*
X12480Y26560D01*
X12469Y26621D01*
X12452Y26682D01*
X12435Y26732D01*
X12419Y26776D01*
X12402Y26810D01*
X12391Y26832D01*
X12386Y26838D01*
X12818Y27010D01*
X12868Y26915D01*
D02*
G37*
G36*
X71274Y56005D02*
X71351Y55894D01*
X71441Y55783D01*
X71524Y55686D01*
X71607Y55603D01*
X71670Y55533D01*
X71697Y55513D01*
X71718Y55492D01*
X71725Y55485D01*
X71732Y55478D01*
X71878Y55360D01*
X72024Y55249D01*
X72162Y55152D01*
X72301Y55075D01*
X72419Y55006D01*
X72468Y54978D01*
X72509Y54957D01*
X72544Y54937D01*
X72572Y54930D01*
X72586Y54916D01*
X72593D01*
Y54347D01*
X72489Y54388D01*
X72385Y54437D01*
X72281Y54485D01*
X72183Y54534D01*
X72100Y54576D01*
X72031Y54610D01*
X71989Y54638D01*
X71982Y54645D01*
X71975D01*
X71850Y54721D01*
X71739Y54798D01*
X71642Y54867D01*
X71566Y54930D01*
X71496Y54978D01*
X71455Y55020D01*
X71420Y55048D01*
X71413Y55054D01*
Y51300D01*
X70823D01*
Y56123D01*
X71205D01*
X71274Y56005D01*
D02*
G37*
G36*
X74480Y52792D02*
Y52646D01*
X74494Y52521D01*
X74501Y52417D01*
X74515Y52334D01*
X74529Y52272D01*
X74536Y52223D01*
X74550Y52195D01*
Y52188D01*
X74578Y52119D01*
X74612Y52063D01*
X74654Y52015D01*
X74689Y51966D01*
X74730Y51938D01*
X74758Y51911D01*
X74779Y51897D01*
X74786Y51890D01*
X74855Y51855D01*
X74925Y51827D01*
X74994Y51814D01*
X75056Y51800D01*
X75119Y51793D01*
X75161Y51786D01*
X75202D01*
X75313Y51793D01*
X75417Y51820D01*
X75501Y51848D01*
X75577Y51890D01*
X75633Y51925D01*
X75674Y51959D01*
X75702Y51980D01*
X75709Y51987D01*
X75744Y52029D01*
X75771Y52077D01*
X75813Y52188D01*
X75855Y52313D01*
X75875Y52438D01*
X75896Y52556D01*
Y52605D01*
X75903Y52646D01*
X75910Y52688D01*
Y52716D01*
Y52730D01*
Y52737D01*
X76486Y52653D01*
Y52521D01*
X76479Y52403D01*
X76458Y52285D01*
X76445Y52181D01*
X76417Y52084D01*
X76389Y52001D01*
X76361Y51918D01*
X76333Y51848D01*
X76299Y51786D01*
X76271Y51730D01*
X76243Y51682D01*
X76215Y51647D01*
X76195Y51619D01*
X76181Y51591D01*
X76174Y51585D01*
X76167Y51578D01*
X76098Y51515D01*
X76028Y51460D01*
X75952Y51411D01*
X75868Y51369D01*
X75709Y51307D01*
X75556Y51265D01*
X75410Y51237D01*
X75355Y51231D01*
X75299Y51224D01*
X75258Y51217D01*
X75195D01*
X75043Y51224D01*
X74904Y51244D01*
X74779Y51272D01*
X74668Y51307D01*
X74578Y51335D01*
X74515Y51363D01*
X74474Y51383D01*
X74460Y51390D01*
X74349Y51460D01*
X74251Y51543D01*
X74175Y51626D01*
X74106Y51702D01*
X74057Y51779D01*
X74022Y51834D01*
X74002Y51876D01*
X73995Y51883D01*
Y51890D01*
X73946Y52029D01*
X73904Y52174D01*
X73877Y52334D01*
X73863Y52487D01*
X73849Y52619D01*
Y52674D01*
X73842Y52730D01*
Y52771D01*
Y52799D01*
Y52820D01*
Y52827D01*
Y56103D01*
X74480D01*
Y52792D01*
D02*
G37*
G36*
X67500Y89000D02*
X67287D01*
Y89709D01*
X67015D01*
X66989Y89707D01*
X66971D01*
X66955Y89705D01*
X66943Y89702D01*
X66934D01*
X66929Y89700D01*
X66927D01*
X66890Y89688D01*
X66874Y89681D01*
X66860Y89675D01*
X66846Y89668D01*
X66837Y89663D01*
X66832Y89661D01*
X66830Y89658D01*
X66812Y89644D01*
X66793Y89628D01*
X66759Y89594D01*
X66742Y89578D01*
X66731Y89564D01*
X66724Y89554D01*
X66721Y89552D01*
X66698Y89520D01*
X66673Y89485D01*
X66648Y89448D01*
X66622Y89413D01*
X66601Y89381D01*
X66585Y89356D01*
X66578Y89346D01*
X66574Y89340D01*
X66569Y89335D01*
Y89333D01*
X66359Y89000D01*
X66096D01*
X66370Y89434D01*
X66403Y89481D01*
X66433Y89522D01*
X66463Y89557D01*
X66488Y89589D01*
X66511Y89612D01*
X66530Y89631D01*
X66541Y89642D01*
X66546Y89647D01*
X66564Y89661D01*
X66585Y89677D01*
X66627Y89702D01*
X66645Y89711D01*
X66659Y89721D01*
X66668Y89725D01*
X66673Y89728D01*
X66631Y89735D01*
X66592Y89741D01*
X66558Y89753D01*
X66523Y89762D01*
X66493Y89774D01*
X66465Y89788D01*
X66440Y89799D01*
X66417Y89811D01*
X66398Y89825D01*
X66380Y89836D01*
X66366Y89846D01*
X66354Y89855D01*
X66345Y89862D01*
X66338Y89869D01*
X66336Y89871D01*
X66334Y89873D01*
X66315Y89896D01*
X66296Y89919D01*
X66269Y89968D01*
X66250Y90016D01*
X66236Y90063D01*
X66227Y90102D01*
X66225Y90118D01*
Y90134D01*
X66223Y90146D01*
Y90155D01*
Y90160D01*
Y90162D01*
X66225Y90210D01*
X66232Y90254D01*
X66243Y90296D01*
X66255Y90331D01*
X66269Y90361D01*
X66278Y90384D01*
X66287Y90398D01*
X66290Y90400D01*
Y90402D01*
X66317Y90439D01*
X66345Y90472D01*
X66375Y90499D01*
X66403Y90520D01*
X66428Y90536D01*
X66449Y90545D01*
X66463Y90552D01*
X66465Y90555D01*
X66467D01*
X66488Y90562D01*
X66514Y90569D01*
X66564Y90580D01*
X66620Y90587D01*
X66671Y90594D01*
X66719Y90596D01*
X66740D01*
X66759Y90598D01*
X67500D01*
Y89000D01*
D02*
G37*
G36*
X65888D02*
X64693D01*
Y89189D01*
X65675D01*
Y89732D01*
X64790D01*
Y89922D01*
X65675D01*
Y90409D01*
X64730D01*
Y90598D01*
X65888D01*
Y89000D01*
D02*
G37*
G36*
X62908D02*
X61713D01*
Y89189D01*
X62695D01*
Y89732D01*
X61810D01*
Y89922D01*
X62695D01*
Y90409D01*
X61750D01*
Y90598D01*
X62908D01*
Y89000D01*
D02*
G37*
G36*
X61540Y90409D02*
X61014D01*
Y89000D01*
X60801D01*
Y90409D01*
X60274D01*
Y90598D01*
X61540D01*
Y90409D01*
D02*
G37*
G36*
X63910Y90624D02*
X63963Y90617D01*
X64014Y90608D01*
X64058Y90598D01*
X64093Y90589D01*
X64109Y90585D01*
X64121Y90580D01*
X64130Y90575D01*
X64137Y90573D01*
X64141Y90571D01*
X64144D01*
X64190Y90548D01*
X64231Y90522D01*
X64266Y90495D01*
X64294Y90469D01*
X64315Y90446D01*
X64331Y90428D01*
X64342Y90414D01*
X64345Y90411D01*
Y90409D01*
X64368Y90370D01*
X64384Y90331D01*
X64395Y90291D01*
X64402Y90257D01*
X64407Y90227D01*
X64411Y90203D01*
Y90194D01*
Y90187D01*
Y90185D01*
Y90183D01*
X64409Y90143D01*
X64402Y90106D01*
X64393Y90072D01*
X64384Y90042D01*
X64375Y90019D01*
X64365Y90000D01*
X64358Y89989D01*
X64356Y89984D01*
X64333Y89952D01*
X64305Y89922D01*
X64277Y89896D01*
X64250Y89876D01*
X64227Y89857D01*
X64206Y89846D01*
X64192Y89836D01*
X64190Y89834D01*
X64188D01*
X64169Y89825D01*
X64148Y89815D01*
X64102Y89799D01*
X64049Y89783D01*
X63998Y89767D01*
X63952Y89753D01*
X63931Y89748D01*
X63913Y89744D01*
X63899Y89739D01*
X63887Y89737D01*
X63880Y89735D01*
X63878D01*
X63839Y89725D01*
X63802Y89716D01*
X63769Y89707D01*
X63742Y89700D01*
X63714Y89693D01*
X63691Y89686D01*
X63670Y89681D01*
X63654Y89675D01*
X63638Y89670D01*
X63626Y89668D01*
X63608Y89661D01*
X63596Y89658D01*
X63594Y89656D01*
X63559Y89642D01*
X63529Y89626D01*
X63504Y89610D01*
X63485Y89596D01*
X63469Y89582D01*
X63460Y89573D01*
X63453Y89566D01*
X63451Y89564D01*
X63434Y89543D01*
X63423Y89520D01*
X63416Y89497D01*
X63409Y89478D01*
X63407Y89460D01*
X63404Y89446D01*
Y89434D01*
Y89432D01*
X63407Y89404D01*
X63411Y89379D01*
X63418Y89356D01*
X63428Y89337D01*
X63437Y89319D01*
X63444Y89307D01*
X63448Y89298D01*
X63451Y89296D01*
X63469Y89273D01*
X63492Y89254D01*
X63515Y89238D01*
X63536Y89222D01*
X63557Y89213D01*
X63573Y89203D01*
X63585Y89199D01*
X63589Y89196D01*
X63624Y89185D01*
X63661Y89176D01*
X63698Y89171D01*
X63730Y89166D01*
X63758Y89164D01*
X63781Y89162D01*
X63802D01*
X63853Y89164D01*
X63899Y89169D01*
X63940Y89176D01*
X63977Y89185D01*
X64007Y89194D01*
X64030Y89201D01*
X64037Y89203D01*
X64044Y89206D01*
X64047Y89208D01*
X64049D01*
X64086Y89226D01*
X64121Y89247D01*
X64146Y89268D01*
X64169Y89289D01*
X64188Y89305D01*
X64199Y89321D01*
X64206Y89330D01*
X64208Y89333D01*
X64224Y89363D01*
X64241Y89395D01*
X64250Y89430D01*
X64259Y89460D01*
X64266Y89490D01*
X64271Y89511D01*
Y89520D01*
X64273Y89527D01*
Y89529D01*
Y89531D01*
X64472Y89513D01*
X64467Y89455D01*
X64458Y89400D01*
X64444Y89351D01*
X64428Y89307D01*
X64411Y89273D01*
X64405Y89259D01*
X64400Y89247D01*
X64393Y89238D01*
X64391Y89231D01*
X64386Y89226D01*
Y89224D01*
X64351Y89180D01*
X64315Y89141D01*
X64275Y89109D01*
X64238Y89081D01*
X64206Y89060D01*
X64178Y89046D01*
X64169Y89042D01*
X64162Y89037D01*
X64157Y89035D01*
X64155D01*
X64097Y89014D01*
X64037Y88998D01*
X63977Y88989D01*
X63920Y88979D01*
X63892Y88977D01*
X63869Y88975D01*
X63848D01*
X63829Y88972D01*
X63792D01*
X63730Y88975D01*
X63672Y88981D01*
X63619Y88993D01*
X63575Y89005D01*
X63538Y89014D01*
X63522Y89021D01*
X63508Y89025D01*
X63499Y89030D01*
X63492Y89032D01*
X63487Y89035D01*
X63485D01*
X63437Y89060D01*
X63395Y89088D01*
X63358Y89118D01*
X63328Y89145D01*
X63305Y89169D01*
X63289Y89189D01*
X63277Y89203D01*
X63275Y89206D01*
Y89208D01*
X63250Y89252D01*
X63231Y89293D01*
X63220Y89333D01*
X63210Y89370D01*
X63206Y89402D01*
X63201Y89427D01*
Y89437D01*
Y89443D01*
Y89446D01*
Y89448D01*
X63203Y89494D01*
X63210Y89538D01*
X63222Y89578D01*
X63233Y89610D01*
X63247Y89638D01*
X63257Y89658D01*
X63266Y89670D01*
X63268Y89675D01*
X63296Y89709D01*
X63328Y89741D01*
X63363Y89769D01*
X63397Y89795D01*
X63428Y89813D01*
X63453Y89827D01*
X63462Y89832D01*
X63469Y89836D01*
X63474Y89838D01*
X63476D01*
X63494Y89848D01*
X63518Y89855D01*
X63543Y89864D01*
X63571Y89873D01*
X63628Y89889D01*
X63688Y89906D01*
X63716Y89912D01*
X63742Y89919D01*
X63767Y89926D01*
X63788Y89931D01*
X63804Y89936D01*
X63818Y89938D01*
X63827Y89940D01*
X63829D01*
X63876Y89952D01*
X63917Y89961D01*
X63954Y89973D01*
X63986Y89982D01*
X64016Y89993D01*
X64042Y90003D01*
X64065Y90012D01*
X64086Y90019D01*
X64102Y90028D01*
X64116Y90035D01*
X64125Y90039D01*
X64134Y90046D01*
X64146Y90053D01*
X64148Y90056D01*
X64169Y90079D01*
X64183Y90102D01*
X64194Y90125D01*
X64201Y90148D01*
X64206Y90166D01*
X64208Y90183D01*
Y90192D01*
Y90197D01*
X64204Y90233D01*
X64194Y90266D01*
X64180Y90294D01*
X64164Y90319D01*
X64151Y90338D01*
X64137Y90354D01*
X64127Y90363D01*
X64123Y90365D01*
X64104Y90377D01*
X64086Y90388D01*
X64042Y90407D01*
X63996Y90418D01*
X63950Y90428D01*
X63908Y90432D01*
X63889Y90434D01*
X63876Y90437D01*
X63843D01*
X63779Y90434D01*
X63721Y90425D01*
X63675Y90411D01*
X63635Y90398D01*
X63605Y90384D01*
X63582Y90370D01*
X63571Y90361D01*
X63566Y90358D01*
X63534Y90326D01*
X63508Y90291D01*
X63487Y90254D01*
X63474Y90217D01*
X63464Y90183D01*
X63458Y90157D01*
X63455Y90146D01*
X63453Y90139D01*
Y90134D01*
Y90132D01*
X63250Y90148D01*
X63254Y90199D01*
X63266Y90245D01*
X63277Y90289D01*
X63293Y90326D01*
X63307Y90356D01*
X63319Y90379D01*
X63323Y90386D01*
X63328Y90393D01*
X63330Y90395D01*
Y90398D01*
X63361Y90437D01*
X63393Y90472D01*
X63428Y90501D01*
X63462Y90525D01*
X63492Y90545D01*
X63515Y90557D01*
X63525Y90562D01*
X63531Y90566D01*
X63536Y90569D01*
X63538D01*
X63589Y90587D01*
X63645Y90601D01*
X63695Y90612D01*
X63744Y90619D01*
X63788Y90624D01*
X63804D01*
X63820Y90626D01*
X63850D01*
X63910Y90624D01*
D02*
G37*
G36*
X72710Y94000D02*
X72506D01*
Y95254D01*
X71670Y94000D01*
X71451D01*
Y95599D01*
X71654D01*
Y94342D01*
X72493Y95599D01*
X72710D01*
Y94000D01*
D02*
G37*
G36*
X73786Y95622D02*
X73867Y95610D01*
X73904Y95603D01*
X73939Y95594D01*
X73971Y95587D01*
X74001Y95578D01*
X74029Y95569D01*
X74052Y95559D01*
X74073Y95550D01*
X74091Y95543D01*
X74105Y95536D01*
X74114Y95531D01*
X74121Y95529D01*
X74124Y95527D01*
X74156Y95506D01*
X74188Y95485D01*
X74244Y95437D01*
X74292Y95388D01*
X74331Y95337D01*
X74364Y95294D01*
X74375Y95275D01*
X74384Y95257D01*
X74394Y95243D01*
X74398Y95234D01*
X74401Y95227D01*
X74403Y95224D01*
X74435Y95148D01*
X74458Y95072D01*
X74477Y94998D01*
X74481Y94963D01*
X74489Y94931D01*
X74491Y94901D01*
X74495Y94876D01*
X74498Y94850D01*
Y94829D01*
X74500Y94813D01*
Y94802D01*
Y94792D01*
Y94790D01*
X74495Y94705D01*
X74484Y94624D01*
X74477Y94587D01*
X74470Y94552D01*
X74461Y94517D01*
X74452Y94487D01*
X74442Y94460D01*
X74433Y94437D01*
X74426Y94414D01*
X74419Y94397D01*
X74412Y94381D01*
X74408Y94372D01*
X74403Y94365D01*
Y94363D01*
X74361Y94296D01*
X74315Y94238D01*
X74267Y94187D01*
X74221Y94146D01*
X74177Y94113D01*
X74160Y94102D01*
X74144Y94090D01*
X74130Y94083D01*
X74121Y94076D01*
X74114Y94074D01*
X74112Y94072D01*
X74075Y94053D01*
X74038Y94039D01*
X73964Y94014D01*
X73892Y93998D01*
X73826Y93984D01*
X73795Y93981D01*
X73768Y93977D01*
X73742Y93975D01*
X73721D01*
X73705Y93972D01*
X73682D01*
X73618Y93975D01*
X73555Y93981D01*
X73497Y93993D01*
X73447Y94005D01*
X73426Y94009D01*
X73405Y94014D01*
X73387Y94021D01*
X73370Y94025D01*
X73359Y94030D01*
X73350Y94032D01*
X73345Y94035D01*
X73343D01*
X73280Y94060D01*
X73223Y94090D01*
X73167Y94122D01*
X73119Y94152D01*
X73098Y94166D01*
X73077Y94180D01*
X73061Y94192D01*
X73047Y94201D01*
X73036Y94210D01*
X73026Y94217D01*
X73022Y94219D01*
X73019Y94222D01*
Y94815D01*
X73698D01*
Y94626D01*
X73227D01*
Y94326D01*
X73255Y94303D01*
X73287Y94282D01*
X73322Y94263D01*
X73354Y94247D01*
X73382Y94233D01*
X73407Y94222D01*
X73417Y94217D01*
X73421Y94215D01*
X73426Y94213D01*
X73428D01*
X73477Y94196D01*
X73525Y94182D01*
X73569Y94173D01*
X73611Y94169D01*
X73645Y94164D01*
X73659D01*
X73673Y94162D01*
X73696D01*
X73754Y94164D01*
X73809Y94173D01*
X73860Y94185D01*
X73906Y94196D01*
X73943Y94210D01*
X73959Y94215D01*
X73971Y94219D01*
X73983Y94224D01*
X73989Y94229D01*
X73994Y94231D01*
X73996D01*
X74045Y94261D01*
X74089Y94293D01*
X74126Y94328D01*
X74156Y94363D01*
X74181Y94395D01*
X74197Y94420D01*
X74204Y94430D01*
X74207Y94437D01*
X74211Y94441D01*
Y94444D01*
X74234Y94501D01*
X74253Y94561D01*
X74264Y94621D01*
X74274Y94679D01*
X74276Y94705D01*
X74278Y94728D01*
X74281Y94751D01*
Y94769D01*
X74283Y94783D01*
Y94795D01*
Y94802D01*
Y94804D01*
X74281Y94869D01*
X74274Y94926D01*
X74264Y94982D01*
X74253Y95030D01*
X74248Y95051D01*
X74241Y95069D01*
X74237Y95086D01*
X74232Y95100D01*
X74227Y95111D01*
X74225Y95118D01*
X74223Y95123D01*
Y95125D01*
X74207Y95157D01*
X74190Y95187D01*
X74174Y95215D01*
X74158Y95238D01*
X74144Y95257D01*
X74133Y95273D01*
X74124Y95282D01*
X74121Y95284D01*
X74096Y95310D01*
X74068Y95333D01*
X74038Y95351D01*
X74010Y95370D01*
X73987Y95381D01*
X73969Y95393D01*
X73955Y95398D01*
X73950Y95400D01*
X73909Y95416D01*
X73867Y95428D01*
X73823Y95434D01*
X73784Y95441D01*
X73749Y95444D01*
X73735D01*
X73724Y95446D01*
X73698D01*
X73655Y95444D01*
X73613Y95439D01*
X73576Y95432D01*
X73544Y95425D01*
X73516Y95416D01*
X73495Y95409D01*
X73484Y95404D01*
X73479Y95402D01*
X73444Y95386D01*
X73414Y95367D01*
X73387Y95349D01*
X73366Y95331D01*
X73350Y95314D01*
X73336Y95303D01*
X73329Y95294D01*
X73326Y95291D01*
X73306Y95264D01*
X73290Y95231D01*
X73273Y95201D01*
X73260Y95169D01*
X73250Y95141D01*
X73243Y95120D01*
X73241Y95111D01*
X73239Y95104D01*
X73236Y95102D01*
Y95100D01*
X73045Y95150D01*
X73061Y95208D01*
X73082Y95259D01*
X73102Y95305D01*
X73121Y95342D01*
X73139Y95372D01*
X73153Y95393D01*
X73163Y95407D01*
X73167Y95411D01*
X73199Y95448D01*
X73234Y95478D01*
X73271Y95506D01*
X73306Y95529D01*
X73338Y95545D01*
X73364Y95559D01*
X73373Y95564D01*
X73380Y95566D01*
X73384Y95569D01*
X73387D01*
X73440Y95587D01*
X73495Y95601D01*
X73546Y95612D01*
X73594Y95619D01*
X73638Y95624D01*
X73657D01*
X73671Y95626D01*
X73745D01*
X73786Y95622D01*
D02*
G37*
G36*
X71095Y94000D02*
X70520D01*
X70467Y94002D01*
X70418Y94005D01*
X70374Y94009D01*
X70337Y94014D01*
X70305Y94019D01*
X70282Y94021D01*
X70275Y94023D01*
X70268Y94025D01*
X70263D01*
X70222Y94037D01*
X70185Y94051D01*
X70153Y94062D01*
X70125Y94076D01*
X70102Y94088D01*
X70086Y94097D01*
X70076Y94104D01*
X70072Y94106D01*
X70042Y94127D01*
X70016Y94152D01*
X69991Y94176D01*
X69970Y94199D01*
X69952Y94219D01*
X69938Y94236D01*
X69928Y94247D01*
X69926Y94252D01*
X69903Y94289D01*
X69880Y94328D01*
X69862Y94365D01*
X69848Y94402D01*
X69834Y94434D01*
X69825Y94460D01*
X69822Y94469D01*
X69820Y94476D01*
X69818Y94481D01*
Y94483D01*
X69804Y94538D01*
X69792Y94594D01*
X69785Y94647D01*
X69778Y94698D01*
X69776Y94741D01*
Y94760D01*
X69774Y94776D01*
Y94788D01*
Y94799D01*
Y94804D01*
Y94806D01*
X69776Y94885D01*
X69783Y94956D01*
X69794Y95021D01*
X69799Y95051D01*
X69806Y95077D01*
X69813Y95102D01*
X69818Y95123D01*
X69822Y95141D01*
X69829Y95157D01*
X69832Y95171D01*
X69836Y95180D01*
X69838Y95185D01*
Y95187D01*
X69864Y95247D01*
X69894Y95301D01*
X69926Y95347D01*
X69956Y95386D01*
X69984Y95418D01*
X70007Y95441D01*
X70016Y95448D01*
X70023Y95455D01*
X70025Y95458D01*
X70028Y95460D01*
X70065Y95490D01*
X70104Y95513D01*
X70143Y95534D01*
X70180Y95550D01*
X70213Y95562D01*
X70238Y95569D01*
X70247Y95573D01*
X70254D01*
X70259Y95575D01*
X70261D01*
X70300Y95582D01*
X70347Y95589D01*
X70393Y95594D01*
X70439Y95596D01*
X70481Y95599D01*
X71095D01*
Y94000D01*
D02*
G37*
G36*
X57506Y83500D02*
X57328D01*
X56829Y84780D01*
X57001D01*
X57349Y83850D01*
X57364Y83811D01*
X57376Y83774D01*
X57388Y83739D01*
X57397Y83707D01*
X57406Y83679D01*
X57412Y83659D01*
X57414Y83652D01*
X57415Y83646D01*
X57417Y83642D01*
Y83641D01*
X57439Y83715D01*
X57450Y83750D01*
X57462Y83781D01*
X57471Y83809D01*
X57475Y83820D01*
X57476Y83831D01*
X57480Y83838D01*
X57482Y83844D01*
X57484Y83848D01*
Y83850D01*
X57817Y84780D01*
X58002D01*
X57506Y83500D01*
D02*
G37*
G36*
X56683D02*
X56194D01*
X56150Y83502D01*
X56111Y83504D01*
X56076Y83507D01*
X56046Y83511D01*
X56022Y83515D01*
X56004Y83517D01*
X55993Y83520D01*
X55989D01*
X55958Y83530D01*
X55932Y83539D01*
X55908Y83550D01*
X55887Y83561D01*
X55871Y83568D01*
X55858Y83576D01*
X55850Y83581D01*
X55848Y83583D01*
X55828Y83600D01*
X55810Y83620D01*
X55795Y83641D01*
X55780Y83659D01*
X55769Y83678D01*
X55761Y83691D01*
X55756Y83700D01*
X55754Y83704D01*
X55741Y83733D01*
X55732Y83763D01*
X55725Y83790D01*
X55721Y83816D01*
X55717Y83838D01*
X55715Y83857D01*
Y83868D01*
Y83870D01*
Y83872D01*
X55717Y83912D01*
X55725Y83950D01*
X55736Y83981D01*
X55747Y84011D01*
X55758Y84033D01*
X55769Y84049D01*
X55776Y84061D01*
X55778Y84064D01*
X55804Y84094D01*
X55832Y84118D01*
X55863Y84138D01*
X55891Y84155D01*
X55917Y84168D01*
X55939Y84175D01*
X55946Y84179D01*
X55952Y84181D01*
X55956Y84183D01*
X55958D01*
X55926Y84201D01*
X55898Y84220D01*
X55876Y84240D01*
X55858Y84259D01*
X55843Y84273D01*
X55832Y84288D01*
X55826Y84295D01*
X55824Y84299D01*
X55810Y84327D01*
X55799Y84353D01*
X55789Y84379D01*
X55784Y84403D01*
X55780Y84423D01*
X55778Y84440D01*
Y84449D01*
Y84453D01*
X55780Y84484D01*
X55786Y84516D01*
X55795Y84543D01*
X55804Y84569D01*
X55813Y84592D01*
X55823Y84606D01*
X55828Y84617D01*
X55830Y84621D01*
X55850Y84649D01*
X55872Y84675D01*
X55897Y84695D01*
X55919Y84712D01*
X55937Y84725D01*
X55954Y84734D01*
X55965Y84740D01*
X55967Y84741D01*
X55969D01*
X56004Y84754D01*
X56043Y84763D01*
X56082Y84771D01*
X56119Y84775D01*
X56152Y84778D01*
X56167D01*
X56180Y84780D01*
X56683D01*
Y83500D01*
D02*
G37*
G36*
X55623D02*
X55443D01*
X55304Y83889D01*
X54768D01*
X54618Y83500D01*
X54426D01*
X54949Y84780D01*
X55134D01*
X55623Y83500D01*
D02*
G37*
G36*
X54385Y84628D02*
X53963D01*
Y83500D01*
X53793D01*
Y84628D01*
X53371D01*
Y84780D01*
X54385D01*
Y84628D01*
D02*
G37*
G36*
X83500Y76500D02*
X83330D01*
Y77780D01*
X83500D01*
Y76500D01*
D02*
G37*
G36*
X83028D02*
X82858D01*
Y77068D01*
X82640D01*
X82619Y77066D01*
X82605D01*
X82592Y77064D01*
X82582Y77062D01*
X82575D01*
X82571Y77061D01*
X82569D01*
X82540Y77051D01*
X82527Y77046D01*
X82516Y77040D01*
X82505Y77035D01*
X82497Y77031D01*
X82494Y77029D01*
X82492Y77027D01*
X82477Y77016D01*
X82462Y77003D01*
X82434Y76976D01*
X82421Y76963D01*
X82412Y76951D01*
X82407Y76944D01*
X82405Y76942D01*
X82386Y76916D01*
X82366Y76889D01*
X82346Y76859D01*
X82325Y76831D01*
X82309Y76805D01*
X82296Y76785D01*
X82290Y76777D01*
X82286Y76772D01*
X82283Y76768D01*
Y76766D01*
X82114Y76500D01*
X81903D01*
X82124Y76848D01*
X82149Y76885D01*
X82174Y76918D01*
X82198Y76946D01*
X82218Y76972D01*
X82236Y76990D01*
X82251Y77005D01*
X82261Y77014D01*
X82264Y77018D01*
X82279Y77029D01*
X82296Y77042D01*
X82329Y77062D01*
X82344Y77070D01*
X82355Y77077D01*
X82362Y77081D01*
X82366Y77083D01*
X82333Y77088D01*
X82301Y77094D01*
X82274Y77103D01*
X82246Y77110D01*
X82222Y77120D01*
X82200Y77131D01*
X82179Y77140D01*
X82161Y77149D01*
X82146Y77161D01*
X82131Y77170D01*
X82120Y77177D01*
X82111Y77184D01*
X82103Y77190D01*
X82098Y77196D01*
X82096Y77197D01*
X82094Y77199D01*
X82079Y77218D01*
X82064Y77236D01*
X82042Y77275D01*
X82027Y77314D01*
X82016Y77351D01*
X82009Y77382D01*
X82007Y77395D01*
Y77408D01*
X82005Y77418D01*
Y77425D01*
Y77429D01*
Y77431D01*
X82007Y77469D01*
X82013Y77504D01*
X82022Y77538D01*
X82031Y77566D01*
X82042Y77590D01*
X82050Y77608D01*
X82057Y77619D01*
X82059Y77621D01*
Y77623D01*
X82081Y77653D01*
X82103Y77678D01*
X82127Y77701D01*
X82149Y77717D01*
X82170Y77730D01*
X82187Y77738D01*
X82198Y77743D01*
X82200Y77745D01*
X82201D01*
X82218Y77751D01*
X82238Y77756D01*
X82279Y77765D01*
X82323Y77771D01*
X82364Y77776D01*
X82403Y77778D01*
X82420D01*
X82434Y77780D01*
X83028D01*
Y76500D01*
D02*
G37*
G36*
X81252Y77799D02*
X81312Y77789D01*
X81365Y77776D01*
X81389Y77769D01*
X81413Y77762D01*
X81434Y77754D01*
X81452Y77747D01*
X81467Y77740D01*
X81480Y77734D01*
X81491Y77728D01*
X81498Y77725D01*
X81504Y77723D01*
X81506Y77721D01*
X81556Y77688D01*
X81598Y77649D01*
X81637Y77610D01*
X81667Y77573D01*
X81693Y77538D01*
X81702Y77523D01*
X81709Y77510D01*
X81717Y77499D01*
X81720Y77492D01*
X81722Y77486D01*
X81724Y77484D01*
X81750Y77425D01*
X81768Y77364D01*
X81781Y77307D01*
X81791Y77253D01*
X81794Y77229D01*
X81796Y77207D01*
X81798Y77186D01*
Y77170D01*
X81800Y77157D01*
Y77148D01*
Y77140D01*
Y77138D01*
X81796Y77070D01*
X81789Y77005D01*
X81781Y76974D01*
X81776Y76946D01*
X81768Y76920D01*
X81761Y76896D01*
X81755Y76874D01*
X81748Y76853D01*
X81741Y76837D01*
X81735Y76822D01*
X81731Y76811D01*
X81728Y76803D01*
X81724Y76798D01*
Y76796D01*
X81693Y76742D01*
X81657Y76696D01*
X81622Y76655D01*
X81587Y76622D01*
X81556Y76596D01*
X81543Y76585D01*
X81530Y76576D01*
X81520Y76570D01*
X81513Y76565D01*
X81509Y76563D01*
X81508Y76561D01*
X81480Y76546D01*
X81454Y76533D01*
X81398Y76513D01*
X81345Y76498D01*
X81297Y76489D01*
X81274Y76485D01*
X81254Y76481D01*
X81236Y76480D01*
X81221D01*
X81208Y76478D01*
X81191D01*
X81160Y76480D01*
X81128Y76481D01*
X81069Y76491D01*
X81015Y76504D01*
X80991Y76511D01*
X80969Y76518D01*
X80949Y76526D01*
X80930Y76531D01*
X80915Y76539D01*
X80901Y76544D01*
X80892Y76550D01*
X80882Y76554D01*
X80879Y76557D01*
X80877D01*
X80825Y76520D01*
X80775Y76487D01*
X80729Y76461D01*
X80688Y76439D01*
X80669Y76430D01*
X80653Y76422D01*
X80638Y76415D01*
X80625Y76409D01*
X80614Y76406D01*
X80607Y76402D01*
X80603Y76400D01*
X80601D01*
X80551Y76517D01*
X80588Y76533D01*
X80627Y76550D01*
X80664Y76570D01*
X80697Y76591D01*
X80725Y76607D01*
X80738Y76615D01*
X80747Y76622D01*
X80756Y76628D01*
X80762Y76631D01*
X80766Y76635D01*
X80768D01*
X80734Y76672D01*
X80705Y76709D01*
X80679Y76746D01*
X80658Y76781D01*
X80644Y76811D01*
X80638Y76824D01*
X80633Y76835D01*
X80629Y76842D01*
X80625Y76850D01*
X80623Y76853D01*
Y76855D01*
X80607Y76903D01*
X80595Y76953D01*
X80586Y77001D01*
X80581Y77046D01*
X80579Y77064D01*
X80577Y77083D01*
Y77099D01*
X80575Y77114D01*
Y77125D01*
Y77133D01*
Y77138D01*
Y77140D01*
X80579Y77209D01*
X80586Y77273D01*
X80592Y77303D01*
X80599Y77331D01*
X80607Y77357D01*
X80612Y77381D01*
X80620Y77403D01*
X80627Y77423D01*
X80633Y77440D01*
X80640Y77455D01*
X80644Y77466D01*
X80647Y77473D01*
X80651Y77479D01*
Y77481D01*
X80681Y77534D01*
X80716Y77582D01*
X80753Y77623D01*
X80786Y77656D01*
X80818Y77682D01*
X80832Y77693D01*
X80843Y77702D01*
X80854Y77708D01*
X80862Y77714D01*
X80866Y77715D01*
X80867Y77717D01*
X80895Y77732D01*
X80923Y77745D01*
X80977Y77767D01*
X81032Y77782D01*
X81080Y77791D01*
X81102Y77795D01*
X81125Y77799D01*
X81141Y77801D01*
X81158D01*
X81171Y77802D01*
X81221D01*
X81252Y77799D01*
D02*
G37*
G36*
X75671Y76500D02*
X75501D01*
Y76944D01*
X75292Y77146D01*
X74836Y76500D01*
X74613D01*
X75173Y77260D01*
X74637Y77780D01*
X74868D01*
X75501Y77144D01*
Y77780D01*
X75671D01*
Y76500D01*
D02*
G37*
G36*
X77458Y77799D02*
X77517Y77789D01*
X77569Y77778D01*
X77593Y77771D01*
X77615Y77763D01*
X77636Y77756D01*
X77654Y77749D01*
X77669Y77743D01*
X77684Y77738D01*
X77693Y77732D01*
X77700Y77728D01*
X77706Y77727D01*
X77708Y77725D01*
X77758Y77693D01*
X77800Y77656D01*
X77837Y77619D01*
X77869Y77582D01*
X77893Y77549D01*
X77902Y77534D01*
X77909Y77521D01*
X77917Y77512D01*
X77921Y77504D01*
X77922Y77499D01*
X77924Y77497D01*
X77950Y77440D01*
X77969Y77381D01*
X77982Y77321D01*
X77991Y77268D01*
X77994Y77244D01*
X77996Y77220D01*
X77998Y77201D01*
Y77183D01*
X78000Y77170D01*
Y77159D01*
Y77151D01*
Y77149D01*
X77996Y77083D01*
X77989Y77018D01*
X77980Y76961D01*
X77972Y76933D01*
X77967Y76909D01*
X77961Y76887D01*
X77954Y76866D01*
X77948Y76848D01*
X77944Y76833D01*
X77939Y76822D01*
X77937Y76813D01*
X77933Y76807D01*
Y76805D01*
X77906Y76750D01*
X77874Y76700D01*
X77841Y76657D01*
X77824Y76641D01*
X77810Y76624D01*
X77795Y76609D01*
X77780Y76596D01*
X77767Y76585D01*
X77756Y76578D01*
X77748Y76570D01*
X77741Y76565D01*
X77737Y76563D01*
X77736Y76561D01*
X77710Y76546D01*
X77684Y76533D01*
X77628Y76513D01*
X77573Y76498D01*
X77519Y76489D01*
X77493Y76485D01*
X77471Y76481D01*
X77451Y76480D01*
X77434D01*
X77419Y76478D01*
X77399D01*
X77362Y76480D01*
X77327Y76483D01*
X77293Y76487D01*
X77262Y76494D01*
X77232Y76504D01*
X77205Y76513D01*
X77179Y76522D01*
X77154Y76533D01*
X77134Y76543D01*
X77114Y76552D01*
X77099Y76561D01*
X77084Y76570D01*
X77075Y76578D01*
X77066Y76581D01*
X77062Y76585D01*
X77060Y76587D01*
X77034Y76609D01*
X77012Y76631D01*
X76992Y76657D01*
X76971Y76683D01*
X76938Y76735D01*
X76912Y76787D01*
X76901Y76811D01*
X76892Y76833D01*
X76885Y76853D01*
X76879Y76870D01*
X76873Y76885D01*
X76870Y76896D01*
X76868Y76903D01*
Y76905D01*
X77038Y76948D01*
X77045Y76918D01*
X77055Y76890D01*
X77064Y76864D01*
X77073Y76840D01*
X77084Y76818D01*
X77095Y76800D01*
X77108Y76781D01*
X77119Y76765D01*
X77129Y76750D01*
X77140Y76739D01*
X77149Y76727D01*
X77156Y76718D01*
X77164Y76713D01*
X77169Y76707D01*
X77171Y76705D01*
X77173Y76704D01*
X77192Y76689D01*
X77212Y76678D01*
X77253Y76657D01*
X77291Y76642D01*
X77330Y76633D01*
X77364Y76626D01*
X77377Y76624D01*
X77390D01*
X77401Y76622D01*
X77413D01*
X77456Y76624D01*
X77497Y76631D01*
X77534Y76641D01*
X77567Y76652D01*
X77593Y76663D01*
X77604Y76668D01*
X77613Y76672D01*
X77621Y76676D01*
X77626Y76679D01*
X77630Y76681D01*
X77632D01*
X77667Y76707D01*
X77697Y76735D01*
X77723Y76766D01*
X77743Y76796D01*
X77759Y76822D01*
X77771Y76844D01*
X77774Y76853D01*
X77778Y76859D01*
X77780Y76863D01*
Y76864D01*
X77795Y76912D01*
X77806Y76961D01*
X77815Y77009D01*
X77821Y77053D01*
X77822Y77074D01*
X77824Y77092D01*
Y77109D01*
X77826Y77122D01*
Y77133D01*
Y77142D01*
Y77148D01*
Y77149D01*
X77824Y77197D01*
X77821Y77242D01*
X77813Y77283D01*
X77806Y77320D01*
X77800Y77351D01*
X77797Y77364D01*
X77793Y77375D01*
X77791Y77384D01*
X77789Y77390D01*
X77787Y77394D01*
Y77395D01*
X77769Y77438D01*
X77748Y77477D01*
X77726Y77508D01*
X77702Y77536D01*
X77682Y77558D01*
X77665Y77573D01*
X77652Y77582D01*
X77650Y77586D01*
X77649D01*
X77610Y77610D01*
X77567Y77628D01*
X77526Y77641D01*
X77487Y77649D01*
X77452Y77654D01*
X77438Y77656D01*
X77425D01*
X77415Y77658D01*
X77401D01*
X77354Y77656D01*
X77312Y77649D01*
X77277Y77638D01*
X77245Y77627D01*
X77221Y77614D01*
X77203Y77604D01*
X77192Y77597D01*
X77188Y77593D01*
X77158Y77566D01*
X77131Y77534D01*
X77108Y77501D01*
X77090Y77468D01*
X77075Y77438D01*
X77069Y77423D01*
X77066Y77412D01*
X77062Y77403D01*
X77058Y77395D01*
X77056Y77392D01*
Y77390D01*
X76890Y77429D01*
X76901Y77462D01*
X76912Y77492D01*
X76927Y77519D01*
X76940Y77547D01*
X76955Y77571D01*
X76971Y77593D01*
X76986Y77615D01*
X77001Y77634D01*
X77016Y77649D01*
X77029Y77664D01*
X77042Y77677D01*
X77051Y77686D01*
X77060Y77695D01*
X77068Y77701D01*
X77071Y77702D01*
X77073Y77704D01*
X77099Y77721D01*
X77125Y77738D01*
X77151Y77751D01*
X77179Y77762D01*
X77234Y77778D01*
X77284Y77789D01*
X77308Y77795D01*
X77328Y77797D01*
X77349Y77799D01*
X77365Y77801D01*
X77378Y77802D01*
X77397D01*
X77458Y77799D01*
D02*
G37*
G36*
X76666Y76500D02*
X75865D01*
Y76652D01*
X76496D01*
Y77780D01*
X76666D01*
Y76500D01*
D02*
G37*
G36*
X89500D02*
X89039D01*
X88997Y76502D01*
X88958Y76504D01*
X88923Y76507D01*
X88893Y76511D01*
X88867Y76515D01*
X88849Y76517D01*
X88843Y76518D01*
X88838Y76520D01*
X88834D01*
X88801Y76530D01*
X88771Y76541D01*
X88745Y76550D01*
X88723Y76561D01*
X88705Y76570D01*
X88692Y76578D01*
X88684Y76583D01*
X88680Y76585D01*
X88656Y76602D01*
X88636Y76622D01*
X88616Y76641D01*
X88599Y76659D01*
X88584Y76676D01*
X88573Y76689D01*
X88566Y76698D01*
X88564Y76702D01*
X88545Y76731D01*
X88527Y76763D01*
X88512Y76792D01*
X88501Y76822D01*
X88490Y76848D01*
X88482Y76868D01*
X88481Y76876D01*
X88479Y76881D01*
X88477Y76885D01*
Y76887D01*
X88466Y76931D01*
X88457Y76976D01*
X88451Y77018D01*
X88446Y77059D01*
X88444Y77094D01*
Y77109D01*
X88442Y77122D01*
Y77131D01*
Y77140D01*
Y77144D01*
Y77146D01*
X88444Y77209D01*
X88449Y77266D01*
X88459Y77318D01*
X88462Y77342D01*
X88468Y77362D01*
X88473Y77382D01*
X88477Y77399D01*
X88481Y77414D01*
X88486Y77427D01*
X88488Y77438D01*
X88492Y77445D01*
X88494Y77449D01*
Y77451D01*
X88514Y77499D01*
X88538Y77542D01*
X88564Y77579D01*
X88588Y77610D01*
X88610Y77636D01*
X88629Y77654D01*
X88636Y77660D01*
X88642Y77666D01*
X88643Y77667D01*
X88645Y77669D01*
X88675Y77693D01*
X88706Y77712D01*
X88738Y77728D01*
X88767Y77741D01*
X88793Y77751D01*
X88814Y77756D01*
X88821Y77760D01*
X88827D01*
X88830Y77762D01*
X88832D01*
X88864Y77767D01*
X88901Y77773D01*
X88938Y77776D01*
X88975Y77778D01*
X89008Y77780D01*
X89500D01*
Y76500D01*
D02*
G37*
G36*
X88349D02*
X88170D01*
X88031Y76889D01*
X87495D01*
X87345Y76500D01*
X87152D01*
X87676Y77780D01*
X87861D01*
X88349Y76500D01*
D02*
G37*
G36*
X87112Y77628D02*
X86690D01*
Y76500D01*
X86520D01*
Y77628D01*
X86098D01*
Y77780D01*
X87112D01*
Y77628D01*
D02*
G37*
G36*
X86063Y76500D02*
X85883D01*
X85745Y76889D01*
X85208D01*
X85058Y76500D01*
X84866D01*
X85389Y77780D01*
X85574D01*
X86063Y76500D01*
D02*
G37*
%LPC*%
G36*
X11570Y81155D02*
X11542D01*
X11525D01*
X11520D01*
X11425D01*
X11331Y81144D01*
X11248Y81133D01*
X11170Y81122D01*
X11098Y81105D01*
X11031Y81083D01*
X10976Y81061D01*
X10920Y81044D01*
X10876Y81022D01*
X10831Y81000D01*
X10798Y80983D01*
X10770Y80961D01*
X10748Y80950D01*
X10732Y80939D01*
X10726Y80928D01*
X10721D01*
X10676Y80883D01*
X10632Y80839D01*
X10565Y80750D01*
X10521Y80661D01*
X10487Y80578D01*
X10471Y80506D01*
X10460Y80445D01*
X10454Y80423D01*
Y80395D01*
X10460Y80323D01*
X10471Y80262D01*
X10487Y80195D01*
X10510Y80140D01*
X10571Y80034D01*
X10637Y79951D01*
X10698Y79879D01*
X10759Y79829D01*
X10781Y79812D01*
X10798Y79801D01*
X10809Y79790D01*
X10815D01*
X10859Y79768D01*
X10909Y79746D01*
X11020Y79712D01*
X11142Y79690D01*
X11259Y79673D01*
X11364Y79662D01*
X11414D01*
X11453Y79657D01*
X11486D01*
X11514D01*
X11531D01*
X11536D01*
X11631D01*
X11714Y79668D01*
X11797Y79679D01*
X11875Y79690D01*
X11942Y79707D01*
X12008Y79729D01*
X12064Y79746D01*
X12119Y79768D01*
X12163Y79790D01*
X12202Y79807D01*
X12236Y79829D01*
X12263Y79846D01*
X12286Y79857D01*
X12302Y79868D01*
X12308Y79879D01*
X12313D01*
X12363Y79923D01*
X12402Y79968D01*
X12441Y80012D01*
X12469Y80057D01*
X12519Y80145D01*
X12552Y80229D01*
X12569Y80301D01*
X12580Y80362D01*
X12585Y80384D01*
Y80467D01*
X12574Y80523D01*
X12546Y80628D01*
X12502Y80717D01*
X12458Y80795D01*
X12408Y80856D01*
X12363Y80900D01*
X12336Y80928D01*
X12330Y80939D01*
X12324D01*
X12274Y80978D01*
X12213Y81011D01*
X12091Y81067D01*
X11953Y81105D01*
X11825Y81128D01*
X11708Y81144D01*
X11653Y81150D01*
X11609D01*
X11570Y81155D01*
D02*
G37*
G36*
X11592Y75494D02*
X11564D01*
X11547D01*
X11542D01*
X11442D01*
X11348Y75483D01*
X11259Y75472D01*
X11176Y75461D01*
X11103Y75444D01*
X11037Y75422D01*
X10970Y75400D01*
X10920Y75383D01*
X10870Y75361D01*
X10831Y75339D01*
X10793Y75322D01*
X10765Y75300D01*
X10743Y75289D01*
X10726Y75278D01*
X10721Y75267D01*
X10715D01*
X10671Y75222D01*
X10632Y75178D01*
X10565Y75089D01*
X10521Y75000D01*
X10487Y74917D01*
X10471Y74840D01*
X10460Y74784D01*
X10454Y74762D01*
Y74729D01*
X10460Y74673D01*
X10465Y74617D01*
X10493Y74518D01*
X10537Y74429D01*
X10582Y74351D01*
X10626Y74290D01*
X10671Y74246D01*
X10698Y74218D01*
X10709Y74207D01*
X10759Y74168D01*
X10815Y74135D01*
X10943Y74079D01*
X11070Y74046D01*
X11203Y74018D01*
X11320Y74001D01*
X11370Y73996D01*
X11414D01*
X11453Y73990D01*
X11481D01*
X11497D01*
X11503D01*
X11603D01*
X11692Y74001D01*
X11775Y74013D01*
X11858Y74024D01*
X11930Y74046D01*
X11997Y74063D01*
X12058Y74085D01*
X12113Y74107D01*
X12158Y74124D01*
X12202Y74146D01*
X12236Y74168D01*
X12269Y74185D01*
X12291Y74196D01*
X12308Y74207D01*
X12313Y74218D01*
X12319D01*
X12369Y74262D01*
X12413Y74307D01*
X12452Y74351D01*
X12485Y74401D01*
X12535Y74490D01*
X12569Y74573D01*
X12585Y74645D01*
X12596Y74701D01*
X12602Y74723D01*
Y74751D01*
X12596Y74806D01*
X12591Y74862D01*
X12563Y74962D01*
X12519Y75050D01*
X12469Y75128D01*
X12419Y75189D01*
X12380Y75234D01*
X12347Y75261D01*
X12341Y75272D01*
X12336D01*
X12286Y75311D01*
X12224Y75345D01*
X12097Y75400D01*
X11969Y75439D01*
X11842Y75467D01*
X11725Y75483D01*
X11675Y75489D01*
X11631D01*
X11592Y75494D01*
D02*
G37*
G36*
X11531Y72386D02*
X11503D01*
X11481D01*
X11475D01*
X11381D01*
X11292Y72375D01*
X11214Y72364D01*
X11137Y72353D01*
X11070Y72336D01*
X11004Y72314D01*
X10948Y72298D01*
X10898Y72275D01*
X10854Y72253D01*
X10809Y72237D01*
X10781Y72214D01*
X10754Y72198D01*
X10732Y72187D01*
X10715Y72176D01*
X10709Y72164D01*
X10704D01*
X10659Y72126D01*
X10621Y72081D01*
X10560Y71992D01*
X10515Y71904D01*
X10487Y71820D01*
X10465Y71748D01*
X10460Y71687D01*
X10454Y71665D01*
Y71637D01*
X10460Y71582D01*
X10465Y71526D01*
X10493Y71426D01*
X10537Y71332D01*
X10587Y71254D01*
X10632Y71193D01*
X10676Y71143D01*
X10704Y71115D01*
X10715Y71110D01*
Y71104D01*
X10770Y71065D01*
X10826Y71032D01*
X10954Y70977D01*
X11087Y70938D01*
X11214Y70910D01*
X11331Y70893D01*
X11381Y70888D01*
X11425D01*
X11464Y70882D01*
X11492D01*
X11509D01*
X11514D01*
X11614D01*
X11708Y70893D01*
X11797Y70904D01*
X11875Y70916D01*
X11947Y70932D01*
X12014Y70949D01*
X12075Y70966D01*
X12130Y70988D01*
X12175Y71010D01*
X12213Y71027D01*
X12247Y71043D01*
X12274Y71060D01*
X12297Y71077D01*
X12313Y71082D01*
X12319Y71093D01*
X12324D01*
X12369Y71132D01*
X12413Y71176D01*
X12474Y71265D01*
X12524Y71354D01*
X12552Y71437D01*
X12574Y71509D01*
X12580Y71570D01*
X12585Y71593D01*
Y71621D01*
X12580Y71681D01*
X12574Y71737D01*
X12541Y71842D01*
X12502Y71937D01*
X12452Y72014D01*
X12402Y72076D01*
X12358Y72126D01*
X12324Y72153D01*
X12319Y72164D01*
X12313D01*
X12258Y72203D01*
X12202Y72237D01*
X12069Y72292D01*
X11930Y72331D01*
X11797Y72359D01*
X11731Y72370D01*
X11670Y72375D01*
X11614Y72381D01*
X11570D01*
X11531Y72386D01*
D02*
G37*
G36*
X11586Y66853D02*
X11558D01*
X11542D01*
X11536D01*
X11436D01*
X11342Y66842D01*
X11259Y66831D01*
X11176Y66814D01*
X11103Y66798D01*
X11037Y66775D01*
X10976Y66759D01*
X10920Y66737D01*
X10876Y66714D01*
X10831Y66692D01*
X10798Y66670D01*
X10770Y66653D01*
X10748Y66637D01*
X10732Y66625D01*
X10726Y66620D01*
X10721Y66614D01*
X10676Y66570D01*
X10632Y66520D01*
X10565Y66426D01*
X10521Y66326D01*
X10487Y66237D01*
X10471Y66154D01*
X10460Y66093D01*
X10454Y66065D01*
Y66032D01*
X10460Y65965D01*
X10465Y65904D01*
X10493Y65787D01*
X10537Y65688D01*
X10587Y65604D01*
X10632Y65538D01*
X10676Y65488D01*
X10704Y65454D01*
X10715Y65449D01*
Y65443D01*
X10770Y65404D01*
X10826Y65366D01*
X10954Y65310D01*
X11087Y65266D01*
X11220Y65238D01*
X11337Y65221D01*
X11387Y65216D01*
X11431D01*
X11470Y65210D01*
X11497D01*
X11514D01*
X11520D01*
X11614Y65216D01*
X11708Y65221D01*
X11792Y65232D01*
X11869Y65249D01*
X11942Y65266D01*
X12008Y65282D01*
X12064Y65305D01*
X12119Y65327D01*
X12163Y65349D01*
X12208Y65371D01*
X12241Y65388D01*
X12269Y65404D01*
X12291Y65421D01*
X12308Y65432D01*
X12313Y65443D01*
X12319D01*
X12363Y65488D01*
X12408Y65538D01*
X12474Y65632D01*
X12519Y65732D01*
X12552Y65826D01*
X12574Y65909D01*
X12580Y65971D01*
X12585Y65998D01*
Y66032D01*
X12580Y66098D01*
X12574Y66159D01*
X12546Y66270D01*
X12502Y66370D01*
X12452Y66453D01*
X12402Y66520D01*
X12363Y66570D01*
X12330Y66603D01*
X12324Y66614D01*
X12319D01*
X12269Y66659D01*
X12208Y66692D01*
X12086Y66753D01*
X11953Y66798D01*
X11830Y66825D01*
X11714Y66842D01*
X11664Y66847D01*
X11620D01*
X11586Y66853D01*
D02*
G37*
G36*
X11531Y56563D02*
X11503D01*
X11481D01*
X11475D01*
X11381D01*
X11292Y56552D01*
X11214Y56541D01*
X11137Y56530D01*
X11070Y56513D01*
X11004Y56491D01*
X10948Y56475D01*
X10898Y56452D01*
X10854Y56430D01*
X10809Y56414D01*
X10781Y56391D01*
X10754Y56375D01*
X10732Y56363D01*
X10715Y56352D01*
X10709Y56341D01*
X10704D01*
X10659Y56302D01*
X10621Y56258D01*
X10560Y56169D01*
X10515Y56081D01*
X10487Y55997D01*
X10465Y55925D01*
X10460Y55864D01*
X10454Y55842D01*
Y55814D01*
X10460Y55759D01*
X10465Y55703D01*
X10493Y55603D01*
X10537Y55509D01*
X10587Y55431D01*
X10632Y55370D01*
X10676Y55320D01*
X10704Y55292D01*
X10715Y55287D01*
Y55281D01*
X10770Y55242D01*
X10826Y55209D01*
X10954Y55154D01*
X11087Y55115D01*
X11214Y55087D01*
X11331Y55070D01*
X11381Y55065D01*
X11425D01*
X11464Y55059D01*
X11492D01*
X11509D01*
X11514D01*
X11614D01*
X11708Y55070D01*
X11797Y55081D01*
X11875Y55093D01*
X11947Y55109D01*
X12014Y55126D01*
X12075Y55142D01*
X12130Y55165D01*
X12175Y55187D01*
X12213Y55204D01*
X12247Y55220D01*
X12274Y55237D01*
X12297Y55253D01*
X12313Y55259D01*
X12319Y55270D01*
X12324D01*
X12369Y55309D01*
X12413Y55353D01*
X12474Y55442D01*
X12524Y55531D01*
X12552Y55614D01*
X12574Y55686D01*
X12580Y55747D01*
X12585Y55770D01*
Y55797D01*
X12580Y55858D01*
X12574Y55914D01*
X12541Y56019D01*
X12502Y56114D01*
X12452Y56191D01*
X12402Y56252D01*
X12358Y56302D01*
X12324Y56330D01*
X12319Y56341D01*
X12313D01*
X12258Y56380D01*
X12202Y56414D01*
X12069Y56469D01*
X11930Y56508D01*
X11797Y56536D01*
X11731Y56547D01*
X11670Y56552D01*
X11614Y56558D01*
X11570D01*
X11531Y56563D01*
D02*
G37*
G36*
X11525Y50564D02*
X11348Y50558D01*
X11237Y50553D01*
X11142Y50547D01*
X11065Y50536D01*
X10998Y50519D01*
X10948Y50503D01*
X10909Y50492D01*
X10887Y50486D01*
X10881Y50481D01*
X10809Y50436D01*
X10743Y50392D01*
X10687Y50336D01*
X10643Y50286D01*
X10604Y50242D01*
X10576Y50203D01*
X10560Y50181D01*
X10554Y50170D01*
X10515Y50086D01*
X10487Y50003D01*
X10465Y49926D01*
X10454Y49848D01*
X10443Y49787D01*
X10437Y49731D01*
Y49687D01*
X10443Y49587D01*
X10454Y49504D01*
X10476Y49432D01*
X10498Y49371D01*
X10521Y49326D01*
X10543Y49293D01*
X10554Y49271D01*
X10560Y49265D01*
X10610Y49221D01*
X10665Y49187D01*
X10715Y49160D01*
X10765Y49143D01*
X10809Y49132D01*
X10843Y49126D01*
X10870D01*
X10876D01*
X10920Y49132D01*
X10965Y49137D01*
X10998Y49148D01*
X11031Y49160D01*
X11059Y49171D01*
X11081Y49176D01*
X11092Y49187D01*
X11098D01*
X11164Y49243D01*
X11209Y49310D01*
X11225Y49332D01*
X11237Y49354D01*
X11248Y49371D01*
Y49376D01*
X11270Y49432D01*
X11287Y49493D01*
X11303Y49559D01*
X11314Y49626D01*
X11325Y49687D01*
X11337Y49742D01*
X11342Y49776D01*
Y49787D01*
X11359Y49881D01*
X11370Y49970D01*
X11387Y50048D01*
X11403Y50125D01*
X11420Y50197D01*
X11436Y50258D01*
X11447Y50320D01*
X11464Y50370D01*
X11475Y50414D01*
X11486Y50453D01*
X11497Y50486D01*
X11509Y50514D01*
X11514Y50536D01*
X11520Y50553D01*
X11525Y50558D01*
Y50564D01*
D02*
G37*
G36*
X16850Y44331D02*
X16800D01*
X16772D01*
X16767D01*
X16761D01*
X16589D01*
X16434Y44320D01*
X16295Y44309D01*
X16162Y44298D01*
X16051Y44281D01*
X15945Y44259D01*
X15856Y44237D01*
X15773Y44220D01*
X15707Y44198D01*
X15651Y44176D01*
X15601Y44159D01*
X15562Y44137D01*
X15535Y44126D01*
X15518Y44115D01*
X15507Y44104D01*
X15501D01*
X15446Y44059D01*
X15401Y44015D01*
X15357Y43970D01*
X15324Y43926D01*
X15268Y43832D01*
X15229Y43748D01*
X15207Y43671D01*
X15196Y43615D01*
X15191Y43593D01*
Y43560D01*
X15196Y43499D01*
X15202Y43443D01*
X15240Y43338D01*
X15290Y43243D01*
X15346Y43160D01*
X15401Y43099D01*
X15451Y43049D01*
X15490Y43021D01*
X15496Y43010D01*
X15501D01*
X15568Y42971D01*
X15646Y42938D01*
X15734Y42905D01*
X15829Y42883D01*
X15929Y42860D01*
X16034Y42844D01*
X16251Y42816D01*
X16350Y42805D01*
X16445Y42799D01*
X16534Y42794D01*
X16606D01*
X16672Y42788D01*
X16722D01*
X16750D01*
X16761D01*
X16933Y42794D01*
X17089Y42799D01*
X17233Y42810D01*
X17366Y42827D01*
X17483Y42844D01*
X17588Y42866D01*
X17682Y42888D01*
X17766Y42910D01*
X17838Y42933D01*
X17899Y42949D01*
X17949Y42971D01*
X17993Y42988D01*
X18021Y43005D01*
X18043Y43016D01*
X18054Y43027D01*
X18060D01*
X18110Y43066D01*
X18154Y43105D01*
X18188Y43149D01*
X18221Y43193D01*
X18271Y43282D01*
X18304Y43365D01*
X18321Y43438D01*
X18332Y43499D01*
X18337Y43521D01*
Y43554D01*
X18332Y43615D01*
X18326Y43676D01*
X18310Y43732D01*
X18287Y43782D01*
X18237Y43876D01*
X18182Y43959D01*
X18121Y44020D01*
X18071Y44070D01*
X18049Y44087D01*
X18032Y44098D01*
X18026Y44109D01*
X18021D01*
X17954Y44148D01*
X17877Y44181D01*
X17788Y44215D01*
X17694Y44237D01*
X17594Y44259D01*
X17488Y44276D01*
X17277Y44303D01*
X17172Y44315D01*
X17077Y44320D01*
X16989Y44326D01*
X16917D01*
X16850Y44331D01*
D02*
G37*
G36*
X11525Y31760D02*
X11348Y31755D01*
X11237Y31749D01*
X11142Y31744D01*
X11065Y31733D01*
X10998Y31716D01*
X10948Y31699D01*
X10909Y31688D01*
X10887Y31683D01*
X10881Y31677D01*
X10809Y31633D01*
X10743Y31588D01*
X10687Y31533D01*
X10643Y31483D01*
X10604Y31438D01*
X10576Y31400D01*
X10560Y31377D01*
X10554Y31366D01*
X10515Y31283D01*
X10487Y31200D01*
X10465Y31122D01*
X10454Y31044D01*
X10443Y30983D01*
X10437Y30928D01*
Y30883D01*
X10443Y30784D01*
X10454Y30700D01*
X10476Y30628D01*
X10498Y30567D01*
X10521Y30523D01*
X10543Y30489D01*
X10554Y30467D01*
X10560Y30462D01*
X10610Y30417D01*
X10665Y30384D01*
X10715Y30356D01*
X10765Y30340D01*
X10809Y30329D01*
X10843Y30323D01*
X10870D01*
X10876D01*
X10920Y30329D01*
X10965Y30334D01*
X10998Y30345D01*
X11031Y30356D01*
X11059Y30367D01*
X11081Y30373D01*
X11092Y30384D01*
X11098D01*
X11164Y30439D01*
X11209Y30506D01*
X11225Y30528D01*
X11237Y30551D01*
X11248Y30567D01*
Y30573D01*
X11270Y30628D01*
X11287Y30689D01*
X11303Y30756D01*
X11314Y30822D01*
X11325Y30883D01*
X11337Y30939D01*
X11342Y30972D01*
Y30983D01*
X11359Y31078D01*
X11370Y31166D01*
X11387Y31244D01*
X11403Y31322D01*
X11420Y31394D01*
X11436Y31455D01*
X11447Y31516D01*
X11464Y31566D01*
X11475Y31611D01*
X11486Y31649D01*
X11497Y31683D01*
X11509Y31710D01*
X11514Y31733D01*
X11520Y31749D01*
X11525Y31755D01*
Y31760D01*
D02*
G37*
G36*
X22563Y31161D02*
X22535D01*
X22513D01*
X22508D01*
X22352Y31155D01*
X22208Y31144D01*
X22080Y31128D01*
X21969Y31111D01*
X21925Y31100D01*
X21886Y31089D01*
X21847Y31078D01*
X21819Y31072D01*
X21797Y31067D01*
X21780Y31061D01*
X21769Y31056D01*
X21764D01*
X21658Y31017D01*
X21564Y30972D01*
X21481Y30922D01*
X21409Y30878D01*
X21353Y30839D01*
X21314Y30806D01*
X21292Y30784D01*
X21281Y30778D01*
X21237Y30722D01*
X21198Y30667D01*
X21165Y30612D01*
X21131Y30556D01*
X21109Y30506D01*
X21092Y30467D01*
X21087Y30439D01*
X21081Y30428D01*
X21059Y30345D01*
X21042Y30245D01*
X21031Y30145D01*
X21026Y30051D01*
X21020Y29968D01*
X21015Y29929D01*
Y29019D01*
X23945D01*
Y29907D01*
X23939Y29979D01*
Y30051D01*
X23934Y30118D01*
X23917Y30229D01*
X23906Y30317D01*
X23889Y30389D01*
X23873Y30439D01*
X23867Y30467D01*
X23862Y30478D01*
X23812Y30578D01*
X23751Y30673D01*
X23679Y30756D01*
X23607Y30828D01*
X23540Y30883D01*
X23484Y30928D01*
X23462Y30939D01*
X23446Y30950D01*
X23434Y30961D01*
X23429D01*
X23368Y30994D01*
X23296Y31028D01*
X23151Y31078D01*
X22996Y31111D01*
X22846Y31139D01*
X22780Y31144D01*
X22713Y31150D01*
X22657Y31155D01*
X22607D01*
X22563Y31161D01*
D02*
G37*
G36*
X17666Y28047D02*
X17660D01*
X17655D01*
X17588Y28042D01*
X17522Y28031D01*
X17466Y28014D01*
X17416Y27997D01*
X17372Y27975D01*
X17338Y27959D01*
X17316Y27948D01*
X17311Y27942D01*
X17255Y27903D01*
X17205Y27853D01*
X17166Y27803D01*
X17133Y27753D01*
X17111Y27709D01*
X17094Y27676D01*
X17083Y27653D01*
X17077Y27642D01*
X17055Y27565D01*
X17039Y27476D01*
X17028Y27387D01*
X17022Y27298D01*
X17016Y27220D01*
X17011Y27154D01*
Y26011D01*
X18282D01*
Y27220D01*
X18276Y27370D01*
X18254Y27498D01*
X18226Y27609D01*
X18193Y27692D01*
X18160Y27764D01*
X18132Y27809D01*
X18110Y27836D01*
X18104Y27848D01*
X18032Y27914D01*
X17960Y27964D01*
X17882Y27997D01*
X17816Y28025D01*
X17749Y28036D01*
X17699Y28042D01*
X17666Y28047D01*
D02*
G37*
G36*
X67287Y90421D02*
X66784D01*
X66721Y90418D01*
X66668Y90409D01*
X66622Y90398D01*
X66588Y90384D01*
X66558Y90370D01*
X66539Y90358D01*
X66527Y90349D01*
X66523Y90347D01*
X66495Y90317D01*
X66474Y90287D01*
X66461Y90254D01*
X66449Y90227D01*
X66444Y90199D01*
X66442Y90178D01*
X66440Y90164D01*
Y90162D01*
Y90160D01*
X66442Y90132D01*
X66447Y90104D01*
X66454Y90081D01*
X66461Y90060D01*
X66470Y90042D01*
X66477Y90028D01*
X66481Y90019D01*
X66484Y90016D01*
X66500Y89993D01*
X66521Y89973D01*
X66541Y89956D01*
X66562Y89943D01*
X66581Y89933D01*
X66594Y89926D01*
X66604Y89922D01*
X66608Y89919D01*
X66641Y89910D01*
X66678Y89903D01*
X66715Y89899D01*
X66752Y89896D01*
X66784Y89894D01*
X66812Y89892D01*
X67287D01*
Y90421D01*
D02*
G37*
G36*
X70882Y95409D02*
X70513D01*
X70483Y95407D01*
X70453D01*
X70425Y95404D01*
X70379Y95398D01*
X70342Y95393D01*
X70312Y95386D01*
X70291Y95379D01*
X70280Y95377D01*
X70275Y95375D01*
X70233Y95354D01*
X70194Y95328D01*
X70160Y95298D01*
X70130Y95268D01*
X70106Y95240D01*
X70088Y95217D01*
X70083Y95208D01*
X70079Y95201D01*
X70074Y95197D01*
Y95194D01*
X70060Y95169D01*
X70046Y95139D01*
X70025Y95079D01*
X70012Y95014D01*
X70000Y94952D01*
X69998Y94924D01*
X69995Y94896D01*
X69993Y94873D01*
Y94852D01*
X69991Y94834D01*
Y94822D01*
Y94813D01*
Y94811D01*
X69993Y94746D01*
X69998Y94686D01*
X70005Y94633D01*
X70012Y94587D01*
X70016Y94568D01*
X70021Y94552D01*
X70025Y94536D01*
X70028Y94524D01*
X70030Y94515D01*
X70033Y94508D01*
X70035Y94504D01*
Y94501D01*
X70051Y94457D01*
X70069Y94418D01*
X70090Y94384D01*
X70109Y94353D01*
X70125Y94330D01*
X70139Y94314D01*
X70148Y94305D01*
X70150Y94300D01*
X70173Y94282D01*
X70196Y94266D01*
X70220Y94252D01*
X70243Y94238D01*
X70263Y94229D01*
X70280Y94222D01*
X70291Y94219D01*
X70296Y94217D01*
X70330Y94208D01*
X70372Y94201D01*
X70414Y94196D01*
X70453Y94194D01*
X70487Y94192D01*
X70504Y94189D01*
X70882D01*
Y95409D01*
D02*
G37*
G36*
X56513Y84628D02*
X56209D01*
X56169Y84625D01*
X56137Y84623D01*
X56109Y84619D01*
X56089Y84615D01*
X56076Y84614D01*
X56067Y84610D01*
X56065D01*
X56045Y84603D01*
X56026Y84592D01*
X56011Y84580D01*
X55998Y84569D01*
X55989Y84560D01*
X55982Y84551D01*
X55978Y84545D01*
X55976Y84543D01*
X55965Y84525D01*
X55958Y84506D01*
X55952Y84488D01*
X55948Y84469D01*
X55946Y84455D01*
X55945Y84443D01*
Y84436D01*
Y84432D01*
X55946Y84408D01*
X55950Y84386D01*
X55956Y84368D01*
X55961Y84353D01*
X55967Y84340D01*
X55972Y84329D01*
X55976Y84323D01*
X55978Y84321D01*
X55991Y84307D01*
X56008Y84292D01*
X56024Y84281D01*
X56039Y84273D01*
X56054Y84266D01*
X56065Y84260D01*
X56072Y84259D01*
X56076Y84257D01*
X56096Y84253D01*
X56122Y84249D01*
X56148Y84247D01*
X56174Y84246D01*
X56198Y84244D01*
X56513D01*
Y84628D01*
D02*
G37*
G36*
Y84092D02*
X56176D01*
X56137Y84088D01*
X56106Y84085D01*
X56080Y84081D01*
X56059Y84077D01*
X56043Y84074D01*
X56035Y84072D01*
X56032Y84070D01*
X56008Y84061D01*
X55987Y84049D01*
X55969Y84036D01*
X55954Y84024D01*
X55943Y84013D01*
X55935Y84003D01*
X55930Y83996D01*
X55928Y83994D01*
X55915Y83974D01*
X55906Y83953D01*
X55898Y83933D01*
X55895Y83914D01*
X55891Y83898D01*
X55889Y83883D01*
Y83876D01*
Y83872D01*
X55891Y83850D01*
X55893Y83827D01*
X55897Y83809D01*
X55902Y83794D01*
X55908Y83781D01*
X55911Y83770D01*
X55913Y83764D01*
X55915Y83763D01*
X55926Y83746D01*
X55935Y83731D01*
X55948Y83720D01*
X55958Y83709D01*
X55967Y83702D01*
X55974Y83696D01*
X55980Y83692D01*
X55982Y83691D01*
X56013Y83676D01*
X56045Y83665D01*
X56058Y83661D01*
X56069Y83659D01*
X56076Y83657D01*
X56078D01*
X56093Y83655D01*
X56109Y83653D01*
X56148Y83652D01*
X56513D01*
Y84092D01*
D02*
G37*
G36*
X55046Y84647D02*
X55033Y84604D01*
X55018Y84560D01*
X55003Y84516D01*
X54988Y84473D01*
X54981Y84455D01*
X54975Y84436D01*
X54970Y84419D01*
X54964Y84407D01*
X54961Y84395D01*
X54957Y84386D01*
X54955Y84381D01*
Y84379D01*
X54822Y84027D01*
X55255D01*
X55116Y84401D01*
X55099Y84447D01*
X55086Y84492D01*
X55073Y84532D01*
X55064Y84569D01*
X55057Y84601D01*
X55053Y84614D01*
X55051Y84627D01*
X55047Y84634D01*
Y84641D01*
X55046Y84645D01*
Y84647D01*
D02*
G37*
G36*
X82858Y77638D02*
X82455D01*
X82405Y77636D01*
X82362Y77628D01*
X82325Y77619D01*
X82297Y77608D01*
X82274Y77597D01*
X82259Y77588D01*
X82249Y77580D01*
X82246Y77579D01*
X82223Y77555D01*
X82207Y77530D01*
X82196Y77504D01*
X82187Y77482D01*
X82183Y77460D01*
X82181Y77443D01*
X82179Y77432D01*
Y77431D01*
Y77429D01*
X82181Y77407D01*
X82185Y77384D01*
X82190Y77366D01*
X82196Y77349D01*
X82203Y77334D01*
X82209Y77323D01*
X82212Y77316D01*
X82214Y77314D01*
X82227Y77296D01*
X82244Y77279D01*
X82261Y77266D01*
X82277Y77255D01*
X82292Y77247D01*
X82303Y77242D01*
X82310Y77238D01*
X82314Y77236D01*
X82340Y77229D01*
X82370Y77223D01*
X82399Y77220D01*
X82429Y77218D01*
X82455Y77216D01*
X82477Y77214D01*
X82858D01*
Y77638D01*
D02*
G37*
G36*
X81206Y77656D02*
X81187D01*
X81141Y77654D01*
X81097Y77647D01*
X81058Y77636D01*
X81025Y77625D01*
X80997Y77612D01*
X80986Y77606D01*
X80977Y77603D01*
X80967Y77597D01*
X80962Y77595D01*
X80960Y77592D01*
X80958D01*
X80923Y77566D01*
X80892Y77536D01*
X80864Y77506D01*
X80841Y77477D01*
X80825Y77451D01*
X80812Y77429D01*
X80808Y77421D01*
X80805Y77416D01*
X80803Y77412D01*
Y77410D01*
X80784Y77366D01*
X80771Y77320D01*
X80762Y77273D01*
X80756Y77231D01*
X80753Y77212D01*
X80751Y77194D01*
Y77179D01*
X80749Y77164D01*
Y77153D01*
Y77146D01*
Y77140D01*
Y77138D01*
X80751Y77088D01*
X80755Y77042D01*
X80762Y76999D01*
X80773Y76959D01*
X80784Y76924D01*
X80797Y76890D01*
X80810Y76859D01*
X80823Y76831D01*
X80838Y76807D01*
X80851Y76787D01*
X80864Y76770D01*
X80875Y76755D01*
X80884Y76744D01*
X80892Y76735D01*
X80897Y76731D01*
X80899Y76729D01*
X80938Y76759D01*
X80977Y76783D01*
X81017Y76803D01*
X81056Y76822D01*
X81089Y76835D01*
X81104Y76840D01*
X81117Y76844D01*
X81126Y76848D01*
X81134Y76850D01*
X81139Y76851D01*
X81141D01*
X81184Y76729D01*
X81151Y76720D01*
X81119Y76709D01*
X81091Y76696D01*
X81065Y76685D01*
X81045Y76674D01*
X81028Y76665D01*
X81019Y76657D01*
X81015Y76655D01*
X81045Y76644D01*
X81077Y76637D01*
X81104Y76630D01*
X81132Y76626D01*
X81154Y76624D01*
X81171Y76622D01*
X81187D01*
X81223Y76624D01*
X81256Y76628D01*
X81287Y76635D01*
X81319Y76642D01*
X81347Y76653D01*
X81372Y76665D01*
X81397Y76676D01*
X81417Y76689D01*
X81437Y76702D01*
X81454Y76713D01*
X81469Y76724D01*
X81482Y76735D01*
X81491Y76742D01*
X81498Y76750D01*
X81502Y76753D01*
X81504Y76755D01*
X81526Y76781D01*
X81545Y76811D01*
X81561Y76840D01*
X81574Y76872D01*
X81587Y76903D01*
X81596Y76935D01*
X81611Y76998D01*
X81615Y77025D01*
X81619Y77053D01*
X81622Y77077D01*
X81624Y77098D01*
X81626Y77114D01*
Y77127D01*
Y77135D01*
Y77138D01*
X81624Y77184D01*
X81620Y77229D01*
X81615Y77270D01*
X81606Y77307D01*
X81596Y77342D01*
X81587Y77373D01*
X81576Y77403D01*
X81563Y77429D01*
X81552Y77451D01*
X81541Y77471D01*
X81532Y77488D01*
X81520Y77501D01*
X81513Y77512D01*
X81508Y77519D01*
X81504Y77523D01*
X81502Y77525D01*
X81478Y77549D01*
X81452Y77567D01*
X81426Y77586D01*
X81400Y77601D01*
X81372Y77614D01*
X81347Y77625D01*
X81323Y77632D01*
X81297Y77640D01*
X81274Y77645D01*
X81254Y77649D01*
X81236Y77653D01*
X81219Y77654D01*
X81206Y77656D01*
D02*
G37*
G36*
X89330Y77628D02*
X89034D01*
X89010Y77627D01*
X88986D01*
X88964Y77625D01*
X88927Y77619D01*
X88897Y77615D01*
X88873Y77610D01*
X88856Y77604D01*
X88847Y77603D01*
X88843Y77601D01*
X88810Y77584D01*
X88779Y77564D01*
X88751Y77540D01*
X88727Y77516D01*
X88708Y77493D01*
X88693Y77475D01*
X88690Y77468D01*
X88686Y77462D01*
X88682Y77458D01*
Y77456D01*
X88671Y77436D01*
X88660Y77412D01*
X88643Y77364D01*
X88632Y77312D01*
X88623Y77262D01*
X88621Y77240D01*
X88619Y77218D01*
X88618Y77199D01*
Y77183D01*
X88616Y77168D01*
Y77159D01*
Y77151D01*
Y77149D01*
X88618Y77098D01*
X88621Y77049D01*
X88627Y77007D01*
X88632Y76970D01*
X88636Y76955D01*
X88640Y76942D01*
X88643Y76929D01*
X88645Y76920D01*
X88647Y76912D01*
X88649Y76907D01*
X88651Y76903D01*
Y76901D01*
X88664Y76866D01*
X88679Y76835D01*
X88695Y76807D01*
X88710Y76783D01*
X88723Y76765D01*
X88734Y76752D01*
X88741Y76744D01*
X88743Y76740D01*
X88762Y76726D01*
X88780Y76713D01*
X88799Y76702D01*
X88817Y76691D01*
X88834Y76683D01*
X88847Y76678D01*
X88856Y76676D01*
X88860Y76674D01*
X88888Y76666D01*
X88921Y76661D01*
X88954Y76657D01*
X88986Y76655D01*
X89013Y76653D01*
X89026Y76652D01*
X89330D01*
Y77628D01*
D02*
G37*
G36*
X87772Y77647D02*
X87759Y77604D01*
X87744Y77560D01*
X87730Y77516D01*
X87715Y77473D01*
X87707Y77455D01*
X87702Y77436D01*
X87696Y77419D01*
X87691Y77407D01*
X87687Y77395D01*
X87683Y77386D01*
X87681Y77381D01*
Y77379D01*
X87548Y77027D01*
X87981D01*
X87842Y77401D01*
X87826Y77447D01*
X87813Y77492D01*
X87800Y77532D01*
X87791Y77569D01*
X87783Y77601D01*
X87779Y77614D01*
X87778Y77627D01*
X87774Y77634D01*
Y77641D01*
X87772Y77645D01*
Y77647D01*
D02*
G37*
G36*
X85486D02*
X85473Y77604D01*
X85458Y77560D01*
X85443Y77516D01*
X85428Y77473D01*
X85421Y77455D01*
X85415Y77436D01*
X85410Y77419D01*
X85404Y77407D01*
X85400Y77395D01*
X85397Y77386D01*
X85395Y77381D01*
Y77379D01*
X85262Y77027D01*
X85695D01*
X85556Y77401D01*
X85539Y77447D01*
X85526Y77492D01*
X85513Y77532D01*
X85504Y77569D01*
X85497Y77601D01*
X85493Y77614D01*
X85491Y77627D01*
X85487Y77634D01*
Y77641D01*
X85486Y77645D01*
Y77647D01*
D02*
G37*
%LPD*%
D47*
X42118Y10500D02*
Y49000D01*
Y10500D02*
X76118Y10500D01*
X76218Y10500D02*
X76218Y49000D01*
X42118Y49000D02*
X76118D01*
M02*
