G04*
G04 #@! TF.GenerationSoftware,Altium Limited,Altium Designer,19.1.6 (110)*
G04*
G04 Layer_Physical_Order=1*
G04 Layer_Color=255*
%FSLAX25Y25*%
%MOIN*%
G70*
G01*
G75*
G04:AMPARAMS|DCode=14|XSize=22.44mil|YSize=21.65mil|CornerRadius=0mil|HoleSize=0mil|Usage=FLASHONLY|Rotation=340.000|XOffset=0mil|YOffset=0mil|HoleType=Round|Shape=Rectangle|*
%AMROTATEDRECTD14*
4,1,4,-0.01425,-0.00634,-0.00684,0.01401,0.01425,0.00634,0.00684,-0.01401,-0.01425,-0.00634,0.0*
%
%ADD14ROTATEDRECTD14*%

G04:AMPARAMS|DCode=15|XSize=31.5mil|YSize=47.24mil|CornerRadius=0mil|HoleSize=0mil|Usage=FLASHONLY|Rotation=150.000|XOffset=0mil|YOffset=0mil|HoleType=Round|Shape=Rectangle|*
%AMROTATEDRECTD15*
4,1,4,0.02545,0.01258,0.00183,-0.02833,-0.02545,-0.01258,-0.00183,0.02833,0.02545,0.01258,0.0*
%
%ADD15ROTATEDRECTD15*%

G04:AMPARAMS|DCode=16|XSize=31.5mil|YSize=47.24mil|CornerRadius=0mil|HoleSize=0mil|Usage=FLASHONLY|Rotation=23.000|XOffset=0mil|YOffset=0mil|HoleType=Round|Shape=Rectangle|*
%AMROTATEDRECTD16*
4,1,4,-0.00527,-0.02790,-0.02373,0.01559,0.00527,0.02790,0.02373,-0.01559,-0.00527,-0.02790,0.0*
%
%ADD16ROTATEDRECTD16*%

%ADD17R,0.04724X0.03150*%
%ADD18R,0.01181X0.01968*%
%ADD19R,0.10532X0.10532*%
%ADD20O,0.01181X0.02953*%
%ADD21O,0.02953X0.01181*%
%ADD22R,0.12600X0.05118*%
%ADD23O,0.02362X0.07480*%
%ADD38C,0.01000*%
%ADD39C,0.14700*%
%ADD40C,0.03000*%
%ADD41C,0.02000*%
%ADD42C,0.01968*%
D14*
X53564Y100363D02*
D03*
X62998Y96929D02*
D03*
X52002Y96071D02*
D03*
X61436Y92637D02*
D03*
D15*
X24863Y16043D02*
D03*
X31000Y12500D02*
D03*
D16*
X36261Y99384D02*
D03*
X29739Y96616D02*
D03*
D17*
X95500Y50914D02*
D03*
Y58000D02*
D03*
X36838Y51920D02*
D03*
Y59006D02*
D03*
X26838Y51920D02*
D03*
Y59006D02*
D03*
D18*
X77000Y31744D02*
D03*
Y34500D02*
D03*
X82000Y31622D02*
D03*
Y34378D02*
D03*
X72000Y31866D02*
D03*
Y34622D02*
D03*
X55500Y73256D02*
D03*
Y70500D02*
D03*
X50500D02*
D03*
Y73256D02*
D03*
X76409Y82956D02*
D03*
Y80200D02*
D03*
X50500Y40122D02*
D03*
Y42878D02*
D03*
X72000Y83500D02*
D03*
Y80744D02*
D03*
D19*
X54338Y55506D02*
D03*
D20*
X50499Y63478D02*
D03*
X53058D02*
D03*
X55617D02*
D03*
X58176D02*
D03*
Y47534D02*
D03*
X55617D02*
D03*
X53058D02*
D03*
X50499D02*
D03*
D21*
X62310Y59345D02*
D03*
Y56786D02*
D03*
Y54226D02*
D03*
Y51667D02*
D03*
X46365D02*
D03*
Y54226D02*
D03*
Y56786D02*
D03*
Y59345D02*
D03*
D22*
X14338Y37199D02*
D03*
Y73813D02*
D03*
D23*
X87000Y68189D02*
D03*
X82000D02*
D03*
X77000D02*
D03*
X72000D02*
D03*
X87000Y41811D02*
D03*
X82000D02*
D03*
X77000D02*
D03*
X72000D02*
D03*
D38*
X62155Y51584D02*
X65916D01*
X74650Y29000D02*
X77000Y31350D01*
X47500Y29000D02*
X74650D01*
X31000Y12500D02*
X47500Y29000D01*
X61436Y92637D02*
X66500Y87573D01*
Y84000D02*
Y86500D01*
Y87573D01*
Y65000D02*
Y84000D01*
Y65000D02*
X69319Y62181D01*
X29739Y96616D02*
X31354Y95000D01*
X48893D02*
X50724Y93170D01*
X31354Y95000D02*
X48893D01*
X68484Y91516D02*
X72000D01*
X64000Y96000D02*
X68484Y91516D01*
X63950Y96000D02*
X64000D01*
X63021Y96929D02*
X63950Y96000D01*
X82000Y31500D02*
X85500D01*
X96287Y58000D02*
X99362Y54925D01*
Y45362D02*
Y54925D01*
X85500Y31500D02*
X99362Y45362D01*
X87000Y42500D02*
X92000D01*
X95500Y46000D02*
Y50914D01*
X92000Y42500D02*
X95500Y46000D01*
X33836Y18164D02*
X50500Y34828D01*
X26984Y18164D02*
X33836D01*
X52075Y93170D02*
X55208Y90037D01*
X50724Y93170D02*
X52075D01*
X55500Y80541D02*
Y90037D01*
X55208D02*
X55500D01*
X53000Y47476D02*
X53058Y47534D01*
X53000Y44000D02*
Y47476D01*
X51500Y44000D02*
X53000D01*
X50500Y45000D02*
X51500Y44000D01*
X71642Y32138D02*
X72000Y31780D01*
X36261Y98967D02*
X49106D01*
X60812Y92037D02*
X61413Y92637D01*
X56037Y92037D02*
X60812D01*
X52002Y96071D02*
X56037Y92037D01*
X50500Y34828D02*
Y39728D01*
X24863Y16043D02*
X26984Y18164D01*
X25653Y16833D02*
X25833D01*
X62155Y51584D02*
X62239Y51667D01*
X65320Y56820D02*
X66500Y58000D01*
X62345Y56820D02*
X65320D01*
X76500Y80472D02*
Y80622D01*
X76500Y83500D02*
Y88000D01*
X75288Y82956D02*
X76409D01*
X73347Y81016D02*
X75288Y82956D01*
X72091Y81016D02*
X73347D01*
X72000Y80925D02*
X72091Y81016D01*
X72000Y80744D02*
Y80925D01*
X82000Y34878D02*
Y41811D01*
X55500Y73256D02*
Y80083D01*
X62310Y54226D02*
X66726D01*
X49106Y98967D02*
X52002Y96071D01*
X36261Y99384D02*
X37397D01*
X61413Y92637D02*
X61436D01*
X62998Y96929D02*
X63021D01*
X62974D02*
X62998D01*
X59554Y100349D02*
X62974Y96929D01*
X53578Y100349D02*
X59554D01*
X53564Y100363D02*
X53578Y100349D01*
X36261Y98967D02*
Y99384D01*
X50500Y39728D02*
X50590Y39638D01*
X50499Y39729D02*
X50500Y39728D01*
Y40122D01*
X24863Y16043D02*
X25653Y16833D01*
X50499Y45000D02*
X50500D01*
Y45001D01*
Y42878D02*
Y45000D01*
X50590Y39638D02*
X52298D01*
X58176Y45516D01*
X65916Y51584D02*
X66500Y51000D01*
X69319Y33607D02*
Y62181D01*
Y33607D02*
X70788Y32138D01*
X71642D01*
X50499Y39729D02*
Y40122D01*
X77000Y31350D02*
Y31744D01*
X50499Y45000D02*
X50500Y45001D01*
X58176Y45516D02*
Y47534D01*
X50499Y51667D02*
X52172Y53341D01*
X46365Y51667D02*
X50499D01*
Y45000D02*
Y47534D01*
X62763Y69000D02*
X63000D01*
X46365Y56786D02*
X52172D01*
X55617Y52455D02*
X56503Y53341D01*
X76500Y79000D02*
Y80472D01*
X76500Y68689D02*
X77500Y69689D01*
X76500Y74000D02*
Y79000D01*
Y70689D02*
Y74000D01*
Y70689D02*
X77500Y69689D01*
X72000Y83500D02*
Y91516D01*
X77000Y31744D02*
Y32000D01*
X76500Y79000D02*
X76500Y79000D01*
X49379Y73075D02*
X50500D01*
X46365Y70061D02*
X49379Y73075D01*
X53058Y63478D02*
Y66558D01*
X55500Y69000D01*
Y70500D01*
X76500Y68689D02*
X77000Y68189D01*
X82500Y69689D02*
Y74000D01*
X87000Y68189D02*
Y74000D01*
X66726Y54226D02*
X66750Y54250D01*
X62310Y56786D02*
X62345Y56820D01*
X14338Y73313D02*
X18079D01*
X87000Y68189D02*
X87250Y68439D01*
X58176Y63478D02*
Y64413D01*
X62763Y69000D01*
X20138Y64919D02*
X26051Y59006D01*
X20138Y64919D02*
Y71254D01*
Y38758D02*
Y46007D01*
X18079Y36699D02*
X20138Y38758D01*
Y46007D02*
X26051Y51920D01*
X14338Y36699D02*
X18079D01*
X42727Y54226D02*
X46454D01*
X40420Y51920D02*
X42727Y54226D01*
X36838Y51920D02*
X40420D01*
X55617Y47534D02*
Y52455D01*
Y43000D02*
Y47534D01*
X62239Y51667D02*
X62310D01*
X50499Y59345D02*
Y63478D01*
X58176Y59345D02*
X62310D01*
X56503Y57671D02*
X58176Y59345D01*
X50499D02*
X52172Y57671D01*
X72000Y68189D02*
Y80744D01*
X40417Y59006D02*
X42638Y56786D01*
X36838Y59006D02*
X40417D01*
X26838Y51920D02*
X36838D01*
X26051D02*
X26838D01*
X95500Y58000D02*
X96287D01*
X72000Y34622D02*
Y41811D01*
X77000Y34500D02*
Y41811D01*
X50500Y73075D02*
Y73256D01*
X46365Y59345D02*
Y70061D01*
X50499Y63478D02*
X50500Y63479D01*
Y70500D01*
X50500Y70500D01*
X42638Y56786D02*
X46365D01*
X26838Y59006D02*
X36838D01*
X26051D02*
X26838D01*
X18079Y73313D02*
X20138Y71254D01*
D39*
X32500Y38500D02*
D03*
Y76500D02*
D03*
D40*
X66500Y86500D02*
D03*
X55500Y80541D02*
D03*
X76500Y74000D02*
D03*
X72000Y91516D02*
D03*
X82500Y74000D02*
D03*
X87000D02*
D03*
D41*
X92000Y42500D02*
D03*
X53000Y44000D02*
D03*
X66500Y51000D02*
D03*
Y54250D02*
D03*
X76500Y88000D02*
D03*
X63000Y69000D02*
D03*
X66500Y58000D02*
D03*
D42*
X56503Y53341D02*
D03*
X52172D02*
D03*
X56503Y57671D02*
D03*
X52172D02*
D03*
M02*
