G04*
G04 #@! TF.GenerationSoftware,Altium Limited,Altium Designer,19.1.6 (110)*
G04*
G04 Layer_Color=65535*
%FSLAX25Y25*%
%MOIN*%
G70*
G01*
G75*
%ADD10C,0.00787*%
%ADD11C,0.00984*%
%ADD12C,0.02362*%
%ADD13C,0.00394*%
G36*
X52604Y91902D02*
X52643D01*
X52748Y91891D01*
X52865Y91874D01*
X52987Y91846D01*
X53120Y91813D01*
X53242Y91768D01*
X53248D01*
X53259Y91763D01*
X53276Y91752D01*
X53298Y91741D01*
X53353Y91713D01*
X53425Y91663D01*
X53509Y91607D01*
X53592Y91535D01*
X53670Y91452D01*
X53742Y91358D01*
Y91352D01*
X53747Y91347D01*
X53758Y91330D01*
X53769Y91313D01*
X53797Y91258D01*
X53830Y91186D01*
X53869Y91097D01*
X53897Y90991D01*
X53925Y90880D01*
X53936Y90758D01*
X53448Y90719D01*
Y90725D01*
Y90736D01*
X53442Y90753D01*
X53436Y90781D01*
X53420Y90842D01*
X53398Y90925D01*
X53364Y91014D01*
X53314Y91102D01*
X53253Y91186D01*
X53176Y91263D01*
X53164Y91269D01*
X53137Y91291D01*
X53081Y91325D01*
X53009Y91358D01*
X52915Y91391D01*
X52804Y91424D01*
X52665Y91447D01*
X52510Y91452D01*
X52432D01*
X52399Y91447D01*
X52354Y91441D01*
X52254Y91430D01*
X52143Y91408D01*
X52032Y91380D01*
X51927Y91336D01*
X51882Y91308D01*
X51838Y91280D01*
X51827Y91274D01*
X51805Y91252D01*
X51771Y91214D01*
X51738Y91169D01*
X51699Y91108D01*
X51666Y91041D01*
X51644Y90964D01*
X51633Y90875D01*
Y90864D01*
Y90842D01*
X51638Y90803D01*
X51649Y90758D01*
X51666Y90703D01*
X51694Y90647D01*
X51727Y90592D01*
X51777Y90536D01*
X51783Y90531D01*
X51810Y90514D01*
X51832Y90497D01*
X51855Y90486D01*
X51888Y90470D01*
X51927Y90448D01*
X51977Y90431D01*
X52032Y90409D01*
X52093Y90386D01*
X52166Y90359D01*
X52243Y90337D01*
X52332Y90309D01*
X52432Y90287D01*
X52543Y90259D01*
X52548D01*
X52571Y90253D01*
X52604Y90248D01*
X52643Y90237D01*
X52693Y90225D01*
X52754Y90209D01*
X52815Y90192D01*
X52881Y90176D01*
X53026Y90137D01*
X53164Y90098D01*
X53231Y90076D01*
X53292Y90053D01*
X53348Y90037D01*
X53392Y90015D01*
X53398D01*
X53409Y90009D01*
X53425Y89998D01*
X53448Y89987D01*
X53509Y89954D01*
X53581Y89909D01*
X53664Y89848D01*
X53747Y89782D01*
X53825Y89704D01*
X53891Y89621D01*
X53897Y89609D01*
X53919Y89582D01*
X53942Y89532D01*
X53975Y89465D01*
X54002Y89388D01*
X54030Y89293D01*
X54047Y89188D01*
X54053Y89077D01*
Y89071D01*
Y89066D01*
Y89049D01*
Y89027D01*
X54041Y88966D01*
X54030Y88888D01*
X54008Y88799D01*
X53980Y88705D01*
X53936Y88605D01*
X53875Y88499D01*
Y88494D01*
X53869Y88488D01*
X53842Y88455D01*
X53803Y88405D01*
X53747Y88350D01*
X53675Y88283D01*
X53586Y88211D01*
X53486Y88144D01*
X53370Y88083D01*
X53364D01*
X53353Y88078D01*
X53337Y88072D01*
X53314Y88061D01*
X53281Y88050D01*
X53242Y88033D01*
X53153Y88011D01*
X53048Y87983D01*
X52920Y87956D01*
X52782Y87939D01*
X52632Y87933D01*
X52543D01*
X52499Y87939D01*
X52449D01*
X52393Y87945D01*
X52326Y87950D01*
X52188Y87972D01*
X52043Y87994D01*
X51899Y88033D01*
X51760Y88083D01*
X51755D01*
X51744Y88089D01*
X51727Y88100D01*
X51705Y88111D01*
X51638Y88144D01*
X51561Y88194D01*
X51472Y88261D01*
X51377Y88339D01*
X51289Y88433D01*
X51205Y88538D01*
Y88544D01*
X51194Y88555D01*
X51189Y88572D01*
X51172Y88594D01*
X51161Y88622D01*
X51144Y88655D01*
X51105Y88738D01*
X51067Y88844D01*
X51033Y88960D01*
X51011Y89093D01*
X51000Y89232D01*
X51477Y89276D01*
Y89271D01*
Y89265D01*
X51483Y89249D01*
Y89227D01*
X51494Y89177D01*
X51511Y89104D01*
X51533Y89032D01*
X51555Y88949D01*
X51594Y88871D01*
X51633Y88799D01*
X51638Y88794D01*
X51655Y88771D01*
X51683Y88733D01*
X51727Y88694D01*
X51783Y88644D01*
X51844Y88594D01*
X51927Y88544D01*
X52016Y88499D01*
X52021D01*
X52027Y88494D01*
X52043Y88488D01*
X52060Y88483D01*
X52115Y88466D01*
X52188Y88444D01*
X52276Y88422D01*
X52376Y88405D01*
X52487Y88394D01*
X52609Y88389D01*
X52659D01*
X52715Y88394D01*
X52782Y88400D01*
X52859Y88411D01*
X52948Y88422D01*
X53037Y88444D01*
X53120Y88472D01*
X53131Y88477D01*
X53159Y88488D01*
X53198Y88511D01*
X53248Y88533D01*
X53298Y88572D01*
X53353Y88611D01*
X53409Y88655D01*
X53453Y88710D01*
X53459Y88716D01*
X53470Y88738D01*
X53486Y88766D01*
X53509Y88810D01*
X53531Y88855D01*
X53548Y88910D01*
X53559Y88971D01*
X53564Y89038D01*
Y89043D01*
Y89071D01*
X53559Y89104D01*
X53553Y89149D01*
X53536Y89193D01*
X53520Y89249D01*
X53492Y89304D01*
X53453Y89354D01*
X53448Y89360D01*
X53431Y89376D01*
X53409Y89399D01*
X53370Y89432D01*
X53325Y89465D01*
X53264Y89504D01*
X53192Y89543D01*
X53109Y89576D01*
X53103Y89582D01*
X53076Y89587D01*
X53031Y89604D01*
X53004Y89609D01*
X52965Y89621D01*
X52926Y89637D01*
X52876Y89648D01*
X52820Y89665D01*
X52754Y89682D01*
X52687Y89698D01*
X52609Y89720D01*
X52521Y89743D01*
X52426Y89765D01*
X52421D01*
X52404Y89771D01*
X52376Y89776D01*
X52343Y89787D01*
X52299Y89798D01*
X52249Y89809D01*
X52138Y89843D01*
X52016Y89881D01*
X51888Y89920D01*
X51777Y89959D01*
X51727Y89981D01*
X51683Y90004D01*
X51677D01*
X51672Y90009D01*
X51638Y90031D01*
X51588Y90059D01*
X51533Y90103D01*
X51466Y90153D01*
X51400Y90214D01*
X51333Y90287D01*
X51278Y90364D01*
X51272Y90375D01*
X51255Y90403D01*
X51233Y90448D01*
X51211Y90503D01*
X51189Y90575D01*
X51166Y90658D01*
X51150Y90747D01*
X51144Y90842D01*
Y90847D01*
Y90853D01*
Y90869D01*
Y90891D01*
X51155Y90947D01*
X51166Y91019D01*
X51183Y91102D01*
X51211Y91197D01*
X51250Y91291D01*
X51305Y91386D01*
Y91391D01*
X51311Y91397D01*
X51338Y91430D01*
X51377Y91474D01*
X51427Y91530D01*
X51494Y91591D01*
X51577Y91657D01*
X51677Y91719D01*
X51788Y91774D01*
X51794D01*
X51805Y91780D01*
X51821Y91785D01*
X51844Y91796D01*
X51871Y91807D01*
X51910Y91818D01*
X51993Y91841D01*
X52099Y91863D01*
X52221Y91885D01*
X52349Y91902D01*
X52493Y91907D01*
X52565D01*
X52604Y91902D01*
D02*
G37*
G36*
X55923Y91852D02*
X55967Y91846D01*
X56023Y91841D01*
X56084Y91830D01*
X56145Y91818D01*
X56289Y91780D01*
X56433Y91724D01*
X56506Y91691D01*
X56578Y91652D01*
X56644Y91602D01*
X56705Y91546D01*
X56711Y91541D01*
X56722Y91535D01*
X56733Y91513D01*
X56755Y91491D01*
X56783Y91463D01*
X56811Y91424D01*
X56839Y91386D01*
X56872Y91336D01*
X56927Y91230D01*
X56983Y91097D01*
X57005Y91030D01*
X57016Y90953D01*
X57027Y90875D01*
X57033Y90792D01*
Y90781D01*
Y90753D01*
X57027Y90708D01*
X57022Y90647D01*
X57011Y90581D01*
X56989Y90503D01*
X56966Y90420D01*
X56933Y90337D01*
X56927Y90325D01*
X56916Y90298D01*
X56894Y90253D01*
X56861Y90192D01*
X56816Y90126D01*
X56761Y90042D01*
X56694Y89959D01*
X56617Y89865D01*
X56605Y89854D01*
X56578Y89820D01*
X56550Y89793D01*
X56522Y89765D01*
X56489Y89732D01*
X56445Y89687D01*
X56400Y89643D01*
X56345Y89593D01*
X56289Y89537D01*
X56223Y89476D01*
X56150Y89415D01*
X56073Y89343D01*
X55984Y89271D01*
X55895Y89193D01*
X55889Y89188D01*
X55878Y89177D01*
X55856Y89160D01*
X55828Y89138D01*
X55795Y89104D01*
X55756Y89071D01*
X55668Y88999D01*
X55573Y88916D01*
X55484Y88832D01*
X55407Y88760D01*
X55373Y88733D01*
X55346Y88705D01*
X55340Y88699D01*
X55323Y88683D01*
X55301Y88661D01*
X55273Y88627D01*
X55246Y88588D01*
X55212Y88550D01*
X55146Y88455D01*
X57038D01*
Y88000D01*
X54491D01*
Y88006D01*
Y88028D01*
Y88061D01*
X54497Y88105D01*
X54502Y88155D01*
X54513Y88211D01*
X54524Y88266D01*
X54546Y88327D01*
Y88333D01*
X54552Y88339D01*
X54563Y88372D01*
X54585Y88422D01*
X54619Y88488D01*
X54663Y88566D01*
X54719Y88655D01*
X54779Y88744D01*
X54857Y88838D01*
Y88844D01*
X54868Y88849D01*
X54896Y88882D01*
X54946Y88932D01*
X55018Y89004D01*
X55101Y89088D01*
X55207Y89188D01*
X55335Y89299D01*
X55473Y89415D01*
X55479Y89421D01*
X55501Y89438D01*
X55534Y89465D01*
X55573Y89499D01*
X55623Y89543D01*
X55684Y89593D01*
X55745Y89648D01*
X55817Y89709D01*
X55956Y89843D01*
X56095Y89976D01*
X56161Y90042D01*
X56223Y90109D01*
X56278Y90170D01*
X56322Y90231D01*
Y90237D01*
X56334Y90242D01*
X56345Y90259D01*
X56356Y90281D01*
X56395Y90342D01*
X56439Y90414D01*
X56478Y90503D01*
X56517Y90597D01*
X56539Y90703D01*
X56550Y90803D01*
Y90808D01*
Y90814D01*
X56544Y90847D01*
X56539Y90903D01*
X56522Y90964D01*
X56500Y91041D01*
X56461Y91119D01*
X56411Y91197D01*
X56345Y91274D01*
X56334Y91286D01*
X56306Y91308D01*
X56267Y91336D01*
X56206Y91374D01*
X56128Y91408D01*
X56039Y91441D01*
X55934Y91463D01*
X55817Y91469D01*
X55784D01*
X55762Y91463D01*
X55695Y91458D01*
X55618Y91441D01*
X55534Y91419D01*
X55440Y91380D01*
X55351Y91330D01*
X55268Y91263D01*
X55257Y91252D01*
X55235Y91224D01*
X55201Y91180D01*
X55168Y91114D01*
X55129Y91036D01*
X55096Y90936D01*
X55074Y90825D01*
X55063Y90697D01*
X54580Y90747D01*
Y90753D01*
X54585Y90769D01*
Y90797D01*
X54591Y90836D01*
X54602Y90880D01*
X54613Y90930D01*
X54630Y90991D01*
X54646Y91053D01*
X54691Y91186D01*
X54757Y91319D01*
X54796Y91386D01*
X54846Y91452D01*
X54896Y91513D01*
X54952Y91569D01*
X54957Y91574D01*
X54968Y91580D01*
X54985Y91596D01*
X55013Y91613D01*
X55046Y91635D01*
X55085Y91657D01*
X55129Y91685D01*
X55185Y91713D01*
X55246Y91741D01*
X55312Y91768D01*
X55384Y91791D01*
X55462Y91813D01*
X55546Y91830D01*
X55634Y91846D01*
X55729Y91852D01*
X55828Y91857D01*
X55884D01*
X55923Y91852D01*
D02*
G37*
G36*
X43248Y103387D02*
X43302Y103379D01*
X43369Y103366D01*
X43444Y103345D01*
X43519Y103321D01*
X43593Y103287D01*
X43598D01*
X43602Y103283D01*
X43627Y103271D01*
X43664Y103246D01*
X43706Y103217D01*
X43756Y103175D01*
X43806Y103129D01*
X43856Y103075D01*
X43897Y103013D01*
X43901Y103004D01*
X43914Y102983D01*
X43930Y102946D01*
X43951Y102900D01*
X43972Y102846D01*
X43989Y102784D01*
X44001Y102713D01*
X44005Y102642D01*
Y102634D01*
Y102609D01*
X44001Y102576D01*
X43993Y102530D01*
X43980Y102476D01*
X43960Y102418D01*
X43935Y102359D01*
X43901Y102301D01*
X43897Y102293D01*
X43885Y102276D01*
X43860Y102247D01*
X43826Y102214D01*
X43785Y102176D01*
X43735Y102135D01*
X43677Y102097D01*
X43606Y102060D01*
X43610D01*
X43618Y102056D01*
X43631Y102052D01*
X43648Y102048D01*
X43693Y102031D01*
X43751Y102006D01*
X43818Y101973D01*
X43885Y101931D01*
X43947Y101877D01*
X44005Y101815D01*
X44009Y101806D01*
X44026Y101781D01*
X44051Y101740D01*
X44076Y101686D01*
X44101Y101619D01*
X44126Y101540D01*
X44143Y101449D01*
X44147Y101349D01*
Y101345D01*
Y101332D01*
Y101311D01*
X44143Y101286D01*
X44138Y101253D01*
X44130Y101216D01*
X44122Y101174D01*
X44113Y101128D01*
X44080Y101028D01*
X44055Y100974D01*
X44030Y100924D01*
X43997Y100870D01*
X43960Y100816D01*
X43918Y100762D01*
X43868Y100712D01*
X43864Y100708D01*
X43856Y100700D01*
X43839Y100687D01*
X43818Y100671D01*
X43793Y100650D01*
X43760Y100629D01*
X43722Y100604D01*
X43677Y100583D01*
X43631Y100558D01*
X43577Y100533D01*
X43523Y100513D01*
X43460Y100492D01*
X43394Y100475D01*
X43323Y100463D01*
X43252Y100454D01*
X43173Y100450D01*
X43136D01*
X43111Y100454D01*
X43078Y100458D01*
X43040Y100463D01*
X42999Y100471D01*
X42953Y100479D01*
X42853Y100504D01*
X42749Y100546D01*
X42695Y100571D01*
X42645Y100600D01*
X42595Y100637D01*
X42545Y100675D01*
X42541Y100679D01*
X42533Y100687D01*
X42520Y100700D01*
X42508Y100716D01*
X42487Y100737D01*
X42466Y100766D01*
X42441Y100795D01*
X42416Y100833D01*
X42391Y100874D01*
X42366Y100916D01*
X42320Y101016D01*
X42283Y101132D01*
X42271Y101195D01*
X42262Y101261D01*
X42616Y101307D01*
Y101303D01*
X42620Y101295D01*
X42624Y101278D01*
X42628Y101257D01*
X42632Y101232D01*
X42641Y101203D01*
X42662Y101141D01*
X42691Y101066D01*
X42728Y100995D01*
X42770Y100928D01*
X42820Y100870D01*
X42828Y100866D01*
X42845Y100849D01*
X42878Y100829D01*
X42919Y100808D01*
X42969Y100783D01*
X43032Y100762D01*
X43103Y100745D01*
X43177Y100741D01*
X43202D01*
X43219Y100745D01*
X43265Y100750D01*
X43323Y100762D01*
X43390Y100783D01*
X43460Y100812D01*
X43531Y100854D01*
X43598Y100912D01*
X43606Y100920D01*
X43627Y100945D01*
X43652Y100983D01*
X43685Y101032D01*
X43718Y101095D01*
X43743Y101166D01*
X43764Y101249D01*
X43772Y101340D01*
Y101345D01*
Y101353D01*
Y101365D01*
X43768Y101382D01*
X43764Y101428D01*
X43751Y101482D01*
X43735Y101548D01*
X43706Y101615D01*
X43664Y101681D01*
X43610Y101744D01*
X43602Y101752D01*
X43581Y101769D01*
X43548Y101794D01*
X43502Y101823D01*
X43444Y101852D01*
X43373Y101877D01*
X43294Y101894D01*
X43207Y101902D01*
X43169D01*
X43140Y101898D01*
X43103Y101894D01*
X43061Y101885D01*
X43011Y101877D01*
X42957Y101865D01*
X42999Y102176D01*
X43019D01*
X43036Y102172D01*
X43090D01*
X43136Y102181D01*
X43190Y102189D01*
X43252Y102201D01*
X43323Y102222D01*
X43390Y102251D01*
X43460Y102289D01*
X43464D01*
X43469Y102293D01*
X43489Y102310D01*
X43519Y102339D01*
X43552Y102376D01*
X43585Y102430D01*
X43614Y102493D01*
X43635Y102563D01*
X43643Y102605D01*
Y102651D01*
Y102655D01*
Y102659D01*
Y102684D01*
X43635Y102717D01*
X43627Y102763D01*
X43610Y102813D01*
X43589Y102867D01*
X43556Y102921D01*
X43510Y102971D01*
X43506Y102975D01*
X43485Y102992D01*
X43456Y103013D01*
X43419Y103038D01*
X43369Y103058D01*
X43311Y103079D01*
X43244Y103096D01*
X43169Y103100D01*
X43136D01*
X43098Y103092D01*
X43049Y103083D01*
X42994Y103067D01*
X42940Y103046D01*
X42882Y103013D01*
X42828Y102971D01*
X42824Y102967D01*
X42807Y102946D01*
X42782Y102917D01*
X42753Y102875D01*
X42724Y102821D01*
X42695Y102755D01*
X42670Y102676D01*
X42653Y102584D01*
X42300Y102647D01*
Y102651D01*
X42304Y102663D01*
X42308Y102680D01*
X42312Y102705D01*
X42320Y102734D01*
X42333Y102767D01*
X42358Y102846D01*
X42399Y102938D01*
X42449Y103029D01*
X42512Y103117D01*
X42591Y103196D01*
X42595Y103200D01*
X42603Y103204D01*
X42616Y103212D01*
X42632Y103225D01*
X42653Y103241D01*
X42682Y103258D01*
X42711Y103275D01*
X42749Y103296D01*
X42832Y103329D01*
X42928Y103362D01*
X43040Y103383D01*
X43098Y103391D01*
X43202D01*
X43248Y103387D01*
D02*
G37*
G36*
X40681Y103375D02*
X40765Y103370D01*
X40848Y103362D01*
X40931Y103350D01*
X41002Y103337D01*
X41006D01*
X41014Y103333D01*
X41027D01*
X41043Y103325D01*
X41089Y103312D01*
X41147Y103291D01*
X41214Y103262D01*
X41285Y103225D01*
X41355Y103183D01*
X41422Y103129D01*
X41426Y103125D01*
X41430Y103121D01*
X41443Y103108D01*
X41459Y103096D01*
X41501Y103054D01*
X41551Y102996D01*
X41605Y102925D01*
X41663Y102842D01*
X41717Y102746D01*
X41763Y102638D01*
Y102634D01*
X41767Y102626D01*
X41776Y102609D01*
X41780Y102584D01*
X41792Y102555D01*
X41800Y102522D01*
X41809Y102484D01*
X41821Y102439D01*
X41834Y102393D01*
X41842Y102339D01*
X41863Y102222D01*
X41875Y102093D01*
X41879Y101952D01*
Y101948D01*
Y101939D01*
Y101919D01*
Y101898D01*
X41875Y101869D01*
Y101835D01*
X41871Y101756D01*
X41859Y101665D01*
X41846Y101569D01*
X41825Y101469D01*
X41800Y101369D01*
Y101365D01*
X41796Y101357D01*
X41792Y101345D01*
X41788Y101328D01*
X41771Y101282D01*
X41746Y101224D01*
X41721Y101157D01*
X41688Y101091D01*
X41647Y101020D01*
X41605Y100953D01*
X41601Y100945D01*
X41584Y100924D01*
X41559Y100895D01*
X41526Y100858D01*
X41489Y100816D01*
X41443Y100775D01*
X41397Y100729D01*
X41343Y100691D01*
X41335Y100687D01*
X41318Y100675D01*
X41289Y100658D01*
X41247Y100637D01*
X41197Y100612D01*
X41139Y100592D01*
X41072Y100567D01*
X40998Y100546D01*
X40989D01*
X40977Y100542D01*
X40964Y100537D01*
X40923Y100533D01*
X40865Y100525D01*
X40798Y100517D01*
X40719Y100508D01*
X40631Y100504D01*
X40536Y100500D01*
X39500D01*
Y103379D01*
X40607D01*
X40681Y103375D01*
D02*
G37*
G36*
X42513Y44849D02*
Y44844D01*
Y44826D01*
Y44803D01*
Y44771D01*
X42509Y44729D01*
Y44683D01*
X42504Y44627D01*
X42499Y44572D01*
X42486Y44447D01*
X42467Y44318D01*
X42439Y44193D01*
X42421Y44133D01*
X42402Y44078D01*
Y44073D01*
X42398Y44064D01*
X42388Y44050D01*
X42379Y44031D01*
X42352Y43981D01*
X42310Y43916D01*
X42255Y43842D01*
X42190Y43768D01*
X42107Y43689D01*
X42005Y43620D01*
X42000D01*
X41991Y43611D01*
X41977Y43606D01*
X41954Y43592D01*
X41927Y43578D01*
X41890Y43565D01*
X41853Y43551D01*
X41806Y43532D01*
X41756Y43514D01*
X41700Y43500D01*
X41640Y43486D01*
X41571Y43472D01*
X41502Y43463D01*
X41428Y43454D01*
X41261Y43445D01*
X41220D01*
X41187Y43449D01*
X41150D01*
X41104Y43454D01*
X41053Y43458D01*
X41003Y43463D01*
X40887Y43481D01*
X40762Y43509D01*
X40642Y43546D01*
X40527Y43597D01*
X40522D01*
X40513Y43606D01*
X40499Y43615D01*
X40481Y43625D01*
X40430Y43662D01*
X40370Y43712D01*
X40300Y43777D01*
X40236Y43851D01*
X40171Y43944D01*
X40120Y44045D01*
Y44050D01*
X40115Y44059D01*
X40111Y44078D01*
X40102Y44101D01*
X40092Y44128D01*
X40083Y44165D01*
X40069Y44207D01*
X40060Y44258D01*
X40051Y44313D01*
X40037Y44373D01*
X40028Y44438D01*
X40018Y44507D01*
X40009Y44586D01*
X40005Y44669D01*
X40000Y44757D01*
Y44849D01*
Y46697D01*
X40425D01*
Y44849D01*
Y44844D01*
Y44831D01*
Y44807D01*
Y44780D01*
X40430Y44747D01*
Y44706D01*
X40434Y44618D01*
X40444Y44516D01*
X40457Y44415D01*
X40476Y44318D01*
X40485Y44276D01*
X40499Y44235D01*
X40504Y44225D01*
X40513Y44202D01*
X40536Y44170D01*
X40564Y44124D01*
X40596Y44078D01*
X40642Y44027D01*
X40698Y43976D01*
X40762Y43934D01*
X40771Y43930D01*
X40795Y43916D01*
X40836Y43902D01*
X40892Y43883D01*
X40956Y43860D01*
X41039Y43846D01*
X41127Y43833D01*
X41224Y43828D01*
X41271D01*
X41298Y43833D01*
X41340D01*
X41381Y43837D01*
X41483Y43856D01*
X41594Y43879D01*
X41700Y43916D01*
X41802Y43967D01*
X41848Y43999D01*
X41890Y44036D01*
X41894Y44041D01*
X41899Y44045D01*
X41908Y44059D01*
X41922Y44078D01*
X41936Y44105D01*
X41954Y44133D01*
X41973Y44175D01*
X41991Y44216D01*
X42010Y44267D01*
X42024Y44327D01*
X42042Y44396D01*
X42056Y44470D01*
X42070Y44553D01*
X42079Y44641D01*
X42088Y44743D01*
Y44849D01*
Y46697D01*
X42513D01*
Y44849D01*
D02*
G37*
G36*
X44195Y46706D02*
X44232Y46702D01*
X44278Y46697D01*
X44329Y46688D01*
X44380Y46679D01*
X44500Y46646D01*
X44620Y46600D01*
X44680Y46572D01*
X44740Y46540D01*
X44796Y46498D01*
X44846Y46452D01*
X44851Y46448D01*
X44860Y46443D01*
X44870Y46424D01*
X44888Y46406D01*
X44911Y46383D01*
X44934Y46350D01*
X44957Y46318D01*
X44985Y46277D01*
X45031Y46189D01*
X45077Y46078D01*
X45096Y46022D01*
X45105Y45958D01*
X45114Y45893D01*
X45119Y45824D01*
Y45815D01*
Y45792D01*
X45114Y45755D01*
X45110Y45704D01*
X45101Y45648D01*
X45082Y45584D01*
X45063Y45514D01*
X45036Y45445D01*
X45031Y45436D01*
X45022Y45413D01*
X45004Y45376D01*
X44976Y45325D01*
X44939Y45270D01*
X44893Y45200D01*
X44837Y45131D01*
X44772Y45052D01*
X44763Y45043D01*
X44740Y45015D01*
X44717Y44992D01*
X44694Y44969D01*
X44666Y44941D01*
X44629Y44905D01*
X44592Y44868D01*
X44546Y44826D01*
X44500Y44780D01*
X44444Y44729D01*
X44384Y44678D01*
X44320Y44618D01*
X44246Y44558D01*
X44172Y44493D01*
X44167Y44489D01*
X44158Y44479D01*
X44140Y44466D01*
X44116Y44447D01*
X44089Y44419D01*
X44056Y44392D01*
X43982Y44332D01*
X43904Y44262D01*
X43830Y44193D01*
X43765Y44133D01*
X43738Y44110D01*
X43714Y44087D01*
X43710Y44082D01*
X43696Y44068D01*
X43677Y44050D01*
X43654Y44022D01*
X43631Y43990D01*
X43604Y43957D01*
X43548Y43879D01*
X45124D01*
Y43500D01*
X43003D01*
Y43505D01*
Y43523D01*
Y43551D01*
X43008Y43588D01*
X43012Y43629D01*
X43022Y43676D01*
X43031Y43722D01*
X43049Y43773D01*
Y43777D01*
X43054Y43782D01*
X43063Y43810D01*
X43082Y43851D01*
X43109Y43907D01*
X43146Y43971D01*
X43192Y44045D01*
X43243Y44119D01*
X43308Y44198D01*
Y44202D01*
X43317Y44207D01*
X43340Y44235D01*
X43382Y44276D01*
X43442Y44336D01*
X43511Y44405D01*
X43599Y44489D01*
X43705Y44581D01*
X43821Y44678D01*
X43825Y44683D01*
X43844Y44697D01*
X43872Y44720D01*
X43904Y44747D01*
X43946Y44784D01*
X43996Y44826D01*
X44047Y44872D01*
X44107Y44923D01*
X44223Y45034D01*
X44338Y45145D01*
X44394Y45200D01*
X44444Y45256D01*
X44491Y45306D01*
X44528Y45357D01*
Y45362D01*
X44537Y45366D01*
X44546Y45380D01*
X44555Y45399D01*
X44588Y45450D01*
X44625Y45510D01*
X44657Y45584D01*
X44689Y45662D01*
X44708Y45750D01*
X44717Y45833D01*
Y45838D01*
Y45842D01*
X44712Y45870D01*
X44708Y45916D01*
X44694Y45967D01*
X44675Y46032D01*
X44643Y46096D01*
X44602Y46161D01*
X44546Y46226D01*
X44537Y46235D01*
X44514Y46253D01*
X44481Y46277D01*
X44431Y46309D01*
X44366Y46337D01*
X44292Y46364D01*
X44204Y46383D01*
X44107Y46387D01*
X44080D01*
X44061Y46383D01*
X44006Y46378D01*
X43941Y46364D01*
X43872Y46346D01*
X43793Y46314D01*
X43719Y46272D01*
X43650Y46217D01*
X43641Y46207D01*
X43622Y46184D01*
X43594Y46147D01*
X43567Y46092D01*
X43534Y46027D01*
X43507Y45944D01*
X43488Y45852D01*
X43479Y45745D01*
X43077Y45787D01*
Y45792D01*
X43082Y45805D01*
Y45829D01*
X43086Y45861D01*
X43095Y45898D01*
X43105Y45939D01*
X43119Y45990D01*
X43132Y46041D01*
X43169Y46152D01*
X43225Y46263D01*
X43257Y46318D01*
X43299Y46374D01*
X43340Y46424D01*
X43387Y46471D01*
X43391Y46475D01*
X43400Y46480D01*
X43414Y46494D01*
X43437Y46508D01*
X43465Y46526D01*
X43497Y46545D01*
X43534Y46568D01*
X43580Y46591D01*
X43631Y46614D01*
X43687Y46637D01*
X43747Y46655D01*
X43812Y46674D01*
X43881Y46688D01*
X43955Y46702D01*
X44033Y46706D01*
X44116Y46711D01*
X44163D01*
X44195Y46706D01*
D02*
G37*
G36*
X67513Y65849D02*
Y65844D01*
Y65826D01*
Y65803D01*
Y65771D01*
X67509Y65729D01*
Y65683D01*
X67504Y65627D01*
X67499Y65572D01*
X67486Y65447D01*
X67467Y65318D01*
X67439Y65193D01*
X67421Y65133D01*
X67402Y65078D01*
Y65073D01*
X67398Y65064D01*
X67388Y65050D01*
X67379Y65031D01*
X67352Y64981D01*
X67310Y64916D01*
X67255Y64842D01*
X67190Y64768D01*
X67107Y64689D01*
X67005Y64620D01*
X67001D01*
X66991Y64611D01*
X66977Y64606D01*
X66954Y64592D01*
X66926Y64578D01*
X66890Y64565D01*
X66853Y64551D01*
X66806Y64532D01*
X66756Y64514D01*
X66700Y64500D01*
X66640Y64486D01*
X66571Y64472D01*
X66501Y64463D01*
X66428Y64454D01*
X66261Y64445D01*
X66220D01*
X66187Y64449D01*
X66150D01*
X66104Y64454D01*
X66053Y64458D01*
X66003Y64463D01*
X65887Y64482D01*
X65762Y64509D01*
X65642Y64546D01*
X65527Y64597D01*
X65522D01*
X65513Y64606D01*
X65499Y64615D01*
X65481Y64625D01*
X65430Y64662D01*
X65370Y64713D01*
X65300Y64777D01*
X65236Y64851D01*
X65171Y64943D01*
X65120Y65045D01*
Y65050D01*
X65115Y65059D01*
X65111Y65078D01*
X65102Y65101D01*
X65092Y65128D01*
X65083Y65165D01*
X65069Y65207D01*
X65060Y65258D01*
X65051Y65313D01*
X65037Y65373D01*
X65028Y65438D01*
X65018Y65507D01*
X65009Y65586D01*
X65005Y65669D01*
X65000Y65757D01*
Y65849D01*
Y67697D01*
X65425D01*
Y65849D01*
Y65844D01*
Y65831D01*
Y65807D01*
Y65780D01*
X65430Y65747D01*
Y65706D01*
X65434Y65618D01*
X65443Y65516D01*
X65457Y65415D01*
X65476Y65318D01*
X65485Y65276D01*
X65499Y65235D01*
X65504Y65225D01*
X65513Y65202D01*
X65536Y65170D01*
X65564Y65124D01*
X65596Y65078D01*
X65642Y65027D01*
X65698Y64976D01*
X65762Y64934D01*
X65772Y64930D01*
X65795Y64916D01*
X65836Y64902D01*
X65892Y64884D01*
X65956Y64860D01*
X66040Y64846D01*
X66127Y64833D01*
X66224Y64828D01*
X66271D01*
X66298Y64833D01*
X66340D01*
X66381Y64837D01*
X66483Y64856D01*
X66594Y64879D01*
X66700Y64916D01*
X66802Y64967D01*
X66848Y64999D01*
X66890Y65036D01*
X66894Y65040D01*
X66899Y65045D01*
X66908Y65059D01*
X66922Y65078D01*
X66936Y65105D01*
X66954Y65133D01*
X66973Y65175D01*
X66991Y65216D01*
X67010Y65267D01*
X67024Y65327D01*
X67042Y65396D01*
X67056Y65470D01*
X67070Y65553D01*
X67079Y65641D01*
X67088Y65743D01*
Y65849D01*
Y67697D01*
X67513D01*
Y65849D01*
D02*
G37*
G36*
X69537Y64500D02*
X69144D01*
Y66999D01*
X69139Y66995D01*
X69116Y66976D01*
X69089Y66949D01*
X69042Y66916D01*
X68992Y66875D01*
X68927Y66829D01*
X68853Y66778D01*
X68770Y66727D01*
X68765D01*
X68761Y66722D01*
X68733Y66704D01*
X68687Y66681D01*
X68631Y66653D01*
X68567Y66621D01*
X68497Y66588D01*
X68428Y66556D01*
X68359Y66528D01*
Y66907D01*
X68363D01*
X68373Y66916D01*
X68391Y66921D01*
X68414Y66935D01*
X68442Y66949D01*
X68474Y66967D01*
X68553Y67013D01*
X68645Y67064D01*
X68738Y67129D01*
X68835Y67203D01*
X68932Y67281D01*
X68936Y67286D01*
X68941Y67291D01*
X68955Y67304D01*
X68973Y67318D01*
X69015Y67364D01*
X69070Y67420D01*
X69126Y67484D01*
X69186Y67558D01*
X69236Y67632D01*
X69283Y67711D01*
X69537D01*
Y64500D01*
D02*
G37*
G36*
X78551Y29922D02*
X78571D01*
X78593Y29920D01*
X78645Y29908D01*
X78703Y29895D01*
X78764Y29873D01*
X78825Y29839D01*
X78856Y29820D01*
X78884Y29798D01*
X78886Y29795D01*
X78889Y29792D01*
X78897Y29784D01*
X78906Y29776D01*
X78920Y29762D01*
X78931Y29745D01*
X78961Y29706D01*
X78992Y29656D01*
X79019Y29596D01*
X79044Y29526D01*
X79061Y29449D01*
X78825Y29429D01*
Y29432D01*
X78823Y29435D01*
X78820Y29452D01*
X78812Y29476D01*
X78800Y29507D01*
X78789Y29540D01*
X78773Y29573D01*
X78753Y29604D01*
X78734Y29629D01*
X78728Y29634D01*
X78717Y29645D01*
X78698Y29662D01*
X78670Y29681D01*
X78634Y29698D01*
X78596Y29715D01*
X78548Y29726D01*
X78499Y29731D01*
X78479D01*
X78457Y29728D01*
X78432Y29723D01*
X78399Y29715D01*
X78366Y29704D01*
X78332Y29690D01*
X78299Y29667D01*
X78294Y29665D01*
X78280Y29654D01*
X78260Y29634D01*
X78235Y29607D01*
X78208Y29573D01*
X78177Y29535D01*
X78149Y29485D01*
X78122Y29429D01*
Y29427D01*
X78119Y29421D01*
X78116Y29413D01*
X78111Y29402D01*
X78108Y29385D01*
X78102Y29366D01*
X78097Y29344D01*
X78091Y29316D01*
X78083Y29285D01*
X78078Y29252D01*
X78072Y29216D01*
X78069Y29177D01*
X78064Y29133D01*
X78061Y29089D01*
X78058Y29039D01*
Y28989D01*
X78061Y28992D01*
X78072Y29008D01*
X78091Y29030D01*
X78116Y29058D01*
X78144Y29091D01*
X78180Y29122D01*
X78219Y29152D01*
X78263Y29180D01*
X78266D01*
X78269Y29183D01*
X78285Y29191D01*
X78310Y29199D01*
X78343Y29213D01*
X78382Y29224D01*
X78426Y29233D01*
X78474Y29241D01*
X78523Y29244D01*
X78546D01*
X78562Y29241D01*
X78584Y29238D01*
X78607Y29235D01*
X78634Y29230D01*
X78662Y29222D01*
X78726Y29202D01*
X78759Y29188D01*
X78792Y29169D01*
X78825Y29149D01*
X78861Y29127D01*
X78895Y29100D01*
X78925Y29069D01*
X78928Y29066D01*
X78933Y29061D01*
X78942Y29053D01*
X78950Y29039D01*
X78964Y29019D01*
X78978Y29000D01*
X78992Y28975D01*
X79008Y28947D01*
X79025Y28917D01*
X79039Y28884D01*
X79053Y28845D01*
X79066Y28806D01*
X79075Y28765D01*
X79083Y28717D01*
X79088Y28670D01*
X79091Y28620D01*
Y28618D01*
Y28612D01*
Y28604D01*
Y28590D01*
X79088Y28573D01*
Y28557D01*
X79080Y28512D01*
X79072Y28460D01*
X79058Y28404D01*
X79039Y28343D01*
X79011Y28285D01*
Y28282D01*
X79008Y28280D01*
X79003Y28271D01*
X78997Y28260D01*
X78980Y28233D01*
X78956Y28197D01*
X78925Y28158D01*
X78889Y28119D01*
X78845Y28080D01*
X78798Y28047D01*
X78795D01*
X78792Y28044D01*
X78784Y28039D01*
X78773Y28036D01*
X78745Y28022D01*
X78709Y28008D01*
X78662Y27992D01*
X78609Y27981D01*
X78551Y27970D01*
X78487Y27967D01*
X78474D01*
X78460Y27970D01*
X78438D01*
X78413Y27972D01*
X78385Y27978D01*
X78352Y27986D01*
X78319Y27994D01*
X78280Y28005D01*
X78241Y28019D01*
X78202Y28036D01*
X78161Y28058D01*
X78122Y28083D01*
X78083Y28111D01*
X78044Y28144D01*
X78008Y28183D01*
X78005Y28186D01*
X78000Y28194D01*
X77992Y28205D01*
X77981Y28224D01*
X77964Y28249D01*
X77950Y28277D01*
X77934Y28313D01*
X77917Y28352D01*
X77898Y28399D01*
X77881Y28451D01*
X77867Y28510D01*
X77853Y28573D01*
X77839Y28645D01*
X77831Y28723D01*
X77825Y28806D01*
X77823Y28895D01*
Y28898D01*
Y28900D01*
Y28909D01*
Y28920D01*
X77825Y28947D01*
Y28986D01*
X77828Y29030D01*
X77834Y29083D01*
X77839Y29141D01*
X77848Y29205D01*
X77859Y29269D01*
X77873Y29338D01*
X77889Y29404D01*
X77908Y29471D01*
X77934Y29535D01*
X77961Y29596D01*
X77992Y29654D01*
X78028Y29704D01*
X78030Y29706D01*
X78036Y29712D01*
X78047Y29723D01*
X78061Y29740D01*
X78078Y29756D01*
X78100Y29773D01*
X78127Y29795D01*
X78155Y29814D01*
X78188Y29834D01*
X78224Y29856D01*
X78266Y29873D01*
X78307Y29892D01*
X78355Y29906D01*
X78404Y29917D01*
X78457Y29922D01*
X78512Y29925D01*
X78535D01*
X78551Y29922D01*
D02*
G37*
G36*
X76911Y29914D02*
X76936D01*
X76994Y29911D01*
X77055Y29903D01*
X77122Y29895D01*
X77183Y29881D01*
X77213Y29873D01*
X77238Y29864D01*
X77241D01*
X77244Y29861D01*
X77260Y29853D01*
X77285Y29842D01*
X77316Y29823D01*
X77349Y29798D01*
X77385Y29765D01*
X77418Y29726D01*
X77451Y29681D01*
Y29679D01*
X77454Y29676D01*
X77465Y29659D01*
X77476Y29632D01*
X77493Y29596D01*
X77507Y29554D01*
X77521Y29504D01*
X77529Y29452D01*
X77532Y29393D01*
Y29390D01*
Y29385D01*
Y29374D01*
X77529Y29360D01*
Y29341D01*
X77526Y29321D01*
X77515Y29274D01*
X77499Y29219D01*
X77476Y29161D01*
X77443Y29103D01*
X77421Y29075D01*
X77399Y29047D01*
X77396Y29044D01*
X77393Y29041D01*
X77385Y29033D01*
X77374Y29025D01*
X77360Y29014D01*
X77343Y29003D01*
X77321Y28989D01*
X77299Y28972D01*
X77271Y28958D01*
X77241Y28945D01*
X77208Y28928D01*
X77172Y28914D01*
X77130Y28903D01*
X77089Y28889D01*
X77042Y28881D01*
X76992Y28873D01*
X76997Y28870D01*
X77008Y28864D01*
X77025Y28853D01*
X77047Y28842D01*
X77097Y28812D01*
X77122Y28792D01*
X77144Y28776D01*
X77149Y28770D01*
X77163Y28756D01*
X77186Y28734D01*
X77213Y28706D01*
X77244Y28668D01*
X77280Y28626D01*
X77316Y28576D01*
X77355Y28521D01*
X77684Y28000D01*
X77368D01*
X77116Y28399D01*
Y28402D01*
X77111Y28407D01*
X77105Y28416D01*
X77097Y28427D01*
X77078Y28457D01*
X77053Y28496D01*
X77022Y28537D01*
X76992Y28582D01*
X76961Y28623D01*
X76933Y28662D01*
X76931Y28665D01*
X76922Y28676D01*
X76909Y28692D01*
X76889Y28712D01*
X76848Y28753D01*
X76825Y28773D01*
X76803Y28789D01*
X76801Y28792D01*
X76795Y28795D01*
X76784Y28800D01*
X76767Y28809D01*
X76751Y28817D01*
X76731Y28826D01*
X76687Y28839D01*
X76684D01*
X76679Y28842D01*
X76668D01*
X76654Y28845D01*
X76634Y28848D01*
X76612D01*
X76582Y28850D01*
X76255D01*
Y28000D01*
X76000D01*
Y29917D01*
X76889D01*
X76911Y29914D01*
D02*
G37*
G36*
X84014Y29667D02*
X83246D01*
X83144Y29149D01*
X83147Y29152D01*
X83152Y29155D01*
X83161Y29161D01*
X83175Y29169D01*
X83191Y29177D01*
X83210Y29188D01*
X83255Y29210D01*
X83310Y29233D01*
X83371Y29252D01*
X83438Y29266D01*
X83471Y29271D01*
X83532D01*
X83548Y29269D01*
X83571Y29266D01*
X83596Y29263D01*
X83623Y29258D01*
X83654Y29249D01*
X83720Y29230D01*
X83756Y29216D01*
X83792Y29197D01*
X83828Y29177D01*
X83864Y29155D01*
X83897Y29127D01*
X83931Y29097D01*
X83933Y29094D01*
X83939Y29089D01*
X83947Y29080D01*
X83958Y29066D01*
X83972Y29047D01*
X83986Y29028D01*
X84003Y29003D01*
X84019Y28975D01*
X84033Y28945D01*
X84050Y28911D01*
X84064Y28873D01*
X84078Y28834D01*
X84088Y28792D01*
X84097Y28745D01*
X84102Y28698D01*
X84105Y28648D01*
Y28645D01*
Y28637D01*
Y28623D01*
X84102Y28604D01*
X84100Y28582D01*
X84097Y28557D01*
X84091Y28526D01*
X84086Y28496D01*
X84069Y28424D01*
X84042Y28349D01*
X84025Y28310D01*
X84003Y28274D01*
X83981Y28235D01*
X83953Y28199D01*
X83950Y28197D01*
X83944Y28188D01*
X83933Y28177D01*
X83920Y28163D01*
X83900Y28147D01*
X83878Y28125D01*
X83850Y28105D01*
X83820Y28083D01*
X83787Y28061D01*
X83748Y28042D01*
X83706Y28022D01*
X83662Y28003D01*
X83615Y27989D01*
X83562Y27978D01*
X83507Y27970D01*
X83449Y27967D01*
X83424D01*
X83404Y27970D01*
X83382Y27972D01*
X83357Y27975D01*
X83327Y27978D01*
X83296Y27986D01*
X83227Y28003D01*
X83158Y28028D01*
X83122Y28044D01*
X83086Y28064D01*
X83053Y28086D01*
X83019Y28111D01*
X83017Y28114D01*
X83011Y28116D01*
X83005Y28127D01*
X82994Y28139D01*
X82981Y28152D01*
X82967Y28169D01*
X82950Y28191D01*
X82936Y28216D01*
X82920Y28241D01*
X82903Y28271D01*
X82872Y28338D01*
X82848Y28416D01*
X82839Y28457D01*
X82834Y28501D01*
X83080Y28521D01*
Y28518D01*
Y28512D01*
X83083Y28504D01*
X83086Y28490D01*
X83094Y28460D01*
X83105Y28418D01*
X83122Y28377D01*
X83144Y28330D01*
X83172Y28288D01*
X83205Y28249D01*
X83210Y28247D01*
X83222Y28235D01*
X83244Y28222D01*
X83274Y28205D01*
X83307Y28188D01*
X83349Y28174D01*
X83396Y28163D01*
X83449Y28161D01*
X83465D01*
X83476Y28163D01*
X83510Y28166D01*
X83548Y28177D01*
X83596Y28191D01*
X83643Y28213D01*
X83692Y28247D01*
X83715Y28266D01*
X83737Y28288D01*
X83740Y28291D01*
X83742Y28294D01*
X83748Y28302D01*
X83756Y28310D01*
X83776Y28341D01*
X83798Y28379D01*
X83817Y28427D01*
X83837Y28485D01*
X83850Y28554D01*
X83856Y28590D01*
Y28629D01*
Y28632D01*
Y28637D01*
Y28648D01*
X83853Y28662D01*
Y28679D01*
X83850Y28698D01*
X83842Y28742D01*
X83828Y28795D01*
X83809Y28848D01*
X83781Y28898D01*
X83742Y28945D01*
Y28947D01*
X83737Y28950D01*
X83723Y28964D01*
X83698Y28983D01*
X83665Y29006D01*
X83620Y29025D01*
X83571Y29044D01*
X83512Y29058D01*
X83479Y29064D01*
X83426D01*
X83404Y29061D01*
X83377Y29058D01*
X83343Y29050D01*
X83310Y29041D01*
X83274Y29028D01*
X83238Y29011D01*
X83235Y29008D01*
X83224Y29003D01*
X83208Y28989D01*
X83185Y28975D01*
X83163Y28956D01*
X83141Y28931D01*
X83116Y28906D01*
X83097Y28875D01*
X82875Y28906D01*
X83061Y29892D01*
X84014D01*
Y29667D01*
D02*
G37*
G36*
X81911Y29914D02*
X81936D01*
X81994Y29911D01*
X82055Y29903D01*
X82122Y29895D01*
X82183Y29881D01*
X82213Y29873D01*
X82238Y29864D01*
X82241D01*
X82244Y29861D01*
X82260Y29853D01*
X82285Y29842D01*
X82316Y29823D01*
X82349Y29798D01*
X82385Y29765D01*
X82418Y29726D01*
X82451Y29681D01*
Y29679D01*
X82454Y29676D01*
X82465Y29659D01*
X82476Y29632D01*
X82493Y29596D01*
X82507Y29554D01*
X82521Y29504D01*
X82529Y29452D01*
X82532Y29393D01*
Y29390D01*
Y29385D01*
Y29374D01*
X82529Y29360D01*
Y29341D01*
X82526Y29321D01*
X82515Y29274D01*
X82499Y29219D01*
X82476Y29161D01*
X82443Y29103D01*
X82421Y29075D01*
X82399Y29047D01*
X82396Y29044D01*
X82393Y29041D01*
X82385Y29033D01*
X82374Y29025D01*
X82360Y29014D01*
X82343Y29003D01*
X82321Y28989D01*
X82299Y28972D01*
X82271Y28958D01*
X82241Y28945D01*
X82208Y28928D01*
X82172Y28914D01*
X82130Y28903D01*
X82089Y28889D01*
X82042Y28881D01*
X81992Y28873D01*
X81997Y28870D01*
X82008Y28864D01*
X82025Y28853D01*
X82047Y28842D01*
X82097Y28812D01*
X82122Y28792D01*
X82144Y28776D01*
X82149Y28770D01*
X82163Y28756D01*
X82186Y28734D01*
X82213Y28706D01*
X82244Y28668D01*
X82280Y28626D01*
X82316Y28576D01*
X82354Y28521D01*
X82684Y28000D01*
X82368D01*
X82116Y28399D01*
Y28402D01*
X82111Y28407D01*
X82105Y28416D01*
X82097Y28427D01*
X82077Y28457D01*
X82053Y28496D01*
X82022Y28537D01*
X81992Y28582D01*
X81961Y28623D01*
X81933Y28662D01*
X81931Y28665D01*
X81922Y28676D01*
X81909Y28692D01*
X81889Y28712D01*
X81848Y28753D01*
X81826Y28773D01*
X81803Y28789D01*
X81801Y28792D01*
X81795Y28795D01*
X81784Y28800D01*
X81767Y28809D01*
X81751Y28817D01*
X81731Y28826D01*
X81687Y28839D01*
X81684D01*
X81679Y28842D01*
X81668D01*
X81654Y28845D01*
X81634Y28848D01*
X81612D01*
X81582Y28850D01*
X81255D01*
Y28000D01*
X81000D01*
Y29917D01*
X81889D01*
X81911Y29914D01*
D02*
G37*
G36*
X73323Y28676D02*
X73583D01*
Y28460D01*
X73323D01*
Y28000D01*
X73087D01*
Y28460D01*
X72253D01*
Y28676D01*
X73132Y29917D01*
X73323D01*
Y28676D01*
D02*
G37*
G36*
X71411Y29914D02*
X71436D01*
X71494Y29911D01*
X71555Y29903D01*
X71622Y29895D01*
X71683Y29881D01*
X71713Y29873D01*
X71738Y29864D01*
X71741D01*
X71744Y29861D01*
X71760Y29853D01*
X71785Y29842D01*
X71816Y29823D01*
X71849Y29798D01*
X71885Y29765D01*
X71918Y29726D01*
X71952Y29681D01*
Y29679D01*
X71954Y29676D01*
X71965Y29659D01*
X71976Y29632D01*
X71993Y29596D01*
X72007Y29554D01*
X72021Y29504D01*
X72029Y29452D01*
X72032Y29393D01*
Y29390D01*
Y29385D01*
Y29374D01*
X72029Y29360D01*
Y29341D01*
X72026Y29321D01*
X72015Y29274D01*
X71999Y29219D01*
X71976Y29161D01*
X71943Y29103D01*
X71921Y29075D01*
X71899Y29047D01*
X71896Y29044D01*
X71893Y29041D01*
X71885Y29033D01*
X71874Y29025D01*
X71860Y29014D01*
X71843Y29003D01*
X71821Y28989D01*
X71799Y28972D01*
X71771Y28958D01*
X71741Y28945D01*
X71708Y28928D01*
X71672Y28914D01*
X71630Y28903D01*
X71589Y28889D01*
X71542Y28881D01*
X71492Y28873D01*
X71497Y28870D01*
X71508Y28864D01*
X71525Y28853D01*
X71547Y28842D01*
X71597Y28812D01*
X71622Y28792D01*
X71644Y28776D01*
X71649Y28770D01*
X71663Y28756D01*
X71686Y28734D01*
X71713Y28706D01*
X71744Y28668D01*
X71780Y28626D01*
X71816Y28576D01*
X71855Y28521D01*
X72184Y28000D01*
X71868D01*
X71616Y28399D01*
Y28402D01*
X71611Y28407D01*
X71605Y28416D01*
X71597Y28427D01*
X71578Y28457D01*
X71553Y28496D01*
X71522Y28537D01*
X71492Y28582D01*
X71461Y28623D01*
X71434Y28662D01*
X71431Y28665D01*
X71422Y28676D01*
X71409Y28692D01*
X71389Y28712D01*
X71348Y28753D01*
X71325Y28773D01*
X71303Y28789D01*
X71301Y28792D01*
X71295Y28795D01*
X71284Y28800D01*
X71267Y28809D01*
X71251Y28817D01*
X71231Y28826D01*
X71187Y28839D01*
X71184D01*
X71179Y28842D01*
X71168D01*
X71154Y28845D01*
X71134Y28848D01*
X71112D01*
X71082Y28850D01*
X70755D01*
Y28000D01*
X70500D01*
Y29917D01*
X71389D01*
X71411Y29914D01*
D02*
G37*
G36*
X81239Y82796D02*
X81287Y82789D01*
X81347Y82778D01*
X81413Y82759D01*
X81480Y82737D01*
X81547Y82707D01*
X81550D01*
X81554Y82704D01*
X81576Y82692D01*
X81609Y82670D01*
X81647Y82644D01*
X81691Y82607D01*
X81735Y82567D01*
X81780Y82519D01*
X81817Y82463D01*
X81820Y82456D01*
X81831Y82437D01*
X81846Y82404D01*
X81865Y82363D01*
X81883Y82315D01*
X81898Y82260D01*
X81909Y82197D01*
X81913Y82134D01*
Y82126D01*
Y82104D01*
X81909Y82074D01*
X81902Y82034D01*
X81891Y81986D01*
X81872Y81934D01*
X81850Y81882D01*
X81820Y81830D01*
X81817Y81823D01*
X81806Y81808D01*
X81783Y81782D01*
X81754Y81753D01*
X81717Y81719D01*
X81672Y81682D01*
X81621Y81649D01*
X81558Y81616D01*
X81561D01*
X81569Y81612D01*
X81580Y81608D01*
X81595Y81605D01*
X81635Y81590D01*
X81687Y81568D01*
X81746Y81538D01*
X81806Y81501D01*
X81861Y81453D01*
X81913Y81397D01*
X81916Y81390D01*
X81931Y81368D01*
X81954Y81331D01*
X81976Y81283D01*
X81998Y81224D01*
X82020Y81153D01*
X82035Y81072D01*
X82039Y80983D01*
Y80979D01*
Y80968D01*
Y80950D01*
X82035Y80927D01*
X82031Y80898D01*
X82024Y80865D01*
X82016Y80828D01*
X82009Y80787D01*
X81979Y80698D01*
X81957Y80650D01*
X81935Y80606D01*
X81905Y80558D01*
X81872Y80510D01*
X81835Y80461D01*
X81791Y80417D01*
X81787Y80413D01*
X81780Y80406D01*
X81765Y80395D01*
X81746Y80380D01*
X81724Y80361D01*
X81695Y80343D01*
X81661Y80321D01*
X81621Y80302D01*
X81580Y80280D01*
X81532Y80258D01*
X81484Y80239D01*
X81428Y80221D01*
X81369Y80206D01*
X81306Y80195D01*
X81243Y80187D01*
X81173Y80184D01*
X81139D01*
X81117Y80187D01*
X81088Y80191D01*
X81054Y80195D01*
X81017Y80202D01*
X80977Y80210D01*
X80888Y80232D01*
X80796Y80269D01*
X80747Y80291D01*
X80703Y80317D01*
X80659Y80350D01*
X80614Y80384D01*
X80611Y80387D01*
X80603Y80395D01*
X80592Y80406D01*
X80581Y80421D01*
X80562Y80439D01*
X80544Y80465D01*
X80522Y80491D01*
X80500Y80524D01*
X80477Y80561D01*
X80455Y80598D01*
X80414Y80687D01*
X80381Y80791D01*
X80370Y80846D01*
X80362Y80905D01*
X80677Y80946D01*
Y80942D01*
X80681Y80935D01*
X80685Y80920D01*
X80688Y80902D01*
X80692Y80879D01*
X80699Y80853D01*
X80718Y80798D01*
X80744Y80731D01*
X80777Y80669D01*
X80814Y80609D01*
X80858Y80558D01*
X80866Y80554D01*
X80881Y80539D01*
X80910Y80521D01*
X80947Y80502D01*
X80992Y80480D01*
X81047Y80461D01*
X81110Y80447D01*
X81177Y80443D01*
X81199D01*
X81213Y80447D01*
X81254Y80450D01*
X81306Y80461D01*
X81365Y80480D01*
X81428Y80506D01*
X81491Y80543D01*
X81550Y80595D01*
X81558Y80602D01*
X81576Y80624D01*
X81598Y80657D01*
X81628Y80702D01*
X81658Y80757D01*
X81680Y80820D01*
X81698Y80894D01*
X81706Y80976D01*
Y80979D01*
Y80987D01*
Y80998D01*
X81702Y81013D01*
X81698Y81053D01*
X81687Y81101D01*
X81672Y81161D01*
X81647Y81220D01*
X81609Y81279D01*
X81561Y81335D01*
X81554Y81342D01*
X81536Y81357D01*
X81506Y81379D01*
X81465Y81405D01*
X81413Y81431D01*
X81350Y81453D01*
X81280Y81468D01*
X81202Y81475D01*
X81169D01*
X81143Y81472D01*
X81110Y81468D01*
X81073Y81460D01*
X81028Y81453D01*
X80980Y81442D01*
X81017Y81719D01*
X81036D01*
X81051Y81716D01*
X81099D01*
X81139Y81723D01*
X81188Y81730D01*
X81243Y81741D01*
X81306Y81760D01*
X81365Y81786D01*
X81428Y81819D01*
X81432D01*
X81436Y81823D01*
X81454Y81838D01*
X81480Y81864D01*
X81510Y81897D01*
X81539Y81945D01*
X81565Y82000D01*
X81584Y82064D01*
X81591Y82100D01*
Y82141D01*
Y82145D01*
Y82149D01*
Y82171D01*
X81584Y82200D01*
X81576Y82241D01*
X81561Y82285D01*
X81543Y82334D01*
X81513Y82382D01*
X81473Y82426D01*
X81469Y82430D01*
X81450Y82445D01*
X81424Y82463D01*
X81391Y82485D01*
X81347Y82504D01*
X81295Y82522D01*
X81236Y82537D01*
X81169Y82541D01*
X81139D01*
X81106Y82533D01*
X81062Y82526D01*
X81014Y82511D01*
X80966Y82493D01*
X80914Y82463D01*
X80866Y82426D01*
X80862Y82422D01*
X80847Y82404D01*
X80825Y82378D01*
X80799Y82341D01*
X80773Y82293D01*
X80747Y82234D01*
X80725Y82163D01*
X80710Y82082D01*
X80396Y82138D01*
Y82141D01*
X80400Y82152D01*
X80403Y82167D01*
X80407Y82189D01*
X80414Y82215D01*
X80426Y82245D01*
X80448Y82315D01*
X80485Y82397D01*
X80529Y82478D01*
X80585Y82556D01*
X80655Y82626D01*
X80659Y82630D01*
X80666Y82633D01*
X80677Y82641D01*
X80692Y82652D01*
X80710Y82666D01*
X80736Y82681D01*
X80762Y82696D01*
X80796Y82715D01*
X80869Y82744D01*
X80954Y82774D01*
X81054Y82792D01*
X81106Y82800D01*
X81199D01*
X81239Y82796D01*
D02*
G37*
G36*
X79127Y82785D02*
X79160D01*
X79238Y82781D01*
X79319Y82770D01*
X79408Y82759D01*
X79489Y82740D01*
X79530Y82729D01*
X79563Y82718D01*
X79567D01*
X79571Y82715D01*
X79593Y82704D01*
X79626Y82689D01*
X79667Y82663D01*
X79711Y82630D01*
X79760Y82585D01*
X79804Y82533D01*
X79848Y82474D01*
Y82471D01*
X79852Y82467D01*
X79867Y82445D01*
X79882Y82408D01*
X79904Y82359D01*
X79922Y82304D01*
X79941Y82237D01*
X79952Y82167D01*
X79956Y82089D01*
Y82086D01*
Y82078D01*
Y82064D01*
X79952Y82045D01*
Y82019D01*
X79948Y81993D01*
X79933Y81930D01*
X79911Y81856D01*
X79882Y81779D01*
X79837Y81701D01*
X79808Y81664D01*
X79778Y81627D01*
X79774Y81623D01*
X79771Y81619D01*
X79760Y81608D01*
X79745Y81597D01*
X79726Y81582D01*
X79704Y81568D01*
X79674Y81549D01*
X79645Y81527D01*
X79608Y81508D01*
X79567Y81490D01*
X79523Y81468D01*
X79475Y81449D01*
X79419Y81435D01*
X79364Y81416D01*
X79301Y81405D01*
X79234Y81394D01*
X79241Y81390D01*
X79256Y81383D01*
X79278Y81368D01*
X79308Y81353D01*
X79375Y81312D01*
X79408Y81287D01*
X79438Y81264D01*
X79445Y81257D01*
X79463Y81238D01*
X79493Y81209D01*
X79530Y81172D01*
X79571Y81120D01*
X79619Y81064D01*
X79667Y80998D01*
X79719Y80924D01*
X80159Y80228D01*
X79737D01*
X79400Y80761D01*
Y80765D01*
X79393Y80772D01*
X79386Y80783D01*
X79375Y80798D01*
X79349Y80839D01*
X79315Y80891D01*
X79275Y80946D01*
X79234Y81005D01*
X79193Y81061D01*
X79156Y81112D01*
X79153Y81116D01*
X79141Y81131D01*
X79123Y81153D01*
X79097Y81179D01*
X79042Y81235D01*
X79012Y81261D01*
X78982Y81283D01*
X78979Y81287D01*
X78971Y81290D01*
X78957Y81298D01*
X78934Y81309D01*
X78912Y81320D01*
X78886Y81331D01*
X78827Y81349D01*
X78823D01*
X78816Y81353D01*
X78801D01*
X78783Y81357D01*
X78757Y81361D01*
X78727D01*
X78686Y81364D01*
X78250D01*
Y80228D01*
X77909D01*
Y82789D01*
X79097D01*
X79127Y82785D01*
D02*
G37*
G36*
X58188Y73060D02*
X58217Y73057D01*
X58251D01*
X58328Y73053D01*
X58410Y73042D01*
X58499Y73031D01*
X58580Y73012D01*
X58621Y73001D01*
X58654Y72990D01*
X58658D01*
X58661Y72986D01*
X58684Y72975D01*
X58717Y72961D01*
X58758Y72935D01*
X58802Y72901D01*
X58850Y72857D01*
X58894Y72805D01*
X58939Y72746D01*
Y72742D01*
X58943Y72738D01*
X58957Y72716D01*
X58972Y72679D01*
X58994Y72631D01*
X59013Y72576D01*
X59031Y72509D01*
X59042Y72439D01*
X59046Y72361D01*
Y72357D01*
Y72350D01*
Y72335D01*
X59042Y72317D01*
Y72291D01*
X59039Y72265D01*
X59024Y72202D01*
X59002Y72128D01*
X58972Y72050D01*
X58928Y71973D01*
X58898Y71936D01*
X58868Y71899D01*
X58865Y71895D01*
X58861Y71891D01*
X58850Y71880D01*
X58835Y71869D01*
X58817Y71854D01*
X58794Y71839D01*
X58765Y71821D01*
X58735Y71799D01*
X58698Y71780D01*
X58658Y71762D01*
X58613Y71740D01*
X58565Y71721D01*
X58510Y71706D01*
X58454Y71688D01*
X58391Y71677D01*
X58325Y71666D01*
X58332Y71662D01*
X58347Y71654D01*
X58369Y71640D01*
X58399Y71625D01*
X58465Y71584D01*
X58499Y71558D01*
X58528Y71536D01*
X58535Y71529D01*
X58554Y71510D01*
X58584Y71481D01*
X58621Y71443D01*
X58661Y71392D01*
X58709Y71336D01*
X58758Y71270D01*
X58809Y71196D01*
X59250Y70500D01*
X58828D01*
X58491Y71033D01*
Y71036D01*
X58484Y71044D01*
X58476Y71055D01*
X58465Y71070D01*
X58439Y71110D01*
X58406Y71162D01*
X58365Y71218D01*
X58325Y71277D01*
X58284Y71333D01*
X58247Y71384D01*
X58243Y71388D01*
X58232Y71403D01*
X58214Y71425D01*
X58188Y71451D01*
X58132Y71506D01*
X58103Y71532D01*
X58073Y71554D01*
X58069Y71558D01*
X58062Y71562D01*
X58047Y71569D01*
X58025Y71580D01*
X58003Y71592D01*
X57977Y71603D01*
X57918Y71621D01*
X57914D01*
X57907Y71625D01*
X57892D01*
X57873Y71628D01*
X57847Y71632D01*
X57818D01*
X57777Y71636D01*
X57340D01*
Y70500D01*
X57000D01*
Y73060D01*
X58188D01*
D02*
G37*
G36*
X60334Y73071D02*
X60360Y73068D01*
X60389Y73064D01*
X60426Y73060D01*
X60467Y73053D01*
X60508Y73046D01*
X60604Y73020D01*
X60700Y72983D01*
X60748Y72961D01*
X60796Y72935D01*
X60841Y72901D01*
X60881Y72864D01*
X60885Y72861D01*
X60892Y72857D01*
X60900Y72842D01*
X60915Y72827D01*
X60933Y72809D01*
X60952Y72783D01*
X60970Y72757D01*
X60992Y72724D01*
X61029Y72653D01*
X61066Y72565D01*
X61081Y72520D01*
X61089Y72468D01*
X61096Y72417D01*
X61100Y72361D01*
Y72354D01*
Y72335D01*
X61096Y72306D01*
X61092Y72265D01*
X61085Y72220D01*
X61070Y72169D01*
X61055Y72113D01*
X61033Y72058D01*
X61029Y72050D01*
X61022Y72032D01*
X61007Y72002D01*
X60985Y71961D01*
X60955Y71917D01*
X60918Y71862D01*
X60874Y71806D01*
X60822Y71743D01*
X60815Y71736D01*
X60796Y71714D01*
X60778Y71695D01*
X60759Y71677D01*
X60737Y71654D01*
X60707Y71625D01*
X60678Y71595D01*
X60641Y71562D01*
X60604Y71525D01*
X60559Y71484D01*
X60511Y71443D01*
X60460Y71395D01*
X60400Y71347D01*
X60341Y71295D01*
X60337Y71292D01*
X60330Y71284D01*
X60315Y71273D01*
X60297Y71258D01*
X60274Y71236D01*
X60249Y71214D01*
X60189Y71166D01*
X60127Y71110D01*
X60067Y71055D01*
X60015Y71007D01*
X59993Y70988D01*
X59975Y70970D01*
X59971Y70966D01*
X59960Y70955D01*
X59945Y70940D01*
X59927Y70918D01*
X59908Y70892D01*
X59886Y70866D01*
X59842Y70803D01*
X61103D01*
Y70500D01*
X59405D01*
Y70504D01*
Y70518D01*
Y70541D01*
X59409Y70570D01*
X59412Y70604D01*
X59420Y70641D01*
X59427Y70678D01*
X59442Y70718D01*
Y70722D01*
X59446Y70726D01*
X59453Y70748D01*
X59468Y70781D01*
X59490Y70826D01*
X59520Y70877D01*
X59557Y70937D01*
X59597Y70996D01*
X59649Y71059D01*
Y71062D01*
X59657Y71066D01*
X59675Y71088D01*
X59708Y71122D01*
X59756Y71170D01*
X59812Y71225D01*
X59882Y71292D01*
X59967Y71366D01*
X60060Y71443D01*
X60064Y71447D01*
X60078Y71458D01*
X60101Y71477D01*
X60127Y71499D01*
X60160Y71529D01*
X60201Y71562D01*
X60241Y71599D01*
X60289Y71640D01*
X60382Y71728D01*
X60474Y71817D01*
X60519Y71862D01*
X60559Y71906D01*
X60596Y71947D01*
X60626Y71987D01*
Y71991D01*
X60633Y71995D01*
X60641Y72006D01*
X60648Y72021D01*
X60674Y72061D01*
X60704Y72110D01*
X60730Y72169D01*
X60755Y72232D01*
X60770Y72302D01*
X60778Y72369D01*
Y72372D01*
Y72376D01*
X60774Y72398D01*
X60770Y72435D01*
X60759Y72476D01*
X60744Y72528D01*
X60719Y72579D01*
X60685Y72631D01*
X60641Y72683D01*
X60633Y72690D01*
X60615Y72705D01*
X60589Y72724D01*
X60548Y72750D01*
X60496Y72772D01*
X60437Y72794D01*
X60367Y72809D01*
X60289Y72812D01*
X60267D01*
X60252Y72809D01*
X60208Y72805D01*
X60156Y72794D01*
X60101Y72779D01*
X60038Y72753D01*
X59978Y72720D01*
X59923Y72676D01*
X59916Y72668D01*
X59901Y72650D01*
X59879Y72620D01*
X59856Y72576D01*
X59830Y72524D01*
X59808Y72457D01*
X59794Y72383D01*
X59786Y72298D01*
X59464Y72332D01*
Y72335D01*
X59468Y72346D01*
Y72365D01*
X59472Y72391D01*
X59479Y72420D01*
X59486Y72454D01*
X59497Y72494D01*
X59509Y72535D01*
X59538Y72624D01*
X59583Y72713D01*
X59609Y72757D01*
X59642Y72801D01*
X59675Y72842D01*
X59712Y72879D01*
X59716Y72883D01*
X59723Y72887D01*
X59734Y72898D01*
X59753Y72909D01*
X59775Y72923D01*
X59801Y72938D01*
X59830Y72957D01*
X59868Y72975D01*
X59908Y72994D01*
X59953Y73012D01*
X60001Y73027D01*
X60053Y73042D01*
X60108Y73053D01*
X60167Y73064D01*
X60230Y73068D01*
X60297Y73071D01*
X60334D01*
D02*
G37*
G36*
X39037Y62500D02*
X38644D01*
Y64999D01*
X38640Y64995D01*
X38616Y64976D01*
X38589Y64949D01*
X38543Y64916D01*
X38492Y64875D01*
X38427Y64828D01*
X38353Y64778D01*
X38270Y64727D01*
X38265D01*
X38261Y64722D01*
X38233Y64704D01*
X38187Y64681D01*
X38131Y64653D01*
X38067Y64621D01*
X37997Y64588D01*
X37928Y64556D01*
X37859Y64528D01*
Y64907D01*
X37863D01*
X37873Y64916D01*
X37891Y64921D01*
X37914Y64935D01*
X37942Y64949D01*
X37974Y64967D01*
X38053Y65013D01*
X38145Y65064D01*
X38238Y65129D01*
X38335Y65203D01*
X38432Y65281D01*
X38436Y65286D01*
X38441Y65290D01*
X38455Y65304D01*
X38473Y65318D01*
X38515Y65364D01*
X38570Y65420D01*
X38626Y65484D01*
X38686Y65558D01*
X38737Y65632D01*
X38783Y65711D01*
X39037D01*
Y62500D01*
D02*
G37*
G36*
X36020Y65692D02*
X36062D01*
X36159Y65688D01*
X36260Y65674D01*
X36371Y65660D01*
X36473Y65637D01*
X36524Y65623D01*
X36565Y65609D01*
X36570D01*
X36574Y65605D01*
X36602Y65591D01*
X36644Y65572D01*
X36694Y65540D01*
X36750Y65498D01*
X36810Y65443D01*
X36865Y65378D01*
X36921Y65304D01*
Y65300D01*
X36926Y65295D01*
X36944Y65267D01*
X36963Y65221D01*
X36990Y65161D01*
X37013Y65092D01*
X37036Y65009D01*
X37050Y64921D01*
X37055Y64824D01*
Y64819D01*
Y64810D01*
Y64792D01*
X37050Y64768D01*
Y64736D01*
X37046Y64704D01*
X37027Y64625D01*
X36999Y64533D01*
X36963Y64436D01*
X36907Y64339D01*
X36870Y64293D01*
X36833Y64246D01*
X36829Y64242D01*
X36824Y64237D01*
X36810Y64223D01*
X36792Y64209D01*
X36768Y64191D01*
X36741Y64172D01*
X36704Y64149D01*
X36667Y64122D01*
X36621Y64099D01*
X36570Y64075D01*
X36514Y64048D01*
X36454Y64025D01*
X36385Y64006D01*
X36316Y63983D01*
X36237Y63969D01*
X36154Y63955D01*
X36163Y63951D01*
X36182Y63941D01*
X36209Y63923D01*
X36246Y63905D01*
X36329Y63854D01*
X36371Y63821D01*
X36408Y63794D01*
X36417Y63784D01*
X36440Y63761D01*
X36477Y63724D01*
X36524Y63678D01*
X36574Y63613D01*
X36634Y63544D01*
X36694Y63461D01*
X36759Y63369D01*
X37309Y62500D01*
X36782D01*
X36362Y63165D01*
Y63170D01*
X36353Y63179D01*
X36343Y63193D01*
X36329Y63212D01*
X36297Y63262D01*
X36256Y63327D01*
X36205Y63396D01*
X36154Y63470D01*
X36103Y63539D01*
X36057Y63604D01*
X36052Y63609D01*
X36039Y63627D01*
X36015Y63655D01*
X35983Y63687D01*
X35914Y63757D01*
X35877Y63789D01*
X35840Y63817D01*
X35835Y63821D01*
X35826Y63826D01*
X35807Y63835D01*
X35780Y63849D01*
X35752Y63863D01*
X35720Y63877D01*
X35646Y63900D01*
X35641D01*
X35632Y63905D01*
X35613D01*
X35590Y63909D01*
X35558Y63914D01*
X35521D01*
X35470Y63918D01*
X34925D01*
Y62500D01*
X34500D01*
Y65697D01*
X35983D01*
X36020Y65692D01*
D02*
G37*
G36*
X16821Y81000D02*
X16428D01*
Y83499D01*
X16423Y83495D01*
X16400Y83476D01*
X16373Y83449D01*
X16326Y83416D01*
X16276Y83375D01*
X16211Y83328D01*
X16137Y83278D01*
X16054Y83227D01*
X16049D01*
X16045Y83222D01*
X16017Y83204D01*
X15971Y83181D01*
X15915Y83153D01*
X15850Y83121D01*
X15781Y83088D01*
X15712Y83056D01*
X15643Y83028D01*
Y83407D01*
X15647D01*
X15656Y83416D01*
X15675Y83421D01*
X15698Y83435D01*
X15726Y83449D01*
X15758Y83467D01*
X15837Y83513D01*
X15929Y83564D01*
X16022Y83629D01*
X16118Y83703D01*
X16216Y83781D01*
X16220Y83786D01*
X16225Y83790D01*
X16239Y83804D01*
X16257Y83818D01*
X16299Y83864D01*
X16354Y83920D01*
X16410Y83985D01*
X16470Y84058D01*
X16520Y84132D01*
X16567Y84211D01*
X16821D01*
Y81000D01*
D02*
G37*
G36*
X13425Y81379D02*
X15000D01*
Y81000D01*
X13000D01*
Y84197D01*
X13425D01*
Y81379D01*
D02*
G37*
G36*
X21542Y16500D02*
X21149D01*
Y18999D01*
X21144Y18995D01*
X21121Y18976D01*
X21093Y18949D01*
X21047Y18916D01*
X20996Y18875D01*
X20932Y18828D01*
X20858Y18778D01*
X20775Y18727D01*
X20770D01*
X20765Y18722D01*
X20738Y18704D01*
X20691Y18681D01*
X20636Y18653D01*
X20571Y18621D01*
X20502Y18588D01*
X20433Y18556D01*
X20363Y18528D01*
Y18907D01*
X20368D01*
X20377Y18916D01*
X20396Y18921D01*
X20419Y18935D01*
X20447Y18949D01*
X20479Y18967D01*
X20557Y19013D01*
X20650Y19064D01*
X20742Y19129D01*
X20839Y19203D01*
X20936Y19281D01*
X20941Y19286D01*
X20945Y19290D01*
X20959Y19304D01*
X20978Y19318D01*
X21019Y19364D01*
X21075Y19420D01*
X21130Y19485D01*
X21190Y19558D01*
X21241Y19632D01*
X21287Y19711D01*
X21542D01*
Y16500D01*
D02*
G37*
G36*
X18312Y19692D02*
X18405Y19688D01*
X18497Y19679D01*
X18589Y19665D01*
X18668Y19651D01*
X18672D01*
X18682Y19646D01*
X18696D01*
X18714Y19637D01*
X18765Y19623D01*
X18830Y19600D01*
X18903Y19568D01*
X18982Y19526D01*
X19060Y19480D01*
X19134Y19420D01*
X19139Y19415D01*
X19144Y19411D01*
X19158Y19397D01*
X19176Y19383D01*
X19222Y19337D01*
X19278Y19272D01*
X19338Y19194D01*
X19402Y19101D01*
X19463Y18995D01*
X19513Y18875D01*
Y18870D01*
X19518Y18861D01*
X19527Y18842D01*
X19532Y18815D01*
X19546Y18782D01*
X19555Y18745D01*
X19564Y18704D01*
X19578Y18653D01*
X19592Y18602D01*
X19601Y18542D01*
X19624Y18413D01*
X19638Y18270D01*
X19643Y18112D01*
Y18108D01*
Y18099D01*
Y18075D01*
Y18052D01*
X19638Y18020D01*
Y17983D01*
X19633Y17895D01*
X19620Y17794D01*
X19606Y17687D01*
X19583Y17576D01*
X19555Y17466D01*
Y17461D01*
X19550Y17452D01*
X19546Y17438D01*
X19541Y17419D01*
X19523Y17369D01*
X19495Y17304D01*
X19467Y17230D01*
X19430Y17156D01*
X19384Y17077D01*
X19338Y17004D01*
X19333Y16994D01*
X19315Y16971D01*
X19287Y16939D01*
X19250Y16897D01*
X19208Y16851D01*
X19158Y16805D01*
X19107Y16754D01*
X19047Y16713D01*
X19037Y16708D01*
X19019Y16694D01*
X18987Y16676D01*
X18940Y16653D01*
X18885Y16625D01*
X18820Y16602D01*
X18746Y16574D01*
X18663Y16551D01*
X18654D01*
X18640Y16546D01*
X18626Y16542D01*
X18580Y16537D01*
X18515Y16528D01*
X18441Y16519D01*
X18354Y16509D01*
X18257Y16505D01*
X18150Y16500D01*
X17000D01*
Y19697D01*
X18229D01*
X18312Y19692D01*
D02*
G37*
G36*
X97200Y65206D02*
X97237Y65202D01*
X97283Y65197D01*
X97334Y65188D01*
X97384Y65179D01*
X97505Y65146D01*
X97625Y65100D01*
X97685Y65072D01*
X97745Y65040D01*
X97800Y64998D01*
X97851Y64952D01*
X97856Y64948D01*
X97865Y64943D01*
X97874Y64925D01*
X97893Y64906D01*
X97916Y64883D01*
X97939Y64850D01*
X97962Y64818D01*
X97990Y64777D01*
X98036Y64689D01*
X98082Y64578D01*
X98101Y64522D01*
X98110Y64458D01*
X98119Y64393D01*
X98124Y64324D01*
Y64315D01*
Y64292D01*
X98119Y64255D01*
X98114Y64204D01*
X98105Y64148D01*
X98087Y64084D01*
X98068Y64014D01*
X98040Y63945D01*
X98036Y63936D01*
X98027Y63913D01*
X98008Y63876D01*
X97980Y63825D01*
X97943Y63770D01*
X97897Y63700D01*
X97842Y63631D01*
X97777Y63552D01*
X97768Y63543D01*
X97745Y63515D01*
X97722Y63492D01*
X97698Y63469D01*
X97671Y63441D01*
X97634Y63405D01*
X97597Y63367D01*
X97551Y63326D01*
X97505Y63280D01*
X97449Y63229D01*
X97389Y63178D01*
X97324Y63118D01*
X97250Y63058D01*
X97176Y62993D01*
X97172Y62989D01*
X97163Y62979D01*
X97144Y62966D01*
X97121Y62947D01*
X97093Y62919D01*
X97061Y62892D01*
X96987Y62832D01*
X96908Y62762D01*
X96835Y62693D01*
X96770Y62633D01*
X96742Y62610D01*
X96719Y62587D01*
X96715Y62582D01*
X96701Y62568D01*
X96682Y62550D01*
X96659Y62522D01*
X96636Y62490D01*
X96608Y62457D01*
X96553Y62379D01*
X98128D01*
Y62000D01*
X96008D01*
Y62005D01*
Y62023D01*
Y62051D01*
X96012Y62088D01*
X96017Y62129D01*
X96026Y62176D01*
X96035Y62222D01*
X96054Y62273D01*
Y62277D01*
X96058Y62282D01*
X96068Y62309D01*
X96086Y62351D01*
X96114Y62407D01*
X96151Y62471D01*
X96197Y62545D01*
X96248Y62619D01*
X96312Y62698D01*
Y62702D01*
X96322Y62707D01*
X96345Y62735D01*
X96386Y62776D01*
X96447Y62836D01*
X96516Y62906D01*
X96604Y62989D01*
X96710Y63081D01*
X96825Y63178D01*
X96830Y63183D01*
X96848Y63197D01*
X96876Y63220D01*
X96908Y63247D01*
X96950Y63284D01*
X97001Y63326D01*
X97052Y63372D01*
X97112Y63423D01*
X97227Y63534D01*
X97343Y63645D01*
X97398Y63700D01*
X97449Y63756D01*
X97495Y63806D01*
X97532Y63857D01*
Y63862D01*
X97541Y63867D01*
X97551Y63880D01*
X97560Y63899D01*
X97592Y63950D01*
X97629Y64010D01*
X97662Y64084D01*
X97694Y64162D01*
X97712Y64250D01*
X97722Y64333D01*
Y64338D01*
Y64342D01*
X97717Y64370D01*
X97712Y64416D01*
X97698Y64467D01*
X97680Y64532D01*
X97648Y64596D01*
X97606Y64661D01*
X97551Y64726D01*
X97541Y64735D01*
X97518Y64754D01*
X97486Y64777D01*
X97435Y64809D01*
X97370Y64837D01*
X97297Y64864D01*
X97209Y64883D01*
X97112Y64887D01*
X97084D01*
X97066Y64883D01*
X97010Y64878D01*
X96946Y64864D01*
X96876Y64846D01*
X96798Y64814D01*
X96724Y64772D01*
X96654Y64717D01*
X96645Y64707D01*
X96627Y64684D01*
X96599Y64647D01*
X96571Y64592D01*
X96539Y64527D01*
X96511Y64444D01*
X96493Y64352D01*
X96483Y64245D01*
X96082Y64287D01*
Y64292D01*
X96086Y64305D01*
Y64328D01*
X96091Y64361D01*
X96100Y64398D01*
X96109Y64439D01*
X96123Y64490D01*
X96137Y64541D01*
X96174Y64652D01*
X96229Y64763D01*
X96262Y64818D01*
X96303Y64874D01*
X96345Y64925D01*
X96391Y64971D01*
X96396Y64975D01*
X96405Y64980D01*
X96419Y64994D01*
X96442Y65008D01*
X96470Y65026D01*
X96502Y65045D01*
X96539Y65068D01*
X96585Y65091D01*
X96636Y65114D01*
X96691Y65137D01*
X96751Y65156D01*
X96816Y65174D01*
X96885Y65188D01*
X96959Y65202D01*
X97038Y65206D01*
X97121Y65211D01*
X97167D01*
X97200Y65206D01*
D02*
G37*
G36*
X94312Y65192D02*
X94405Y65188D01*
X94497Y65179D01*
X94589Y65165D01*
X94668Y65151D01*
X94672D01*
X94682Y65146D01*
X94696D01*
X94714Y65137D01*
X94765Y65123D01*
X94829Y65100D01*
X94903Y65068D01*
X94982Y65026D01*
X95060Y64980D01*
X95134Y64920D01*
X95139Y64915D01*
X95144Y64911D01*
X95157Y64897D01*
X95176Y64883D01*
X95222Y64837D01*
X95278Y64772D01*
X95338Y64693D01*
X95402Y64601D01*
X95463Y64495D01*
X95513Y64375D01*
Y64370D01*
X95518Y64361D01*
X95527Y64342D01*
X95532Y64315D01*
X95546Y64282D01*
X95555Y64245D01*
X95564Y64204D01*
X95578Y64153D01*
X95592Y64102D01*
X95601Y64042D01*
X95624Y63913D01*
X95638Y63770D01*
X95643Y63612D01*
Y63608D01*
Y63599D01*
Y63575D01*
Y63552D01*
X95638Y63520D01*
Y63483D01*
X95633Y63395D01*
X95619Y63294D01*
X95606Y63187D01*
X95583Y63077D01*
X95555Y62966D01*
Y62961D01*
X95550Y62952D01*
X95546Y62938D01*
X95541Y62919D01*
X95522Y62869D01*
X95495Y62804D01*
X95467Y62730D01*
X95430Y62656D01*
X95384Y62577D01*
X95338Y62504D01*
X95333Y62494D01*
X95315Y62471D01*
X95287Y62439D01*
X95250Y62397D01*
X95208Y62351D01*
X95157Y62305D01*
X95107Y62254D01*
X95047Y62213D01*
X95037Y62208D01*
X95019Y62194D01*
X94987Y62176D01*
X94940Y62152D01*
X94885Y62125D01*
X94820Y62102D01*
X94746Y62074D01*
X94663Y62051D01*
X94654D01*
X94640Y62046D01*
X94626Y62042D01*
X94580Y62037D01*
X94515Y62028D01*
X94441Y62019D01*
X94354Y62009D01*
X94257Y62005D01*
X94150Y62000D01*
X93000D01*
Y65197D01*
X94229D01*
X94312Y65192D01*
D02*
G37*
G36*
X67743Y83105D02*
X67769Y83101D01*
X67802Y83097D01*
X67843Y83094D01*
X67884Y83090D01*
X67932Y83079D01*
X68032Y83057D01*
X68143Y83023D01*
X68198Y83001D01*
X68250Y82975D01*
X68302Y82942D01*
X68354Y82909D01*
X68357Y82905D01*
X68365Y82901D01*
X68380Y82890D01*
X68398Y82872D01*
X68417Y82853D01*
X68442Y82827D01*
X68468Y82798D01*
X68498Y82768D01*
X68528Y82731D01*
X68557Y82687D01*
X68590Y82642D01*
X68620Y82594D01*
X68646Y82539D01*
X68676Y82483D01*
X68698Y82424D01*
X68720Y82357D01*
X68387Y82280D01*
Y82283D01*
X68383Y82291D01*
X68376Y82306D01*
X68369Y82324D01*
X68361Y82346D01*
X68350Y82376D01*
X68320Y82435D01*
X68283Y82502D01*
X68239Y82568D01*
X68183Y82631D01*
X68124Y82687D01*
X68117Y82694D01*
X68095Y82709D01*
X68058Y82727D01*
X68010Y82753D01*
X67947Y82775D01*
X67876Y82798D01*
X67791Y82812D01*
X67699Y82816D01*
X67669D01*
X67651Y82812D01*
X67625D01*
X67595Y82809D01*
X67525Y82798D01*
X67447Y82783D01*
X67366Y82757D01*
X67281Y82720D01*
X67203Y82672D01*
X67199D01*
X67196Y82665D01*
X67170Y82646D01*
X67136Y82616D01*
X67096Y82572D01*
X67048Y82516D01*
X67003Y82454D01*
X66962Y82376D01*
X66926Y82291D01*
Y82287D01*
X66922Y82280D01*
X66918Y82269D01*
X66914Y82250D01*
X66907Y82228D01*
X66900Y82202D01*
X66888Y82139D01*
X66874Y82065D01*
X66859Y81984D01*
X66852Y81895D01*
X66848Y81799D01*
Y81795D01*
Y81784D01*
Y81765D01*
Y81743D01*
X66852Y81717D01*
Y81684D01*
X66855Y81647D01*
X66859Y81606D01*
X66870Y81517D01*
X66888Y81421D01*
X66911Y81325D01*
X66940Y81229D01*
Y81225D01*
X66944Y81218D01*
X66951Y81207D01*
X66959Y81188D01*
X66981Y81144D01*
X67014Y81092D01*
X67055Y81033D01*
X67107Y80970D01*
X67166Y80914D01*
X67236Y80863D01*
X67240D01*
X67247Y80859D01*
X67259Y80852D01*
X67273Y80844D01*
X67292Y80837D01*
X67314Y80826D01*
X67366Y80803D01*
X67432Y80781D01*
X67506Y80763D01*
X67588Y80748D01*
X67673Y80744D01*
X67699D01*
X67721Y80748D01*
X67747D01*
X67773Y80752D01*
X67839Y80766D01*
X67917Y80785D01*
X67995Y80814D01*
X68076Y80855D01*
X68117Y80877D01*
X68154Y80907D01*
X68158Y80911D01*
X68161Y80914D01*
X68172Y80926D01*
X68187Y80937D01*
X68202Y80955D01*
X68221Y80977D01*
X68243Y80999D01*
X68261Y81029D01*
X68283Y81062D01*
X68309Y81099D01*
X68331Y81136D01*
X68354Y81181D01*
X68372Y81229D01*
X68391Y81281D01*
X68409Y81336D01*
X68424Y81395D01*
X68764Y81310D01*
Y81307D01*
X68761Y81292D01*
X68753Y81270D01*
X68742Y81240D01*
X68731Y81207D01*
X68716Y81166D01*
X68698Y81122D01*
X68676Y81073D01*
X68624Y80970D01*
X68557Y80866D01*
X68516Y80814D01*
X68476Y80763D01*
X68431Y80718D01*
X68380Y80674D01*
X68376Y80670D01*
X68369Y80663D01*
X68350Y80655D01*
X68331Y80641D01*
X68302Y80622D01*
X68272Y80604D01*
X68232Y80585D01*
X68191Y80567D01*
X68143Y80544D01*
X68091Y80526D01*
X68036Y80507D01*
X67976Y80489D01*
X67913Y80474D01*
X67847Y80467D01*
X67777Y80459D01*
X67703Y80456D01*
X67662D01*
X67632Y80459D01*
X67599D01*
X67558Y80463D01*
X67514Y80470D01*
X67462Y80478D01*
X67355Y80496D01*
X67244Y80526D01*
X67133Y80567D01*
X67081Y80593D01*
X67029Y80622D01*
X67025Y80626D01*
X67018Y80629D01*
X67003Y80641D01*
X66988Y80655D01*
X66966Y80670D01*
X66940Y80692D01*
X66911Y80718D01*
X66881Y80748D01*
X66852Y80781D01*
X66818Y80814D01*
X66752Y80900D01*
X66689Y80999D01*
X66633Y81111D01*
Y81114D01*
X66626Y81125D01*
X66622Y81144D01*
X66611Y81166D01*
X66604Y81196D01*
X66593Y81233D01*
X66578Y81273D01*
X66567Y81318D01*
X66556Y81366D01*
X66541Y81421D01*
X66522Y81536D01*
X66507Y81665D01*
X66500Y81799D01*
Y81802D01*
Y81817D01*
Y81839D01*
X66504Y81865D01*
Y81902D01*
X66507Y81939D01*
X66511Y81987D01*
X66518Y82035D01*
X66537Y82143D01*
X66563Y82261D01*
X66600Y82380D01*
X66652Y82494D01*
X66655Y82498D01*
X66659Y82509D01*
X66667Y82524D01*
X66681Y82542D01*
X66696Y82568D01*
X66715Y82598D01*
X66763Y82665D01*
X66826Y82739D01*
X66900Y82812D01*
X66985Y82886D01*
X67085Y82949D01*
X67088Y82953D01*
X67099Y82957D01*
X67114Y82964D01*
X67133Y82975D01*
X67162Y82986D01*
X67192Y82998D01*
X67229Y83012D01*
X67270Y83027D01*
X67314Y83042D01*
X67362Y83057D01*
X67466Y83079D01*
X67584Y83097D01*
X67706Y83105D01*
X67743D01*
D02*
G37*
G36*
X70374Y83060D02*
Y81403D01*
X70722D01*
Y81114D01*
X70374D01*
Y80500D01*
X70059D01*
Y81114D01*
X68946D01*
Y81403D01*
X70119Y83060D01*
X70374D01*
D02*
G37*
G36*
X45769Y42601D02*
X45802Y42597D01*
X45843Y42594D01*
X45884Y42590D01*
X45932Y42579D01*
X46032Y42557D01*
X46143Y42523D01*
X46198Y42501D01*
X46250Y42475D01*
X46302Y42442D01*
X46354Y42409D01*
X46357Y42405D01*
X46365Y42401D01*
X46380Y42390D01*
X46398Y42372D01*
X46417Y42353D01*
X46442Y42327D01*
X46468Y42298D01*
X46498Y42268D01*
X46528Y42231D01*
X46557Y42187D01*
X46591Y42142D01*
X46620Y42094D01*
X46646Y42039D01*
X46676Y41983D01*
X46698Y41924D01*
X46720Y41857D01*
X46387Y41780D01*
Y41783D01*
X46383Y41791D01*
X46376Y41806D01*
X46369Y41824D01*
X46361Y41846D01*
X46350Y41876D01*
X46320Y41935D01*
X46283Y42002D01*
X46239Y42068D01*
X46183Y42131D01*
X46124Y42187D01*
X46117Y42194D01*
X46095Y42209D01*
X46058Y42227D01*
X46010Y42253D01*
X45947Y42276D01*
X45876Y42298D01*
X45791Y42312D01*
X45699Y42316D01*
X45669D01*
X45651Y42312D01*
X45625D01*
X45595Y42309D01*
X45525Y42298D01*
X45447Y42283D01*
X45366Y42257D01*
X45281Y42220D01*
X45203Y42172D01*
X45199D01*
X45196Y42164D01*
X45170Y42146D01*
X45136Y42116D01*
X45096Y42072D01*
X45048Y42017D01*
X45003Y41954D01*
X44962Y41876D01*
X44925Y41791D01*
Y41787D01*
X44922Y41780D01*
X44918Y41769D01*
X44914Y41750D01*
X44907Y41728D01*
X44900Y41702D01*
X44888Y41639D01*
X44874Y41565D01*
X44859Y41484D01*
X44851Y41395D01*
X44848Y41299D01*
Y41295D01*
Y41284D01*
Y41265D01*
Y41243D01*
X44851Y41217D01*
Y41184D01*
X44855Y41147D01*
X44859Y41106D01*
X44870Y41017D01*
X44888Y40921D01*
X44911Y40825D01*
X44940Y40729D01*
Y40725D01*
X44944Y40718D01*
X44951Y40707D01*
X44959Y40688D01*
X44981Y40644D01*
X45014Y40592D01*
X45055Y40533D01*
X45107Y40470D01*
X45166Y40414D01*
X45236Y40363D01*
X45240D01*
X45247Y40359D01*
X45259Y40352D01*
X45273Y40344D01*
X45292Y40337D01*
X45314Y40326D01*
X45366Y40303D01*
X45432Y40281D01*
X45506Y40263D01*
X45588Y40248D01*
X45673Y40244D01*
X45699D01*
X45721Y40248D01*
X45747D01*
X45773Y40252D01*
X45839Y40266D01*
X45917Y40285D01*
X45995Y40314D01*
X46076Y40355D01*
X46117Y40377D01*
X46154Y40407D01*
X46158Y40411D01*
X46161Y40414D01*
X46172Y40426D01*
X46187Y40437D01*
X46202Y40455D01*
X46220Y40477D01*
X46243Y40499D01*
X46261Y40529D01*
X46283Y40562D01*
X46309Y40599D01*
X46332Y40636D01*
X46354Y40681D01*
X46372Y40729D01*
X46391Y40781D01*
X46409Y40836D01*
X46424Y40895D01*
X46764Y40810D01*
Y40807D01*
X46761Y40792D01*
X46753Y40770D01*
X46742Y40740D01*
X46731Y40707D01*
X46716Y40666D01*
X46698Y40622D01*
X46676Y40573D01*
X46624Y40470D01*
X46557Y40366D01*
X46516Y40314D01*
X46476Y40263D01*
X46431Y40218D01*
X46380Y40174D01*
X46376Y40170D01*
X46369Y40163D01*
X46350Y40155D01*
X46332Y40141D01*
X46302Y40122D01*
X46272Y40104D01*
X46232Y40085D01*
X46191Y40067D01*
X46143Y40044D01*
X46091Y40026D01*
X46036Y40007D01*
X45976Y39989D01*
X45913Y39974D01*
X45847Y39967D01*
X45777Y39959D01*
X45702Y39956D01*
X45662D01*
X45632Y39959D01*
X45599D01*
X45558Y39963D01*
X45514Y39970D01*
X45462Y39978D01*
X45355Y39996D01*
X45244Y40026D01*
X45133Y40067D01*
X45081Y40093D01*
X45029Y40122D01*
X45025Y40126D01*
X45018Y40130D01*
X45003Y40141D01*
X44988Y40155D01*
X44966Y40170D01*
X44940Y40192D01*
X44911Y40218D01*
X44881Y40248D01*
X44851Y40281D01*
X44818Y40314D01*
X44752Y40400D01*
X44689Y40499D01*
X44633Y40611D01*
Y40614D01*
X44626Y40625D01*
X44622Y40644D01*
X44611Y40666D01*
X44604Y40696D01*
X44592Y40733D01*
X44578Y40773D01*
X44567Y40818D01*
X44556Y40866D01*
X44541Y40921D01*
X44522Y41036D01*
X44507Y41166D01*
X44500Y41299D01*
Y41302D01*
Y41317D01*
Y41339D01*
X44504Y41365D01*
Y41402D01*
X44507Y41439D01*
X44511Y41487D01*
X44519Y41535D01*
X44537Y41643D01*
X44563Y41761D01*
X44600Y41880D01*
X44652Y41994D01*
X44655Y41998D01*
X44659Y42009D01*
X44666Y42024D01*
X44681Y42042D01*
X44696Y42068D01*
X44715Y42098D01*
X44763Y42164D01*
X44826Y42239D01*
X44900Y42312D01*
X44985Y42386D01*
X45085Y42449D01*
X45088Y42453D01*
X45099Y42457D01*
X45114Y42464D01*
X45133Y42475D01*
X45162Y42486D01*
X45192Y42498D01*
X45229Y42512D01*
X45270Y42527D01*
X45314Y42542D01*
X45362Y42557D01*
X45466Y42579D01*
X45584Y42597D01*
X45706Y42605D01*
X45743D01*
X45769Y42601D01*
D02*
G37*
G36*
X47934Y42568D02*
X47982Y42560D01*
X48041Y42549D01*
X48107Y42531D01*
X48174Y42509D01*
X48241Y42479D01*
X48244D01*
X48248Y42475D01*
X48270Y42464D01*
X48304Y42442D01*
X48341Y42416D01*
X48385Y42379D01*
X48429Y42338D01*
X48474Y42290D01*
X48511Y42235D01*
X48515Y42227D01*
X48526Y42209D01*
X48540Y42176D01*
X48559Y42135D01*
X48577Y42087D01*
X48592Y42031D01*
X48603Y41968D01*
X48607Y41906D01*
Y41898D01*
Y41876D01*
X48603Y41846D01*
X48596Y41806D01*
X48585Y41758D01*
X48566Y41706D01*
X48544Y41654D01*
X48515Y41602D01*
X48511Y41595D01*
X48500Y41580D01*
X48478Y41554D01*
X48448Y41524D01*
X48411Y41491D01*
X48366Y41454D01*
X48315Y41421D01*
X48252Y41388D01*
X48256D01*
X48263Y41384D01*
X48274Y41380D01*
X48289Y41376D01*
X48329Y41362D01*
X48381Y41339D01*
X48441Y41310D01*
X48500Y41273D01*
X48555Y41225D01*
X48607Y41169D01*
X48611Y41162D01*
X48625Y41140D01*
X48648Y41103D01*
X48670Y41054D01*
X48692Y40995D01*
X48714Y40925D01*
X48729Y40844D01*
X48733Y40755D01*
Y40751D01*
Y40740D01*
Y40721D01*
X48729Y40699D01*
X48725Y40670D01*
X48718Y40636D01*
X48711Y40599D01*
X48703Y40559D01*
X48674Y40470D01*
X48651Y40422D01*
X48629Y40377D01*
X48600Y40329D01*
X48566Y40281D01*
X48529Y40233D01*
X48485Y40189D01*
X48481Y40185D01*
X48474Y40178D01*
X48459Y40167D01*
X48441Y40152D01*
X48418Y40133D01*
X48389Y40115D01*
X48355Y40093D01*
X48315Y40074D01*
X48274Y40052D01*
X48226Y40030D01*
X48178Y40011D01*
X48122Y39993D01*
X48063Y39978D01*
X48000Y39967D01*
X47937Y39959D01*
X47867Y39956D01*
X47834D01*
X47811Y39959D01*
X47782Y39963D01*
X47749Y39967D01*
X47712Y39974D01*
X47671Y39981D01*
X47582Y40004D01*
X47490Y40041D01*
X47442Y40063D01*
X47397Y40089D01*
X47353Y40122D01*
X47308Y40155D01*
X47305Y40159D01*
X47297Y40167D01*
X47286Y40178D01*
X47275Y40192D01*
X47256Y40211D01*
X47238Y40237D01*
X47216Y40263D01*
X47194Y40296D01*
X47171Y40333D01*
X47149Y40370D01*
X47109Y40459D01*
X47075Y40562D01*
X47064Y40618D01*
X47057Y40677D01*
X47371Y40718D01*
Y40714D01*
X47375Y40707D01*
X47379Y40692D01*
X47382Y40673D01*
X47386Y40651D01*
X47393Y40625D01*
X47412Y40570D01*
X47438Y40503D01*
X47471Y40440D01*
X47508Y40381D01*
X47552Y40329D01*
X47560Y40326D01*
X47575Y40311D01*
X47604Y40292D01*
X47641Y40274D01*
X47686Y40252D01*
X47741Y40233D01*
X47804Y40218D01*
X47871Y40215D01*
X47893D01*
X47908Y40218D01*
X47948Y40222D01*
X48000Y40233D01*
X48059Y40252D01*
X48122Y40277D01*
X48185Y40314D01*
X48244Y40366D01*
X48252Y40374D01*
X48270Y40396D01*
X48292Y40429D01*
X48322Y40474D01*
X48352Y40529D01*
X48374Y40592D01*
X48392Y40666D01*
X48400Y40747D01*
Y40751D01*
Y40758D01*
Y40770D01*
X48396Y40784D01*
X48392Y40825D01*
X48381Y40873D01*
X48366Y40932D01*
X48341Y40992D01*
X48304Y41051D01*
X48256Y41106D01*
X48248Y41114D01*
X48230Y41129D01*
X48200Y41151D01*
X48159Y41177D01*
X48107Y41203D01*
X48045Y41225D01*
X47974Y41240D01*
X47897Y41247D01*
X47863D01*
X47837Y41243D01*
X47804Y41240D01*
X47767Y41232D01*
X47723Y41225D01*
X47675Y41214D01*
X47712Y41491D01*
X47730D01*
X47745Y41487D01*
X47793D01*
X47834Y41495D01*
X47882Y41502D01*
X47937Y41513D01*
X48000Y41532D01*
X48059Y41558D01*
X48122Y41591D01*
X48126D01*
X48130Y41595D01*
X48148Y41609D01*
X48174Y41635D01*
X48204Y41669D01*
X48233Y41717D01*
X48259Y41772D01*
X48278Y41835D01*
X48285Y41872D01*
Y41913D01*
Y41917D01*
Y41920D01*
Y41943D01*
X48278Y41972D01*
X48270Y42013D01*
X48256Y42057D01*
X48237Y42105D01*
X48207Y42153D01*
X48167Y42198D01*
X48163Y42202D01*
X48145Y42216D01*
X48119Y42235D01*
X48085Y42257D01*
X48041Y42276D01*
X47989Y42294D01*
X47930Y42309D01*
X47863Y42312D01*
X47834D01*
X47800Y42305D01*
X47756Y42298D01*
X47708Y42283D01*
X47660Y42264D01*
X47608Y42235D01*
X47560Y42198D01*
X47556Y42194D01*
X47541Y42176D01*
X47519Y42150D01*
X47493Y42113D01*
X47467Y42065D01*
X47442Y42005D01*
X47419Y41935D01*
X47405Y41854D01*
X47090Y41909D01*
Y41913D01*
X47094Y41924D01*
X47097Y41939D01*
X47101Y41961D01*
X47109Y41987D01*
X47120Y42017D01*
X47142Y42087D01*
X47179Y42168D01*
X47223Y42250D01*
X47279Y42327D01*
X47349Y42398D01*
X47353Y42401D01*
X47360Y42405D01*
X47371Y42412D01*
X47386Y42423D01*
X47405Y42438D01*
X47430Y42453D01*
X47456Y42468D01*
X47490Y42486D01*
X47564Y42516D01*
X47649Y42546D01*
X47749Y42564D01*
X47800Y42571D01*
X47893D01*
X47934Y42568D01*
D02*
G37*
G36*
X46269Y73101D02*
X46302Y73097D01*
X46343Y73094D01*
X46384Y73090D01*
X46432Y73079D01*
X46532Y73057D01*
X46643Y73023D01*
X46698Y73001D01*
X46750Y72975D01*
X46802Y72942D01*
X46854Y72909D01*
X46857Y72905D01*
X46865Y72901D01*
X46880Y72890D01*
X46898Y72872D01*
X46917Y72853D01*
X46942Y72827D01*
X46968Y72798D01*
X46998Y72768D01*
X47028Y72731D01*
X47057Y72687D01*
X47091Y72642D01*
X47120Y72594D01*
X47146Y72539D01*
X47176Y72483D01*
X47198Y72424D01*
X47220Y72357D01*
X46887Y72280D01*
Y72283D01*
X46883Y72291D01*
X46876Y72306D01*
X46869Y72324D01*
X46861Y72346D01*
X46850Y72376D01*
X46820Y72435D01*
X46783Y72502D01*
X46739Y72568D01*
X46683Y72631D01*
X46624Y72687D01*
X46617Y72694D01*
X46595Y72709D01*
X46558Y72727D01*
X46510Y72753D01*
X46447Y72776D01*
X46376Y72798D01*
X46291Y72812D01*
X46199Y72816D01*
X46169D01*
X46151Y72812D01*
X46125D01*
X46095Y72809D01*
X46025Y72798D01*
X45947Y72783D01*
X45866Y72757D01*
X45781Y72720D01*
X45703Y72672D01*
X45699D01*
X45696Y72664D01*
X45670Y72646D01*
X45636Y72616D01*
X45596Y72572D01*
X45548Y72517D01*
X45503Y72454D01*
X45463Y72376D01*
X45426Y72291D01*
Y72287D01*
X45422Y72280D01*
X45418Y72269D01*
X45414Y72250D01*
X45407Y72228D01*
X45400Y72202D01*
X45388Y72139D01*
X45374Y72065D01*
X45359Y71984D01*
X45351Y71895D01*
X45348Y71799D01*
Y71795D01*
Y71784D01*
Y71765D01*
Y71743D01*
X45351Y71717D01*
Y71684D01*
X45355Y71647D01*
X45359Y71606D01*
X45370Y71517D01*
X45388Y71421D01*
X45411Y71325D01*
X45440Y71229D01*
Y71225D01*
X45444Y71218D01*
X45451Y71207D01*
X45459Y71188D01*
X45481Y71144D01*
X45514Y71092D01*
X45555Y71033D01*
X45607Y70970D01*
X45666Y70914D01*
X45736Y70863D01*
X45740D01*
X45747Y70859D01*
X45759Y70851D01*
X45773Y70844D01*
X45792Y70837D01*
X45814Y70826D01*
X45866Y70803D01*
X45932Y70781D01*
X46006Y70763D01*
X46088Y70748D01*
X46173Y70744D01*
X46199D01*
X46221Y70748D01*
X46247D01*
X46273Y70752D01*
X46339Y70766D01*
X46417Y70785D01*
X46495Y70815D01*
X46576Y70855D01*
X46617Y70877D01*
X46654Y70907D01*
X46658Y70911D01*
X46661Y70914D01*
X46672Y70925D01*
X46687Y70937D01*
X46702Y70955D01*
X46720Y70977D01*
X46743Y70999D01*
X46761Y71029D01*
X46783Y71062D01*
X46809Y71099D01*
X46832Y71136D01*
X46854Y71181D01*
X46872Y71229D01*
X46891Y71281D01*
X46909Y71336D01*
X46924Y71395D01*
X47264Y71310D01*
Y71307D01*
X47261Y71292D01*
X47253Y71270D01*
X47242Y71240D01*
X47231Y71207D01*
X47216Y71166D01*
X47198Y71122D01*
X47176Y71074D01*
X47124Y70970D01*
X47057Y70866D01*
X47017Y70815D01*
X46976Y70763D01*
X46931Y70718D01*
X46880Y70674D01*
X46876Y70670D01*
X46869Y70663D01*
X46850Y70655D01*
X46832Y70641D01*
X46802Y70622D01*
X46772Y70604D01*
X46732Y70585D01*
X46691Y70567D01*
X46643Y70544D01*
X46591Y70526D01*
X46536Y70507D01*
X46476Y70489D01*
X46413Y70474D01*
X46347Y70467D01*
X46277Y70459D01*
X46202Y70456D01*
X46162D01*
X46132Y70459D01*
X46099D01*
X46058Y70463D01*
X46014Y70470D01*
X45962Y70478D01*
X45855Y70496D01*
X45744Y70526D01*
X45633Y70567D01*
X45581Y70592D01*
X45529Y70622D01*
X45525Y70626D01*
X45518Y70630D01*
X45503Y70641D01*
X45488Y70655D01*
X45466Y70670D01*
X45440Y70692D01*
X45411Y70718D01*
X45381Y70748D01*
X45351Y70781D01*
X45318Y70815D01*
X45252Y70900D01*
X45189Y70999D01*
X45133Y71110D01*
Y71114D01*
X45126Y71125D01*
X45122Y71144D01*
X45111Y71166D01*
X45104Y71196D01*
X45092Y71233D01*
X45078Y71273D01*
X45067Y71318D01*
X45055Y71366D01*
X45041Y71421D01*
X45022Y71536D01*
X45007Y71666D01*
X45000Y71799D01*
Y71802D01*
Y71817D01*
Y71839D01*
X45004Y71865D01*
Y71902D01*
X45007Y71939D01*
X45011Y71987D01*
X45019Y72035D01*
X45037Y72143D01*
X45063Y72261D01*
X45100Y72380D01*
X45152Y72494D01*
X45155Y72498D01*
X45159Y72509D01*
X45167Y72524D01*
X45181Y72542D01*
X45196Y72568D01*
X45215Y72598D01*
X45263Y72664D01*
X45326Y72738D01*
X45400Y72812D01*
X45485Y72887D01*
X45585Y72949D01*
X45588Y72953D01*
X45599Y72957D01*
X45614Y72964D01*
X45633Y72975D01*
X45662Y72986D01*
X45692Y72997D01*
X45729Y73012D01*
X45770Y73027D01*
X45814Y73042D01*
X45862Y73057D01*
X45966Y73079D01*
X46084Y73097D01*
X46206Y73105D01*
X46243D01*
X46269Y73101D01*
D02*
G37*
G36*
X48463Y73068D02*
X48493Y73064D01*
X48530Y73060D01*
X48570Y73053D01*
X48611Y73046D01*
X48707Y73020D01*
X48804Y72983D01*
X48852Y72961D01*
X48900Y72935D01*
X48944Y72901D01*
X48985Y72864D01*
X48989Y72861D01*
X48996Y72857D01*
X49003Y72842D01*
X49018Y72827D01*
X49037Y72809D01*
X49055Y72783D01*
X49074Y72757D01*
X49096Y72724D01*
X49133Y72653D01*
X49170Y72565D01*
X49185Y72520D01*
X49192Y72468D01*
X49200Y72417D01*
X49203Y72361D01*
Y72354D01*
Y72335D01*
X49200Y72306D01*
X49196Y72265D01*
X49188Y72220D01*
X49174Y72169D01*
X49159Y72113D01*
X49137Y72058D01*
X49133Y72050D01*
X49125Y72032D01*
X49111Y72002D01*
X49088Y71961D01*
X49059Y71917D01*
X49022Y71862D01*
X48978Y71806D01*
X48926Y71743D01*
X48918Y71736D01*
X48900Y71714D01*
X48881Y71695D01*
X48863Y71677D01*
X48841Y71654D01*
X48811Y71625D01*
X48781Y71595D01*
X48744Y71562D01*
X48707Y71525D01*
X48663Y71484D01*
X48615Y71443D01*
X48563Y71395D01*
X48504Y71347D01*
X48445Y71295D01*
X48441Y71292D01*
X48434Y71284D01*
X48419Y71273D01*
X48400Y71258D01*
X48378Y71236D01*
X48352Y71214D01*
X48293Y71166D01*
X48230Y71110D01*
X48171Y71055D01*
X48119Y71007D01*
X48097Y70988D01*
X48078Y70970D01*
X48075Y70966D01*
X48064Y70955D01*
X48049Y70940D01*
X48030Y70918D01*
X48012Y70892D01*
X47990Y70866D01*
X47945Y70803D01*
X49207D01*
Y70500D01*
X47509D01*
Y70504D01*
Y70518D01*
Y70541D01*
X47512Y70570D01*
X47516Y70604D01*
X47523Y70641D01*
X47531Y70678D01*
X47546Y70718D01*
Y70722D01*
X47549Y70726D01*
X47557Y70748D01*
X47572Y70781D01*
X47594Y70826D01*
X47623Y70877D01*
X47660Y70937D01*
X47701Y70996D01*
X47753Y71059D01*
Y71062D01*
X47760Y71066D01*
X47779Y71088D01*
X47812Y71122D01*
X47860Y71170D01*
X47916Y71225D01*
X47986Y71292D01*
X48071Y71366D01*
X48164Y71443D01*
X48167Y71447D01*
X48182Y71458D01*
X48204Y71477D01*
X48230Y71499D01*
X48263Y71529D01*
X48304Y71562D01*
X48345Y71599D01*
X48393Y71640D01*
X48485Y71728D01*
X48578Y71817D01*
X48622Y71862D01*
X48663Y71906D01*
X48700Y71947D01*
X48730Y71987D01*
Y71991D01*
X48737Y71995D01*
X48744Y72006D01*
X48752Y72021D01*
X48778Y72061D01*
X48807Y72110D01*
X48833Y72169D01*
X48859Y72232D01*
X48874Y72302D01*
X48881Y72369D01*
Y72372D01*
Y72376D01*
X48878Y72398D01*
X48874Y72435D01*
X48863Y72476D01*
X48848Y72528D01*
X48822Y72579D01*
X48789Y72631D01*
X48744Y72683D01*
X48737Y72690D01*
X48719Y72705D01*
X48693Y72724D01*
X48652Y72750D01*
X48600Y72772D01*
X48541Y72794D01*
X48471Y72809D01*
X48393Y72812D01*
X48371D01*
X48356Y72809D01*
X48311Y72805D01*
X48260Y72794D01*
X48204Y72779D01*
X48141Y72753D01*
X48082Y72720D01*
X48027Y72676D01*
X48019Y72668D01*
X48004Y72650D01*
X47982Y72620D01*
X47960Y72576D01*
X47934Y72524D01*
X47912Y72457D01*
X47897Y72383D01*
X47890Y72298D01*
X47568Y72332D01*
Y72335D01*
X47572Y72346D01*
Y72365D01*
X47575Y72391D01*
X47583Y72420D01*
X47590Y72454D01*
X47601Y72494D01*
X47612Y72535D01*
X47642Y72624D01*
X47686Y72713D01*
X47712Y72757D01*
X47745Y72801D01*
X47779Y72842D01*
X47816Y72879D01*
X47819Y72883D01*
X47827Y72887D01*
X47838Y72898D01*
X47856Y72909D01*
X47879Y72923D01*
X47905Y72938D01*
X47934Y72957D01*
X47971Y72975D01*
X48012Y72994D01*
X48056Y73012D01*
X48104Y73027D01*
X48156Y73042D01*
X48212Y73053D01*
X48271Y73064D01*
X48334Y73068D01*
X48400Y73071D01*
X48437D01*
X48463Y73068D01*
D02*
G37*
G36*
X26085Y65748D02*
X26126Y65743D01*
X26177Y65739D01*
X26228Y65734D01*
X26288Y65720D01*
X26413Y65692D01*
X26551Y65651D01*
X26621Y65623D01*
X26685Y65591D01*
X26750Y65549D01*
X26815Y65508D01*
X26819Y65503D01*
X26829Y65498D01*
X26847Y65484D01*
X26870Y65461D01*
X26893Y65438D01*
X26926Y65406D01*
X26958Y65369D01*
X26995Y65332D01*
X27032Y65286D01*
X27069Y65230D01*
X27110Y65175D01*
X27147Y65115D01*
X27180Y65046D01*
X27217Y64976D01*
X27244Y64902D01*
X27272Y64819D01*
X26856Y64722D01*
Y64727D01*
X26852Y64736D01*
X26842Y64755D01*
X26833Y64778D01*
X26824Y64805D01*
X26810Y64842D01*
X26773Y64916D01*
X26727Y64999D01*
X26671Y65083D01*
X26602Y65161D01*
X26528Y65230D01*
X26519Y65240D01*
X26491Y65258D01*
X26445Y65281D01*
X26385Y65314D01*
X26306Y65341D01*
X26219Y65369D01*
X26112Y65387D01*
X25997Y65392D01*
X25960D01*
X25937Y65387D01*
X25905D01*
X25868Y65383D01*
X25780Y65369D01*
X25683Y65351D01*
X25581Y65318D01*
X25475Y65272D01*
X25378Y65212D01*
X25373D01*
X25369Y65203D01*
X25336Y65180D01*
X25295Y65143D01*
X25244Y65087D01*
X25184Y65018D01*
X25128Y64939D01*
X25078Y64842D01*
X25031Y64736D01*
Y64732D01*
X25027Y64722D01*
X25022Y64708D01*
X25017Y64685D01*
X25008Y64657D01*
X24999Y64625D01*
X24985Y64547D01*
X24967Y64454D01*
X24948Y64353D01*
X24939Y64242D01*
X24934Y64122D01*
Y64117D01*
Y64103D01*
Y64080D01*
Y64052D01*
X24939Y64020D01*
Y63978D01*
X24943Y63932D01*
X24948Y63881D01*
X24962Y63771D01*
X24985Y63650D01*
X25013Y63530D01*
X25050Y63410D01*
Y63406D01*
X25054Y63396D01*
X25064Y63382D01*
X25073Y63359D01*
X25101Y63304D01*
X25142Y63239D01*
X25193Y63165D01*
X25258Y63087D01*
X25332Y63017D01*
X25419Y62953D01*
X25424D01*
X25433Y62948D01*
X25447Y62939D01*
X25466Y62930D01*
X25489Y62920D01*
X25516Y62907D01*
X25581Y62879D01*
X25664Y62851D01*
X25757Y62828D01*
X25858Y62809D01*
X25964Y62805D01*
X25997D01*
X26025Y62809D01*
X26057D01*
X26089Y62814D01*
X26172Y62833D01*
X26270Y62856D01*
X26366Y62893D01*
X26468Y62944D01*
X26519Y62971D01*
X26565Y63008D01*
X26570Y63013D01*
X26574Y63017D01*
X26588Y63031D01*
X26607Y63045D01*
X26625Y63068D01*
X26648Y63096D01*
X26676Y63124D01*
X26699Y63161D01*
X26727Y63202D01*
X26759Y63248D01*
X26787Y63295D01*
X26815Y63350D01*
X26838Y63410D01*
X26861Y63475D01*
X26884Y63544D01*
X26902Y63618D01*
X27327Y63512D01*
Y63507D01*
X27323Y63489D01*
X27314Y63461D01*
X27300Y63424D01*
X27286Y63382D01*
X27267Y63332D01*
X27244Y63276D01*
X27217Y63216D01*
X27152Y63087D01*
X27069Y62957D01*
X27018Y62893D01*
X26967Y62828D01*
X26912Y62773D01*
X26847Y62717D01*
X26842Y62713D01*
X26833Y62703D01*
X26810Y62694D01*
X26787Y62676D01*
X26750Y62652D01*
X26713Y62629D01*
X26662Y62606D01*
X26611Y62583D01*
X26551Y62555D01*
X26487Y62532D01*
X26417Y62509D01*
X26343Y62486D01*
X26265Y62468D01*
X26182Y62458D01*
X26094Y62449D01*
X26002Y62445D01*
X25951D01*
X25914Y62449D01*
X25872D01*
X25821Y62454D01*
X25766Y62463D01*
X25701Y62472D01*
X25567Y62495D01*
X25429Y62532D01*
X25290Y62583D01*
X25225Y62616D01*
X25161Y62652D01*
X25156Y62657D01*
X25147Y62662D01*
X25128Y62676D01*
X25110Y62694D01*
X25082Y62713D01*
X25050Y62740D01*
X25013Y62773D01*
X24976Y62809D01*
X24939Y62851D01*
X24897Y62893D01*
X24814Y62999D01*
X24736Y63124D01*
X24666Y63262D01*
Y63267D01*
X24657Y63281D01*
X24653Y63304D01*
X24639Y63332D01*
X24629Y63369D01*
X24615Y63415D01*
X24597Y63466D01*
X24583Y63521D01*
X24569Y63581D01*
X24551Y63650D01*
X24528Y63794D01*
X24509Y63955D01*
X24500Y64122D01*
Y64126D01*
Y64145D01*
Y64172D01*
X24505Y64205D01*
Y64251D01*
X24509Y64297D01*
X24514Y64357D01*
X24523Y64417D01*
X24546Y64551D01*
X24578Y64699D01*
X24625Y64847D01*
X24689Y64990D01*
X24694Y64995D01*
X24699Y65009D01*
X24708Y65027D01*
X24726Y65050D01*
X24745Y65083D01*
X24768Y65119D01*
X24828Y65203D01*
X24907Y65295D01*
X24999Y65387D01*
X25105Y65480D01*
X25230Y65558D01*
X25235Y65563D01*
X25248Y65568D01*
X25267Y65577D01*
X25290Y65591D01*
X25327Y65605D01*
X25364Y65618D01*
X25410Y65637D01*
X25461Y65655D01*
X25516Y65674D01*
X25576Y65692D01*
X25706Y65720D01*
X25854Y65743D01*
X26006Y65753D01*
X26052D01*
X26085Y65748D01*
D02*
G37*
G36*
X29166Y62500D02*
X28773D01*
Y64999D01*
X28769Y64995D01*
X28746Y64976D01*
X28718Y64949D01*
X28672Y64916D01*
X28621Y64875D01*
X28556Y64828D01*
X28482Y64778D01*
X28399Y64727D01*
X28395D01*
X28390Y64722D01*
X28362Y64704D01*
X28316Y64681D01*
X28261Y64653D01*
X28196Y64621D01*
X28127Y64588D01*
X28057Y64556D01*
X27988Y64528D01*
Y64907D01*
X27993D01*
X28002Y64916D01*
X28020Y64921D01*
X28043Y64935D01*
X28071Y64949D01*
X28104Y64967D01*
X28182Y65013D01*
X28275Y65064D01*
X28367Y65129D01*
X28464Y65203D01*
X28561Y65281D01*
X28566Y65286D01*
X28570Y65290D01*
X28584Y65304D01*
X28603Y65318D01*
X28644Y65364D01*
X28700Y65420D01*
X28755Y65484D01*
X28815Y65558D01*
X28866Y65632D01*
X28912Y65711D01*
X29166D01*
Y62500D01*
D02*
G37*
%LPC*%
G36*
X40548Y103038D02*
X39883D01*
Y100841D01*
X40565D01*
X40594Y100845D01*
X40657Y100849D01*
X40727Y100854D01*
X40802Y100862D01*
X40877Y100874D01*
X40939Y100891D01*
X40948Y100895D01*
X40968Y100899D01*
X40998Y100912D01*
X41035Y100928D01*
X41077Y100953D01*
X41118Y100978D01*
X41160Y101007D01*
X41201Y101041D01*
X41206Y101049D01*
X41222Y101066D01*
X41247Y101095D01*
X41276Y101137D01*
X41310Y101191D01*
X41347Y101253D01*
X41380Y101324D01*
X41409Y101403D01*
Y101407D01*
X41414Y101415D01*
X41418Y101428D01*
X41422Y101444D01*
X41426Y101465D01*
X41434Y101494D01*
X41443Y101523D01*
X41451Y101557D01*
X41464Y101640D01*
X41476Y101735D01*
X41484Y101844D01*
X41489Y101960D01*
Y101964D01*
Y101981D01*
Y102002D01*
X41484Y102035D01*
Y102073D01*
X41480Y102114D01*
X41476Y102164D01*
X41472Y102214D01*
X41451Y102326D01*
X41426Y102443D01*
X41389Y102551D01*
X41364Y102605D01*
X41339Y102651D01*
Y102655D01*
X41330Y102663D01*
X41322Y102676D01*
X41314Y102692D01*
X41280Y102734D01*
X41239Y102784D01*
X41185Y102838D01*
X41122Y102892D01*
X41052Y102938D01*
X40977Y102975D01*
X40968Y102979D01*
X40948Y102983D01*
X40910Y102996D01*
X40856Y103008D01*
X40790Y103017D01*
X40706Y103029D01*
X40657Y103033D01*
X40602D01*
X40548Y103038D01*
D02*
G37*
G36*
X78476Y29036D02*
X78460D01*
X78449Y29033D01*
X78421Y29030D01*
X78382Y29022D01*
X78341Y29008D01*
X78294Y28986D01*
X78249Y28958D01*
X78205Y28920D01*
X78199Y28914D01*
X78188Y28900D01*
X78169Y28875D01*
X78149Y28839D01*
X78130Y28798D01*
X78111Y28745D01*
X78100Y28687D01*
X78094Y28620D01*
Y28615D01*
Y28601D01*
X78097Y28576D01*
X78100Y28546D01*
X78105Y28510D01*
X78116Y28471D01*
X78127Y28429D01*
X78144Y28388D01*
X78147Y28382D01*
X78155Y28368D01*
X78166Y28349D01*
X78183Y28324D01*
X78202Y28299D01*
X78227Y28269D01*
X78255Y28244D01*
X78288Y28219D01*
X78294Y28216D01*
X78305Y28210D01*
X78324Y28199D01*
X78349Y28191D01*
X78377Y28180D01*
X78410Y28169D01*
X78446Y28163D01*
X78485Y28161D01*
X78499D01*
X78510Y28163D01*
X78537Y28166D01*
X78573Y28174D01*
X78612Y28191D01*
X78656Y28210D01*
X78701Y28241D01*
X78723Y28258D01*
X78742Y28280D01*
Y28282D01*
X78748Y28285D01*
X78759Y28302D01*
X78776Y28330D01*
X78798Y28366D01*
X78817Y28413D01*
X78834Y28468D01*
X78845Y28532D01*
X78850Y28607D01*
Y28609D01*
Y28615D01*
Y28626D01*
X78848Y28640D01*
Y28657D01*
X78845Y28676D01*
X78837Y28720D01*
X78825Y28770D01*
X78806Y28823D01*
X78778Y28873D01*
X78742Y28920D01*
X78737Y28925D01*
X78723Y28939D01*
X78701Y28956D01*
X78670Y28978D01*
X78632Y29000D01*
X78587Y29017D01*
X78535Y29030D01*
X78476Y29036D01*
D02*
G37*
G36*
X76859Y29704D02*
X76255D01*
Y29069D01*
X76825D01*
X76859Y29072D01*
X76898Y29075D01*
X76942Y29078D01*
X76986Y29083D01*
X77030Y29091D01*
X77069Y29103D01*
X77075Y29105D01*
X77086Y29111D01*
X77103Y29119D01*
X77125Y29130D01*
X77149Y29147D01*
X77175Y29166D01*
X77199Y29191D01*
X77219Y29219D01*
X77222Y29222D01*
X77227Y29233D01*
X77235Y29249D01*
X77246Y29271D01*
X77255Y29296D01*
X77263Y29324D01*
X77269Y29357D01*
X77271Y29390D01*
Y29393D01*
Y29396D01*
X77269Y29413D01*
X77266Y29438D01*
X77260Y29471D01*
X77246Y29504D01*
X77230Y29543D01*
X77205Y29579D01*
X77172Y29615D01*
X77166Y29618D01*
X77152Y29629D01*
X77130Y29643D01*
X77094Y29659D01*
X77053Y29676D01*
X76997Y29690D01*
X76933Y29701D01*
X76859Y29704D01*
D02*
G37*
G36*
X81859D02*
X81255D01*
Y29069D01*
X81826D01*
X81859Y29072D01*
X81897Y29075D01*
X81942Y29078D01*
X81986Y29083D01*
X82030Y29091D01*
X82069Y29103D01*
X82075Y29105D01*
X82086Y29111D01*
X82103Y29119D01*
X82125Y29130D01*
X82149Y29147D01*
X82174Y29166D01*
X82199Y29191D01*
X82219Y29219D01*
X82222Y29222D01*
X82227Y29233D01*
X82235Y29249D01*
X82247Y29271D01*
X82255Y29296D01*
X82263Y29324D01*
X82269Y29357D01*
X82271Y29390D01*
Y29393D01*
Y29396D01*
X82269Y29413D01*
X82266Y29438D01*
X82260Y29471D01*
X82247Y29504D01*
X82230Y29543D01*
X82205Y29579D01*
X82172Y29615D01*
X82166Y29618D01*
X82152Y29629D01*
X82130Y29643D01*
X82094Y29659D01*
X82053Y29676D01*
X81997Y29690D01*
X81933Y29701D01*
X81859Y29704D01*
D02*
G37*
G36*
X73087Y29535D02*
X72483Y28676D01*
X73087D01*
Y29535D01*
D02*
G37*
G36*
X71359Y29704D02*
X70755D01*
Y29069D01*
X71325D01*
X71359Y29072D01*
X71398Y29075D01*
X71442Y29078D01*
X71486Y29083D01*
X71530Y29091D01*
X71569Y29103D01*
X71575Y29105D01*
X71586Y29111D01*
X71602Y29119D01*
X71625Y29130D01*
X71649Y29147D01*
X71675Y29166D01*
X71699Y29191D01*
X71719Y29219D01*
X71722Y29222D01*
X71727Y29233D01*
X71735Y29249D01*
X71746Y29271D01*
X71755Y29296D01*
X71763Y29324D01*
X71769Y29357D01*
X71771Y29390D01*
Y29393D01*
Y29396D01*
X71769Y29413D01*
X71766Y29438D01*
X71760Y29471D01*
X71746Y29504D01*
X71730Y29543D01*
X71705Y29579D01*
X71672Y29615D01*
X71666Y29618D01*
X71652Y29629D01*
X71630Y29643D01*
X71594Y29659D01*
X71553Y29676D01*
X71497Y29690D01*
X71434Y29701D01*
X71359Y29704D01*
D02*
G37*
G36*
X79056Y82504D02*
X78250D01*
Y81656D01*
X79012D01*
X79056Y81660D01*
X79108Y81664D01*
X79167Y81668D01*
X79227Y81675D01*
X79286Y81686D01*
X79338Y81701D01*
X79345Y81704D01*
X79360Y81712D01*
X79382Y81723D01*
X79412Y81738D01*
X79445Y81760D01*
X79478Y81786D01*
X79511Y81819D01*
X79537Y81856D01*
X79541Y81860D01*
X79549Y81875D01*
X79560Y81897D01*
X79575Y81927D01*
X79586Y81960D01*
X79597Y81997D01*
X79604Y82041D01*
X79608Y82086D01*
Y82089D01*
Y82093D01*
X79604Y82115D01*
X79600Y82149D01*
X79593Y82193D01*
X79575Y82237D01*
X79552Y82289D01*
X79519Y82337D01*
X79475Y82385D01*
X79467Y82389D01*
X79449Y82404D01*
X79419Y82422D01*
X79371Y82445D01*
X79315Y82467D01*
X79241Y82485D01*
X79156Y82500D01*
X79056Y82504D01*
D02*
G37*
G36*
X57340Y72776D02*
Y71928D01*
X58103D01*
X58147Y71932D01*
X58199Y71936D01*
X58258Y71939D01*
X58317Y71947D01*
X58376Y71958D01*
X58428Y71973D01*
X58436Y71976D01*
X58450Y71984D01*
X58473Y71995D01*
X58502Y72010D01*
X58535Y72032D01*
X58569Y72058D01*
X58602Y72091D01*
X58628Y72128D01*
X58632Y72132D01*
X58639Y72146D01*
X58650Y72169D01*
X58665Y72198D01*
X58676Y72232D01*
X58687Y72269D01*
X58695Y72313D01*
X58698Y72357D01*
Y72361D01*
Y72365D01*
X58695Y72387D01*
X58691Y72420D01*
X58684Y72465D01*
X58665Y72509D01*
X58643Y72561D01*
X58609Y72609D01*
X58565Y72657D01*
X58558Y72661D01*
X58539Y72676D01*
X58510Y72694D01*
X58461Y72716D01*
X58406Y72738D01*
X58332Y72757D01*
X58247Y72772D01*
X58147Y72776D01*
X57340D01*
D02*
G37*
G36*
X35932Y65341D02*
X34925D01*
Y64283D01*
X35877D01*
X35932Y64288D01*
X35997Y64293D01*
X36071Y64297D01*
X36145Y64306D01*
X36219Y64320D01*
X36283Y64339D01*
X36293Y64343D01*
X36311Y64353D01*
X36339Y64367D01*
X36376Y64385D01*
X36417Y64413D01*
X36459Y64445D01*
X36500Y64487D01*
X36533Y64533D01*
X36537Y64537D01*
X36547Y64556D01*
X36560Y64584D01*
X36579Y64621D01*
X36593Y64662D01*
X36607Y64708D01*
X36616Y64764D01*
X36621Y64819D01*
Y64824D01*
Y64828D01*
X36616Y64856D01*
X36611Y64898D01*
X36602Y64953D01*
X36579Y65009D01*
X36551Y65073D01*
X36510Y65133D01*
X36454Y65193D01*
X36445Y65198D01*
X36422Y65217D01*
X36385Y65240D01*
X36325Y65267D01*
X36256Y65295D01*
X36163Y65318D01*
X36057Y65337D01*
X35932Y65341D01*
D02*
G37*
G36*
X18164Y19318D02*
X17425D01*
Y16879D01*
X18183D01*
X18215Y16883D01*
X18284Y16888D01*
X18363Y16893D01*
X18446Y16902D01*
X18529Y16916D01*
X18598Y16934D01*
X18608Y16939D01*
X18631Y16943D01*
X18663Y16957D01*
X18705Y16976D01*
X18751Y17004D01*
X18797Y17031D01*
X18843Y17064D01*
X18890Y17101D01*
X18894Y17110D01*
X18913Y17128D01*
X18940Y17161D01*
X18973Y17207D01*
X19010Y17267D01*
X19051Y17336D01*
X19088Y17415D01*
X19121Y17503D01*
Y17507D01*
X19125Y17516D01*
X19130Y17530D01*
X19134Y17549D01*
X19139Y17572D01*
X19148Y17604D01*
X19158Y17637D01*
X19167Y17673D01*
X19181Y17766D01*
X19195Y17872D01*
X19204Y17992D01*
X19208Y18122D01*
Y18126D01*
Y18145D01*
Y18168D01*
X19204Y18205D01*
Y18246D01*
X19199Y18293D01*
X19195Y18348D01*
X19190Y18403D01*
X19167Y18528D01*
X19139Y18657D01*
X19097Y18778D01*
X19070Y18838D01*
X19042Y18889D01*
Y18893D01*
X19033Y18902D01*
X19024Y18916D01*
X19014Y18935D01*
X18977Y18981D01*
X18931Y19036D01*
X18871Y19096D01*
X18802Y19157D01*
X18723Y19207D01*
X18640Y19249D01*
X18631Y19253D01*
X18608Y19258D01*
X18566Y19272D01*
X18506Y19286D01*
X18432Y19295D01*
X18340Y19309D01*
X18284Y19314D01*
X18224D01*
X18164Y19318D01*
D02*
G37*
G36*
X94164Y64818D02*
X93425D01*
Y62379D01*
X94183D01*
X94215Y62384D01*
X94284Y62388D01*
X94363Y62393D01*
X94446Y62402D01*
X94529Y62416D01*
X94599Y62434D01*
X94608Y62439D01*
X94631Y62444D01*
X94663Y62457D01*
X94705Y62476D01*
X94751Y62504D01*
X94797Y62531D01*
X94843Y62564D01*
X94890Y62601D01*
X94894Y62610D01*
X94913Y62628D01*
X94940Y62661D01*
X94973Y62707D01*
X95010Y62767D01*
X95051Y62836D01*
X95088Y62915D01*
X95121Y63003D01*
Y63007D01*
X95125Y63016D01*
X95130Y63030D01*
X95134Y63049D01*
X95139Y63072D01*
X95148Y63104D01*
X95157Y63137D01*
X95167Y63174D01*
X95181Y63266D01*
X95195Y63372D01*
X95204Y63492D01*
X95208Y63622D01*
Y63626D01*
Y63645D01*
Y63668D01*
X95204Y63705D01*
Y63746D01*
X95199Y63793D01*
X95195Y63848D01*
X95190Y63903D01*
X95167Y64028D01*
X95139Y64157D01*
X95098Y64278D01*
X95070Y64338D01*
X95042Y64389D01*
Y64393D01*
X95033Y64402D01*
X95024Y64416D01*
X95014Y64435D01*
X94977Y64481D01*
X94931Y64536D01*
X94871Y64596D01*
X94802Y64657D01*
X94723Y64707D01*
X94640Y64749D01*
X94631Y64754D01*
X94608Y64758D01*
X94566Y64772D01*
X94506Y64786D01*
X94432Y64795D01*
X94340Y64809D01*
X94284Y64814D01*
X94224D01*
X94164Y64818D01*
D02*
G37*
G36*
X70059Y82550D02*
X69253Y81403D01*
X70059D01*
Y82550D01*
D02*
G37*
%LPD*%
D10*
X50674Y101917D02*
G03*
X50404Y101178I-135J-370D01*
G01*
D02*
G03*
X50674Y101917I135J370D01*
G01*
X76803Y36665D02*
X77197D01*
X81803Y36543D02*
X82197D01*
X71803Y36787D02*
X72197D01*
X55303Y68335D02*
X55697D01*
X45873Y47041D02*
X48334D01*
X45873D02*
Y49502D01*
X60342Y47041D02*
X62802D01*
Y49502D01*
Y61510D02*
Y63971D01*
X60342D02*
X62802D01*
X45873D02*
X48334D01*
X45873Y61510D02*
Y63971D01*
X50303Y68335D02*
X50697D01*
X76213Y78035D02*
X76606D01*
X50303Y37957D02*
X50697D01*
X71803Y85665D02*
X72197D01*
X90130Y47126D02*
Y62874D01*
X68870Y47126D02*
Y62874D01*
X90130D01*
X68870Y47126D02*
X90130D01*
D11*
X43806Y63380D02*
G03*
X43806Y63380I-492J0D01*
G01*
X69146Y41811D02*
G03*
X69146Y41811I-492J0D01*
G01*
D12*
X73988Y51063D02*
G03*
X73988Y51063I-1181J0D01*
G01*
D13*
X55819Y101092D02*
X61739Y98937D01*
X53261Y94063D02*
X59180Y91908D01*
M02*
