G04*
G04 #@! TF.GenerationSoftware,Altium Limited,Altium Designer,19.1.6 (110)*
G04*
G04 Layer_Physical_Order=2*
G04 Layer_Color=16711680*
%FSLAX25Y25*%
%MOIN*%
G70*
G01*
G75*
%ADD38C,0.01000*%
%ADD39C,0.14700*%
%ADD40C,0.03000*%
%ADD41C,0.02000*%
%ADD42C,0.01968*%
%ADD43R,0.05906X0.13386*%
%ADD44R,0.04000X0.14000*%
G36*
X54284Y105753D02*
X58734Y105167D01*
X63116Y104196D01*
X67397Y102846D01*
X71543Y101129D01*
X75524Y99056D01*
X79310Y96645D01*
X82871Y93912D01*
X86180Y90880D01*
X89212Y87571D01*
X91944Y84010D01*
X94356Y80225D01*
X96429Y76243D01*
X98146Y72097D01*
X99496Y67816D01*
X100467Y63434D01*
X101053Y58984D01*
X101249Y54500D01*
X101053Y50016D01*
X100467Y45566D01*
X99496Y41184D01*
X98146Y36903D01*
X96429Y32757D01*
X94356Y28776D01*
X91944Y24990D01*
X89212Y21429D01*
X86180Y18120D01*
X82871Y15088D01*
X79310Y12355D01*
X75524Y9944D01*
X71543Y7871D01*
X67397Y6154D01*
X63116Y4804D01*
X58734Y3833D01*
X54284Y3247D01*
X52249Y3158D01*
X52192Y3213D01*
Y3156D01*
X49800Y3051D01*
X46792Y3182D01*
X38192Y4707D01*
X38192Y24466D01*
X47033Y33307D01*
X49953D01*
Y36227D01*
X51730Y38004D01*
X51888Y37938D01*
Y41782D01*
X52388Y42083D01*
X53000Y41961D01*
X53780Y42116D01*
X54311Y42471D01*
X59500D01*
X60085Y42587D01*
X60581Y42919D01*
X64509Y46846D01*
X64971Y46654D01*
Y28165D01*
X63955Y27150D01*
X60118D01*
Y11150D01*
X66118D01*
Y24987D01*
X67581Y26450D01*
X67913Y26946D01*
X68029Y27531D01*
Y33065D01*
X68429Y33307D01*
X68529Y33307D01*
X76335D01*
Y48693D01*
X68529D01*
X68429Y48693D01*
X68029Y48935D01*
Y49689D01*
X68384Y50220D01*
X68539Y51000D01*
X68384Y51780D01*
X68090Y52221D01*
X68356Y52721D01*
X80250D01*
X80835Y52837D01*
X81331Y53169D01*
X83581Y55419D01*
X83913Y55915D01*
X84029Y56500D01*
Y72015D01*
X84302Y72198D01*
X84500Y72493D01*
X85000D01*
X85198Y72198D01*
X86024Y71645D01*
X87000Y71451D01*
X87976Y71645D01*
X88802Y72198D01*
X89355Y73024D01*
X89549Y74000D01*
X89355Y74976D01*
X88802Y75802D01*
X87976Y76355D01*
X87445Y76460D01*
X85824Y78081D01*
X85328Y78413D01*
X84743Y78529D01*
X71000D01*
X70415Y78413D01*
X69919Y78081D01*
X62846Y71008D01*
X62529Y70946D01*
X62029Y71312D01*
Y75542D01*
X61913Y76127D01*
X61581Y76623D01*
X59654Y78550D01*
X59846Y79012D01*
X66041D01*
X66627Y79128D01*
X67123Y79460D01*
X74133Y86471D01*
X75189D01*
X75720Y86116D01*
X76500Y85961D01*
X77280Y86116D01*
X77942Y86558D01*
X78384Y87220D01*
X78539Y88000D01*
X78384Y88780D01*
X77942Y89442D01*
X77280Y89884D01*
X76500Y90039D01*
X75720Y89884D01*
X75189Y89529D01*
X74281D01*
X74014Y90029D01*
X74355Y90540D01*
X74449Y91016D01*
X69551D01*
X69645Y90540D01*
X70198Y89713D01*
X71025Y89161D01*
X71664Y89034D01*
X71828Y88491D01*
X69490Y86152D01*
X69029Y86399D01*
X69049Y86500D01*
X68855Y87476D01*
X68302Y88302D01*
X67475Y88855D01*
X66500Y89049D01*
X65525Y88855D01*
X64698Y88302D01*
X64145Y87476D01*
X63951Y86500D01*
X64145Y85524D01*
X64698Y84698D01*
X65525Y84145D01*
X66500Y83951D01*
X66601Y83971D01*
X66847Y83510D01*
X65408Y82071D01*
X57485D01*
X57302Y82344D01*
X56476Y82896D01*
X55500Y83091D01*
X54524Y82896D01*
X53698Y82344D01*
X53145Y81517D01*
X52951Y80541D01*
X53145Y79566D01*
X53698Y78739D01*
X54524Y78187D01*
X55500Y77992D01*
X55822Y78057D01*
X58971Y74908D01*
Y58000D01*
X58471Y57951D01*
X58372Y58446D01*
X57934Y59102D01*
X57277Y59540D01*
X57003Y59595D01*
Y57671D01*
X56003D01*
Y59595D01*
X55729Y59540D01*
X55072Y59102D01*
X54634Y58446D01*
X54593Y58238D01*
X54083D01*
X54041Y58446D01*
X53603Y59102D01*
X52946Y59540D01*
X52172Y59694D01*
X51888Y59928D01*
Y105496D01*
X52249Y105842D01*
X54284Y105753D01*
D02*
G37*
G36*
X74181Y75030D02*
X74145Y74976D01*
X73951Y74000D01*
X74145Y73024D01*
X74698Y72198D01*
X74971Y72015D01*
Y68634D01*
X70919Y64581D01*
X69858Y63521D01*
X69526Y63025D01*
X69410Y62439D01*
X69451Y62231D01*
X69026Y61806D01*
X68818Y61847D01*
X68233Y61731D01*
X67737Y61400D01*
X66346Y60009D01*
X65720Y59884D01*
X65058Y59442D01*
X64616Y58780D01*
X64461Y58000D01*
X64616Y57220D01*
X65058Y56558D01*
X65332Y56375D01*
Y55875D01*
X65058Y55692D01*
X64616Y55030D01*
X64461Y54250D01*
X64616Y53470D01*
X65058Y52808D01*
Y52442D01*
X64616Y51780D01*
X64491Y51154D01*
X62491Y49154D01*
X62029Y49346D01*
Y66688D01*
X62529Y67054D01*
X63000Y66961D01*
X63780Y67116D01*
X64442Y67558D01*
X64884Y68220D01*
X65008Y68846D01*
X71633Y75471D01*
X73946D01*
X74181Y75030D01*
D02*
G37*
G36*
X80181D02*
X80145Y74976D01*
X79951Y74000D01*
X80145Y73024D01*
X80698Y72198D01*
X80971Y72015D01*
Y57134D01*
X79616Y55779D01*
X67811D01*
X67668Y55875D01*
Y56375D01*
X67942Y56558D01*
X68384Y57220D01*
X68494Y57772D01*
X68943Y58030D01*
X69333Y57640D01*
X69829Y57308D01*
X70415Y57192D01*
X71000Y57308D01*
X71496Y57640D01*
X73618Y59761D01*
X73949Y60257D01*
X74066Y60843D01*
X73949Y61428D01*
X73618Y61924D01*
X73102Y62439D01*
X77581Y66919D01*
X77913Y67415D01*
X78029Y68000D01*
Y72015D01*
X78302Y72198D01*
X78855Y73024D01*
X79049Y74000D01*
X78855Y74976D01*
X78819Y75030D01*
X79054Y75471D01*
X79946D01*
X80181Y75030D01*
D02*
G37*
G36*
X57003Y51417D02*
X57277Y51472D01*
X57934Y51910D01*
X58372Y52566D01*
X58471Y53061D01*
X58971Y53012D01*
Y45634D01*
X58867Y45529D01*
X54311D01*
X53780Y45884D01*
X53000Y46039D01*
X52388Y45917D01*
X51888Y46218D01*
Y51084D01*
X52172Y51318D01*
X52946Y51472D01*
X53603Y51910D01*
X54041Y52566D01*
X54083Y52774D01*
X54593D01*
X54634Y52566D01*
X55072Y51910D01*
X55729Y51472D01*
X56003Y51417D01*
Y53341D01*
X57003D01*
Y51417D01*
D02*
G37*
%LPC*%
G36*
X72500Y93965D02*
Y92016D01*
X74449D01*
X74355Y92491D01*
X73802Y93318D01*
X72975Y93871D01*
X72500Y93965D01*
D02*
G37*
G36*
X71500D02*
X71025Y93871D01*
X70198Y93318D01*
X69645Y92491D01*
X69551Y92016D01*
X71500D01*
Y93965D01*
D02*
G37*
G36*
X92500Y44440D02*
Y43000D01*
X93940D01*
X93884Y43280D01*
X93442Y43942D01*
X92780Y44384D01*
X92500Y44440D01*
D02*
G37*
G36*
X91500D02*
X91220Y44384D01*
X90558Y43942D01*
X90116Y43280D01*
X90060Y43000D01*
X91500D01*
Y44440D01*
D02*
G37*
G36*
X93940Y42000D02*
X92500D01*
Y40560D01*
X92780Y40616D01*
X93442Y41058D01*
X93884Y41720D01*
X93940Y42000D01*
D02*
G37*
G36*
X91500D02*
X90060D01*
X90116Y41720D01*
X90558Y41058D01*
X91220Y40616D01*
X91500Y40560D01*
Y42000D01*
D02*
G37*
G36*
X58244Y27150D02*
X55744D01*
Y19650D01*
X58244D01*
Y27150D01*
D02*
G37*
G36*
Y18650D02*
X55744D01*
Y11150D01*
X58244D01*
Y18650D01*
D02*
G37*
G36*
X52192Y27286D02*
X52192Y11098D01*
X52244Y11150D01*
X52388Y11150D01*
X54744D01*
Y19150D01*
Y27150D01*
X52388D01*
X52192Y27286D01*
D02*
G37*
%LPD*%
D38*
X66500Y27531D02*
Y51000D01*
X63118Y24150D02*
X66500Y27531D01*
X60500Y45000D02*
X66500Y51000D01*
X53000Y44000D02*
X59500D01*
X60500Y45000D01*
X63118Y19150D02*
Y24150D01*
X60500Y45000D02*
Y75542D01*
X55500Y80541D02*
X60500Y75542D01*
X66041Y80541D02*
X73500Y88000D01*
X55500Y80541D02*
X66041D01*
X73500Y88000D02*
X76500D01*
X82500Y56500D02*
Y74000D01*
X80250Y54250D02*
X82500Y56500D01*
X66750Y54250D02*
X80250D01*
X76500Y68000D02*
Y74000D01*
X72000Y63500D02*
X76500Y68000D01*
X66500Y58000D02*
X68250Y59750D01*
X68818Y60318D01*
X70415Y58721D01*
X72536Y60843D01*
X70939Y62439D02*
X72536Y60843D01*
X70939Y62439D02*
X72000Y63500D01*
X84743Y77000D02*
X87000Y74743D01*
X71000Y77000D02*
X84743D01*
X63000Y69000D02*
X71000Y77000D01*
X87000Y74000D02*
Y74743D01*
X52172Y53341D02*
Y57671D01*
X56503Y53341D02*
Y57671D01*
D39*
X32500Y38500D02*
D03*
Y76500D02*
D03*
D40*
X66500Y86500D02*
D03*
X55500Y80541D02*
D03*
X76500Y74000D02*
D03*
X72000Y91516D02*
D03*
X82500Y74000D02*
D03*
X87000D02*
D03*
D41*
X92000Y42500D02*
D03*
X53000Y44000D02*
D03*
X66500Y51000D02*
D03*
Y54250D02*
D03*
X76500Y88000D02*
D03*
X63000Y69000D02*
D03*
X66500Y58000D02*
D03*
D42*
X56503Y53341D02*
D03*
X52172D02*
D03*
X56503Y57671D02*
D03*
X52172D02*
D03*
D43*
X46000Y41000D02*
D03*
X72382Y41000D02*
D03*
D44*
X55244Y19150D02*
D03*
X63118Y19150D02*
D03*
M02*
